<svg version="1.1" viewBox="0.0 0.0 600.0 371.0" fill="none" stroke="none" stroke-linecap="square" stroke-miterlimit="10" width="600" height="371" xmlns:xlink="http://www.w3.org/1999/xlink" xmlns="http://www.w3.org/2000/svg"><path fill="#ffffff" d="M0 0L600.0 0L600.0 371.0L0 371.0L0 0Z" fill-rule="nonzero"/><path stroke="#333333" stroke-width="1.0" stroke-linecap="butt" d="M90.5 313.5L581.5 313.5" fill-rule="nonzero"/><path stroke="#cccccc" stroke-width="1.0" stroke-linecap="butt" d="M90.5 250.5L581.5 250.5" fill-rule="nonzero"/><path stroke="#cccccc" stroke-width="1.0" stroke-linecap="butt" d="M90.5 187.5L581.5 187.5" fill-rule="nonzero"/><path stroke="#cccccc" stroke-width="1.0" stroke-linecap="butt" d="M90.5 124.5L581.5 124.5" fill-rule="nonzero"/><path stroke="#cccccc" stroke-width="1.0" stroke-linecap="butt" d="M90.5 61.5L581.5 61.5" fill-rule="nonzero"/><path stroke="#e6e6e6" stroke-width="1.0" stroke-linecap="butt" d="M90.5 292.5L581.5 292.5" fill-rule="nonzero"/><path stroke="#e6e6e6" stroke-width="1.0" stroke-linecap="butt" d="M90.5 271.5L581.5 271.5" fill-rule="nonzero"/><path stroke="#e6e6e6" stroke-width="1.0" stroke-linecap="butt" d="M90.5 229.5L581.5 229.5" fill-rule="nonzero"/><path stroke="#e6e6e6" stroke-width="1.0" stroke-linecap="butt" d="M90.5 208.5L581.5 208.5" fill-rule="nonzero"/><path stroke="#e6e6e6" stroke-width="1.0" stroke-linecap="butt" d="M90.5 166.5L581.5 166.5" fill-rule="nonzero"/><path stroke="#e6e6e6" stroke-width="1.0" stroke-linecap="butt" d="M90.5 145.5L581.5 145.5" fill-rule="nonzero"/><path stroke="#e6e6e6" stroke-width="1.0" stroke-linecap="butt" d="M90.5 103.5L581.5 103.5" fill-rule="nonzero"/><path stroke="#e6e6e6" stroke-width="1.0" stroke-linecap="butt" d="M90.5 82.5L581.5 82.5" fill-rule="nonzero"/><path stroke="#000000" stroke-width="1.0" stroke-linecap="butt" d="M90.5 313.5L90.5 61.5" fill-rule="nonzero"/><clipPath id="id_0"><path d="M90.55 61.916668L581.45 61.916668L581.45 313.45L90.55 313.45L90.55 61.916668Z" clip-rule="nonzero"/></clipPath><path stroke="#000000" stroke-width="2.0" stroke-linecap="butt" stroke-opacity="0.0" clip-path="url(#id_0)" d="M296.0 313.0L219.0 313.0L219.0 112.0C219.0 110.89543 219.89543 110.0 221.0 110.0L294.0 110.0C295.10458 110.0 296.0 110.89543 296.0 112.0Z" fill-rule="nonzero"/><path fill="#ff6d01" clip-path="url(#id_0)" d="M296.0 313.0L219.0 313.0L219.0 112.0C219.0 110.89543 219.89543 110.0 221.0 110.0L294.0 110.0C295.10458 110.0 296.0 110.89543 296.0 112.0Z" fill-rule="nonzero"/><path stroke="#000000" stroke-width="2.0" stroke-linecap="butt" stroke-opacity="0.0" clip-path="url(#id_0)" d="M375.0 313.0L298.0 313.0L298.0 99.0C298.0 97.89543 298.89542 97.0 300.0 97.0L373.0 97.0C374.10458 97.0 375.0 97.89543 375.0 99.0Z" fill-rule="nonzero"/><path fill="#ff6d01" clip-path="url(#id_0)" d="M375.0 313.0L298.0 313.0L298.0 99.0C298.0 97.89543 298.89542 97.0 300.0 97.0L373.0 97.0C374.10458 97.0 375.0 97.89543 375.0 99.0Z" fill-rule="nonzero"/><path stroke="#000000" stroke-width="2.0" stroke-linecap="butt" stroke-opacity="0.0" clip-path="url(#id_0)" d="M454.0 313.0L377.0 313.0L377.0 120.0C377.0 118.89543 377.89542 118.0 379.0 118.0L452.0 118.0C453.10458 118.0 454.0 118.89543 454.0 120.0Z" fill-rule="nonzero"/><path fill="#ff6d01" clip-path="url(#id_0)" d="M454.0 313.0L377.0 313.0L377.0 120.0C377.0 118.89543 377.89542 118.0 379.0 118.0L452.0 118.0C453.10458 118.0 454.0 118.89543 454.0 120.0Z" fill-rule="nonzero"/><path stroke="#000000" stroke-width="1.0" stroke-linecap="butt" d="M84.5 313.5L96.5 313.5" fill-rule="nonzero"/><path stroke="#000000" stroke-width="1.0" stroke-linecap="butt" d="M84.5 250.5L96.5 250.5" fill-rule="nonzero"/><path stroke="#000000" stroke-width="1.0" stroke-linecap="butt" d="M84.5 187.5L96.5 187.5" fill-rule="nonzero"/><path stroke="#000000" stroke-width="1.0" stroke-linecap="butt" d="M84.5 124.5L96.5 124.5" fill-rule="nonzero"/><path stroke="#000000" stroke-width="1.0" stroke-linecap="butt" d="M84.5 61.5L96.5 61.5" fill-rule="nonzero"/><path stroke="#ff6d01" stroke-width="3.0" stroke-linejoin="round" stroke-linecap="round" d="M247.26562 127.2626L246.1875 127.2626L246.1875 120.04385L244.0 120.84073L244.0 119.85635L247.10938 118.68448L247.26562 118.68448L247.26562 127.2626ZM254.96875 118.73135L254.96875 119.6376L254.76562 119.6376Q253.5 119.66885 252.75 120.40323Q252.0 121.12198 251.875 122.43448Q252.5625 121.66885 253.71875 121.66885Q254.82812 121.66885 255.5 122.4501Q256.17188 123.23135 256.17188 124.48135Q256.17188 125.79385 255.45312 126.59073Q254.73438 127.3876 253.51562 127.3876Q252.29688 127.3876 251.53125 126.4501Q250.78125 125.49698 250.78125 124.0126L250.78125 123.60635Q250.78125 121.24698 251.78125 119.99698Q252.78125 118.74698 254.76562 118.73135L254.96875 118.73135ZM253.54688 122.5751Q252.98438 122.5751 252.51562 122.90323Q252.04688 123.23135 251.85938 123.74698L251.85938 124.1376Q251.85938 125.2001 252.32812 125.84073Q252.8125 126.48135 253.51562 126.48135Q254.25 126.48135 254.67188 125.9501Q255.09375 125.40323 255.09375 124.52823Q255.09375 123.65323 254.67188 123.12198Q254.25 122.5751 253.54688 122.5751ZM261.26562 127.2626L260.1875 127.2626L260.1875 120.04385L258.0 120.84073L258.0 119.85635L261.10938 118.68448L261.26562 118.68448L261.26562 127.2626ZM269.28125 124.40323L270.46875 124.40323L270.46875 125.27823L269.28125 125.27823L269.28125 127.2626L268.20312 127.2626L268.20312 125.27823L264.3125 125.27823L264.3125 124.6376L268.125 118.73135L269.28125 118.73135L269.28125 124.40323ZM265.54688 124.40323L268.20312 124.40323L268.20312 120.21573L268.0625 120.4501L265.54688 124.40323Z" fill-rule="nonzero"/><path fill="#000000" d="M247.26562 127.2626L246.1875 127.2626L246.1875 120.04385L244.0 120.84073L244.0 119.85635L247.10938 118.68448L247.26562 118.68448L247.26562 127.2626ZM254.96875 118.73135L254.96875 119.6376L254.76562 119.6376Q253.5 119.66885 252.75 120.40323Q252.0 121.12198 251.875 122.43448Q252.5625 121.66885 253.71875 121.66885Q254.82812 121.66885 255.5 122.4501Q256.17188 123.23135 256.17188 124.48135Q256.17188 125.79385 255.45312 126.59073Q254.73438 127.3876 253.51562 127.3876Q252.29688 127.3876 251.53125 126.4501Q250.78125 125.49698 250.78125 124.0126L250.78125 123.60635Q250.78125 121.24698 251.78125 119.99698Q252.78125 118.74698 254.76562 118.73135L254.96875 118.73135ZM253.54688 122.5751Q252.98438 122.5751 252.51562 122.90323Q252.04688 123.23135 251.85938 123.74698L251.85938 124.1376Q251.85938 125.2001 252.32812 125.84073Q252.8125 126.48135 253.51562 126.48135Q254.25 126.48135 254.67188 125.9501Q255.09375 125.40323 255.09375 124.52823Q255.09375 123.65323 254.67188 123.12198Q254.25 122.5751 253.54688 122.5751ZM261.26562 127.2626L260.1875 127.2626L260.1875 120.04385L258.0 120.84073L258.0 119.85635L261.10938 118.68448L261.26562 118.68448L261.26562 127.2626ZM269.28125 124.40323L270.46875 124.40323L270.46875 125.27823L269.28125 125.27823L269.28125 127.2626L268.20312 127.2626L268.20312 125.27823L264.3125 125.27823L264.3125 124.6376L268.125 118.73135L269.28125 118.73135L269.28125 124.40323ZM265.54688 124.40323L268.20312 124.40323L268.20312 120.21573L268.0625 120.4501L265.54688 124.40323Z" fill-rule="nonzero"/><path stroke="#ff6d01" stroke-width="3.0" stroke-linejoin="round" stroke-linecap="round" d="M326.26562 114.0571L325.1875 114.0571L325.1875 106.83835L323.0 107.63522L323.0 106.65085L326.10938 105.47897L326.26562 105.47897L326.26562 114.0571ZM335.21875 106.13522L331.6875 114.0571L330.54688 114.0571L334.0625 106.41647L329.45312 106.41647L329.45312 105.52585L335.21875 105.52585L335.21875 106.13522ZM340.26562 114.0571L339.1875 114.0571L339.1875 106.83835L337.0 107.63522L337.0 106.65085L340.10938 105.47897L340.26562 105.47897L340.26562 114.0571ZM347.85938 110.3071Q347.53125 110.71335 347.04688 110.96335Q346.57812 111.19772 346.01562 111.19772Q345.28125 111.19772 344.73438 110.83835Q344.1875 110.47897 343.89062 109.82272Q343.59375 109.15085 343.59375 108.35397Q343.59375 107.51022 343.90625 106.82272Q344.23438 106.13522 344.82812 105.77585Q345.4375 105.40085 346.23438 105.40085Q347.5 105.40085 348.21875 106.35397Q348.95312 107.3071 348.95312 108.9321L348.95312 109.2446Q348.95312 111.7446 347.96875 112.88522Q346.98438 114.02585 345.0 114.0571L344.78125 114.0571L344.78125 113.15085L345.01562 113.15085Q346.35938 113.1196 347.07812 112.44772Q347.79688 111.77585 347.85938 110.3071ZM346.1875 110.3071Q346.73438 110.3071 347.1875 109.97897Q347.65625 109.63522 347.875 109.15085L347.875 108.71335Q347.875 107.65085 347.40625 106.97897Q346.9375 106.3071 346.23438 106.3071Q345.51562 106.3071 345.07812 106.85397Q344.65625 107.40085 344.65625 108.3071Q344.65625 109.1821 345.0625 109.7446Q345.48438 110.3071 346.1875 110.3071Z" fill-rule="nonzero"/><path fill="#000000" d="M326.26562 114.0571L325.1875 114.0571L325.1875 106.83835L323.0 107.63522L323.0 106.65085L326.10938 105.47897L326.26562 105.47897L326.26562 114.0571ZM335.21875 106.13522L331.6875 114.0571L330.54688 114.0571L334.0625 106.41647L329.45312 106.41647L329.45312 105.52585L335.21875 105.52585L335.21875 106.13522ZM340.26562 114.0571L339.1875 114.0571L339.1875 106.83835L337.0 107.63522L337.0 106.65085L340.10938 105.47897L340.26562 105.47897L340.26562 114.0571ZM347.85938 110.3071Q347.53125 110.71335 347.04688 110.96335Q346.57812 111.19772 346.01562 111.19772Q345.28125 111.19772 344.73438 110.83835Q344.1875 110.47897 343.89062 109.82272Q343.59375 109.15085 343.59375 108.35397Q343.59375 107.51022 343.90625 106.82272Q344.23438 106.13522 344.82812 105.77585Q345.4375 105.40085 346.23438 105.40085Q347.5 105.40085 348.21875 106.35397Q348.95312 107.3071 348.95312 108.9321L348.95312 109.2446Q348.95312 111.7446 347.96875 112.88522Q346.98438 114.02585 345.0 114.0571L344.78125 114.0571L344.78125 113.15085L345.01562 113.15085Q346.35938 113.1196 347.07812 112.44772Q347.79688 111.77585 347.85938 110.3071ZM346.1875 110.3071Q346.73438 110.3071 347.1875 109.97897Q347.65625 109.63522 347.875 109.15085L347.875 108.71335Q347.875 107.65085 347.40625 106.97897Q346.9375 106.3071 346.23438 106.3071Q345.51562 106.3071 345.07812 106.85397Q344.65625 107.40085 344.65625 108.3071Q344.65625 109.1821 345.0625 109.7446Q345.48438 110.3071 346.1875 110.3071Z" fill-rule="nonzero"/><path stroke="#ff6d01" stroke-width="3.0" stroke-linejoin="round" stroke-linecap="round" d="M405.26562 135.06013L404.1875 135.06013L404.1875 127.841385L402.0 128.63826L402.0 127.653885L405.10938 126.48201L405.26562 126.48201L405.26562 135.06013ZM409.20312 130.77888L409.64062 126.528885L414.01562 126.528885L414.01562 127.528885L410.5625 127.528885L410.29688 129.85701Q410.9375 129.48201 411.73438 129.48201Q412.89062 129.48201 413.57812 130.26326Q414.26562 131.02888 414.26562 132.34138Q414.26562 133.65388 413.54688 134.41951Q412.84375 135.18513 411.5625 135.18513Q410.4375 135.18513 409.71875 134.56013Q409.0 133.91951 408.90625 132.81013L409.92188 132.81013Q410.03125 133.54451 410.45312 133.91951Q410.875 134.29451 411.5625 134.29451Q412.3125 134.29451 412.75 133.77888Q413.1875 133.26326 413.1875 132.35701Q413.1875 131.49763 412.71875 130.98201Q412.25 130.46638 411.46875 130.46638Q410.76562 130.46638 410.35938 130.76326L410.07812 130.99763L409.20312 130.77888ZM416.20312 130.77888L416.64062 126.528885L421.01562 126.528885L421.01562 127.528885L417.5625 127.528885L417.29688 129.85701Q417.9375 129.48201 418.73438 129.48201Q419.89062 129.48201 420.57812 130.26326Q421.26562 131.02888 421.26562 132.34138Q421.26562 133.65388 420.54688 134.41951Q419.84375 135.18513 418.5625 135.18513Q417.4375 135.18513 416.71875 134.56013Q416.0 133.91951 415.90625 132.81013L416.92188 132.81013Q417.03125 133.54451 417.45312 133.91951Q417.875 134.29451 418.5625 134.29451Q419.3125 134.29451 419.75 133.77888Q420.1875 133.26326 420.1875 132.35701Q420.1875 131.49763 419.71875 130.98201Q419.25 130.46638 418.46875 130.46638Q417.76562 130.46638 417.35938 130.76326L417.07812 130.99763L416.20312 130.77888ZM428.29688 135.06013L422.70312 135.06013L422.70312 134.27888L425.65625 130.99763Q426.3125 130.24763 426.5625 129.79451Q426.8125 129.32576 426.8125 128.82576Q426.8125 128.15388 426.40625 127.73201Q426.01562 127.29451 425.32812 127.29451Q424.53125 127.29451 424.07812 127.76326Q423.625 128.21638 423.625 129.04451L422.54688 129.04451Q422.54688 127.85701 423.29688 127.13826Q424.0625 126.403885 425.32812 126.403885Q426.53125 126.403885 427.21875 127.028885Q427.90625 127.653885 427.90625 128.70076Q427.90625 129.95076 426.29688 131.70076L424.01562 134.16951L428.29688 134.16951L428.29688 135.06013Z" fill-rule="nonzero"/><path fill="#000000" d="M405.26562 135.06013L404.1875 135.06013L404.1875 127.841385L402.0 128.63826L402.0 127.653885L405.10938 126.48201L405.26562 126.48201L405.26562 135.06013ZM409.20312 130.77888L409.64062 126.528885L414.01562 126.528885L414.01562 127.528885L410.5625 127.528885L410.29688 129.85701Q410.9375 129.48201 411.73438 129.48201Q412.89062 129.48201 413.57812 130.26326Q414.26562 131.02888 414.26562 132.34138Q414.26562 133.65388 413.54688 134.41951Q412.84375 135.18513 411.5625 135.18513Q410.4375 135.18513 409.71875 134.56013Q409.0 133.91951 408.90625 132.81013L409.92188 132.81013Q410.03125 133.54451 410.45312 133.91951Q410.875 134.29451 411.5625 134.29451Q412.3125 134.29451 412.75 133.77888Q413.1875 133.26326 413.1875 132.35701Q413.1875 131.49763 412.71875 130.98201Q412.25 130.46638 411.46875 130.46638Q410.76562 130.46638 410.35938 130.76326L410.07812 130.99763L409.20312 130.77888ZM416.20312 130.77888L416.64062 126.528885L421.01562 126.528885L421.01562 127.528885L417.5625 127.528885L417.29688 129.85701Q417.9375 129.48201 418.73438 129.48201Q419.89062 129.48201 420.57812 130.26326Q421.26562 131.02888 421.26562 132.34138Q421.26562 133.65388 420.54688 134.41951Q419.84375 135.18513 418.5625 135.18513Q417.4375 135.18513 416.71875 134.56013Q416.0 133.91951 415.90625 132.81013L416.92188 132.81013Q417.03125 133.54451 417.45312 133.91951Q417.875 134.29451 418.5625 134.29451Q419.3125 134.29451 419.75 133.77888Q420.1875 133.26326 420.1875 132.35701Q420.1875 131.49763 419.71875 130.98201Q419.25 130.46638 418.46875 130.46638Q417.76562 130.46638 417.35938 130.76326L417.07812 130.99763L416.20312 130.77888ZM428.29688 135.06013L422.70312 135.06013L422.70312 134.27888L425.65625 130.99763Q426.3125 130.24763 426.5625 129.79451Q426.8125 129.32576 426.8125 128.82576Q426.8125 128.15388 426.40625 127.73201Q426.01562 127.29451 425.32812 127.29451Q424.53125 127.29451 424.07812 127.76326Q423.625 128.21638 423.625 129.04451L422.54688 129.04451Q422.54688 127.85701 423.29688 127.13826Q424.0625 126.403885 425.32812 126.403885Q426.53125 126.403885 427.21875 127.028885Q427.90625 127.653885 427.90625 128.70076Q427.90625 129.95076 426.29688 131.70076L424.01562 134.16951L428.29688 134.16951L428.29688 135.06013Z" fill-rule="nonzero"/><path fill="#000000" d="M313.92188 349.45L313.92188 340.85626L317.17188 340.85626Q318.01562 340.85626 318.46875 340.9344Q319.10938 341.04376 319.53125 341.34064Q319.96875 341.6375 320.21875 342.16876Q320.48438 342.7 320.48438 343.34064Q320.48438 344.4344 319.78125 345.2Q319.09375 345.95 317.26562 345.95L315.0625 345.95L315.0625 349.45L313.92188 349.45ZM315.0625 344.95L317.28125 344.95Q318.39062 344.95 318.84375 344.54376Q319.3125 344.1219 319.3125 343.3719Q319.3125 342.84064 319.03125 342.46564Q318.76562 342.075 318.32812 341.95Q318.03125 341.8719 317.26562 341.8719L315.0625 341.8719L315.0625 344.95ZM321.78125 349.45L321.78125 343.23126L322.73438 343.23126L322.73438 344.16876Q323.09375 343.5125 323.39062 343.3094Q323.70312 343.09064 324.07812 343.09064Q324.60938 343.09064 325.15625 343.41876L324.79688 344.40314Q324.40625 344.16876 324.03125 344.16876Q323.67188 344.16876 323.39062 344.3875Q323.125 344.59064 323.01562 344.96564Q322.82812 345.52814 322.82812 346.1844L322.82812 349.45L321.78125 349.45ZM325.40625 346.34064Q325.40625 344.60626 326.35938 343.77814Q327.15625 343.09064 328.3125 343.09064Q329.59375 343.09064 330.40625 343.9344Q331.23438 344.7625 331.23438 346.2469Q331.23438 347.45 330.875 348.1375Q330.51562 348.825 329.8125 349.21564Q329.125 349.59064 328.3125 349.59064Q327.01562 349.59064 326.20312 348.7625Q325.40625 347.91876 325.40625 346.34064ZM326.48438 346.34064Q326.48438 347.52814 327.0 348.1219Q327.53125 348.71564 328.3125 348.71564Q329.10938 348.71564 329.625 348.1219Q330.14062 347.52814 330.14062 346.3094Q330.14062 345.15314 329.60938 344.5594Q329.09375 343.96564 328.3125 343.96564Q327.53125 343.96564 327.0 344.5594Q326.48438 345.1375 326.48438 346.34064ZM336.85938 347.16876L337.89062 347.3094Q337.71875 348.3719 337.01562 348.98126Q336.3125 349.59064 335.29688 349.59064Q334.01562 349.59064 333.23438 348.7625Q332.46875 347.91876 332.46875 346.35626Q332.46875 345.35626 332.79688 344.60626Q333.14062 343.84064 333.8125 343.46564Q334.5 343.09064 335.3125 343.09064Q336.3125 343.09064 336.95312 343.60626Q337.60938 344.10626 337.79688 345.0594L336.76562 345.21564Q336.625 344.59064 336.25 344.27814Q335.875 343.95 335.34375 343.95Q334.54688 343.95 334.04688 344.52814Q333.54688 345.09064 333.54688 346.325Q333.54688 347.59064 334.03125 348.15314Q334.51562 348.71564 335.28125 348.71564Q335.90625 348.71564 336.3125 348.34064Q336.73438 347.96564 336.85938 347.16876ZM343.04688 347.45L344.14062 347.575Q343.89062 348.52814 343.1875 349.0594Q342.48438 349.59064 341.40625 349.59064Q340.04688 349.59064 339.23438 348.7469Q338.4375 347.90314 338.4375 346.3875Q338.4375 344.825 339.25 343.96564Q340.0625 343.09064 341.34375 343.09064Q342.59375 343.09064 343.375 343.9344Q344.17188 344.77814 344.17188 346.325Q344.17188 346.41876 344.17188 346.60626L339.53125 346.60626Q339.59375 347.6375 340.10938 348.1844Q340.625 348.71564 341.40625 348.71564Q341.98438 348.71564 342.39062 348.41876Q342.8125 348.10626 343.04688 347.45ZM339.59375 345.7469L343.0625 345.7469Q343.0 344.95 342.67188 344.5594Q342.15625 343.95 341.35938 343.95Q340.625 343.95 340.125 344.4344Q339.64062 344.91876 339.59375 345.7469ZM345.375 347.59064L346.40625 347.4344Q346.5 348.0594 346.89062 348.3875Q347.29688 348.71564 348.03125 348.71564Q348.75 348.71564 349.09375 348.4344Q349.45312 348.1375 349.45312 347.73126Q349.45312 347.3719 349.14062 347.16876Q348.92188 347.02814 348.0625 346.8094Q346.90625 346.5125 346.45312 346.3094Q346.01562 346.09064 345.78125 345.71564Q345.54688 345.34064 345.54688 344.8719Q345.54688 344.46564 345.73438 344.10626Q345.92188 343.7469 346.25 343.5125Q346.5 343.34064 346.92188 343.21564Q347.34375 343.09064 347.84375 343.09064Q348.5625 343.09064 349.10938 343.3094Q349.67188 343.5125 349.9375 343.8719Q350.20312 344.23126 350.29688 344.825L349.26562 344.96564Q349.20312 344.4969 348.85938 344.23126Q348.53125 343.95 347.90625 343.95Q347.1875 343.95 346.875 344.2Q346.5625 344.4344 346.5625 344.7625Q346.5625 344.96564 346.6875 345.1219Q346.82812 345.29376 347.09375 345.40314Q347.25 345.46564 348.03125 345.66876Q349.15625 345.98126 349.59375 346.16876Q350.03125 346.35626 350.28125 346.71564Q350.53125 347.075 350.53125 347.6219Q350.53125 348.15314 350.21875 348.6219Q349.92188 349.075 349.34375 349.34064Q348.76562 349.59064 348.03125 349.59064Q346.8125 349.59064 346.17188 349.09064Q345.54688 348.575 345.375 347.59064ZM352.40625 346.34064Q352.40625 344.60626 353.35938 343.77814Q354.15625 343.09064 355.3125 343.09064Q356.59375 343.09064 357.40625 343.9344Q358.23438 344.7625 358.23438 346.2469Q358.23438 347.45 357.875 348.1375Q357.51562 348.825 356.8125 349.21564Q356.125 349.59064 355.3125 349.59064Q354.01562 349.59064 353.20312 348.7625Q352.40625 347.91876 352.40625 346.34064ZM353.48438 346.34064Q353.48438 347.52814 354.0 348.1219Q354.53125 348.71564 355.3125 348.71564Q356.10938 348.71564 356.625 348.1219Q357.14062 347.52814 357.14062 346.3094Q357.14062 345.15314 356.60938 344.5594Q356.09375 343.96564 355.3125 343.96564Q354.53125 343.96564 354.0 344.5594Q353.48438 345.1375 353.48438 346.34064Z" fill-rule="nonzero"/><path fill="#000000" d="M29.550013 199.07396L21.971888 199.07396L21.971888 201.90208L20.956263 201.90208L20.956263 195.08958L21.971888 195.08958L21.971888 197.93333L29.550013 197.93333L29.550013 199.07396ZM22.175013 194.38646L20.956263 194.38646L20.956263 193.32396L22.175013 193.32396L22.175013 194.38646ZM29.550013 194.38646L23.331263 194.38646L23.331263 193.32396L29.550013 193.32396L29.550013 194.38646ZM27.268763 187.32396L27.409388 186.29271Q28.471888 186.46458 29.081263 187.16771Q29.690638 187.87083 29.690638 188.88646Q29.690638 190.16771 28.862513 190.94896Q28.018763 191.71458 26.456263 191.71458Q25.456263 191.71458 24.706263 191.38646Q23.940638 191.04271 23.565638 190.37083Q23.190638 189.68333 23.190638 188.87083Q23.190638 187.87083 23.706263 187.23021Q24.206263 186.57396 25.159388 186.38646L25.315638 187.41771Q24.690638 187.55833 24.378138 187.93333Q24.050013 188.30833 24.050013 188.83958Q24.050013 189.63646 24.628138 190.13646Q25.190638 190.63646 26.425013 190.63646Q27.690638 190.63646 28.253138 190.15208Q28.815638 189.66771 28.815638 188.90208Q28.815638 188.27708 28.440638 187.87083Q28.065638 187.44896 27.268763 187.32396ZM29.550013 185.38646L20.956263 185.38646L20.956263 184.32396L25.862513 184.32396L23.331263 181.83958L23.331263 180.46458L25.628138 182.85521L29.550013 180.23021L29.550013 181.52708L26.362513 183.58958L27.081263 184.32396L29.550013 184.32396L29.550013 185.38646ZM27.690638 179.80833L27.534388 178.77708Q28.159388 178.68333 28.487513 178.29271Q28.815638 177.88646 28.815638 177.15208Q28.815638 176.43333 28.534388 176.08958Q28.237513 175.73021 27.831263 175.73021Q27.471888 175.73021 27.268763 176.04271Q27.128138 176.26146 26.909388 177.12083Q26.612513 178.27708 26.409388 178.73021Q26.190638 179.16771 25.815638 179.40208Q25.440638 179.63646 24.971888 179.63646Q24.565638 179.63646 24.206263 179.44896Q23.846888 179.26146 23.612513 178.93333Q23.440638 178.68333 23.315638 178.26146Q23.190638 177.83958 23.190638 177.33958Q23.190638 176.62083 23.409388 176.07396Q23.612513 175.51146 23.971888 175.24583Q24.331263 174.98021 24.925013 174.88646L25.065638 175.91771Q24.596888 175.98021 24.331263 176.32396Q24.050013 176.65208 24.050013 177.27708Q24.050013 177.99583 24.300013 178.30833Q24.534388 178.62083 24.862513 178.62083Q25.065638 178.62083 25.221888 178.49583Q25.393763 178.35521 25.503138 178.08958Q25.565638 177.93333 25.768763 177.15208Q26.081263 176.02708 26.268763 175.58958Q26.456263 175.15208 26.815638 174.90208Q27.175013 174.65208 27.721888 174.65208Q28.253138 174.65208 28.721888 174.96458Q29.175013 175.26146 29.440638 175.83958Q29.690638 176.41771 29.690638 177.15208Q29.690638 178.37083 29.190638 179.01146Q28.675013 179.63646 27.690638 179.80833Z" fill-rule="nonzero"/><path fill="#000000" d="M72.05 313.21564Q72.05 311.6844 72.3625 310.7625Q72.675 309.825 73.28438 309.325Q73.90938 308.825 74.84688 308.825Q75.53438 308.825 76.05 309.10626Q76.58125 309.3875 76.925 309.91876Q77.26875 310.4344 77.45625 311.1844Q77.64375 311.9344 77.64375 313.21564Q77.64375 314.73126 77.33125 315.65314Q77.03438 316.575 76.40938 317.09064Q75.8 317.59064 74.84688 317.59064Q73.6125 317.59064 72.89375 316.7Q72.05 315.6375 72.05 313.21564ZM73.12813 313.21564Q73.12813 315.325 73.62813 316.02814Q74.12813 316.73126 74.84688 316.73126Q75.58125 316.73126 76.06563 316.02814Q76.56563 315.325 76.56563 313.21564Q76.56563 311.09064 76.06563 310.40314Q75.58125 309.7 74.83125 309.7Q74.1125 309.7 73.675 310.3094Q73.12813 311.09064 73.12813 313.21564Z" fill-rule="nonzero"/><path fill="#000000" d="M58.05 252.31667L59.159374 252.22292Q59.284374 253.03542 59.721874 253.44167Q60.175 253.84792 60.815624 253.84792Q61.565624 253.84792 62.096874 253.26979Q62.628124 252.69167 62.628124 251.75417Q62.628124 250.84792 62.1125 250.33229Q61.6125 249.80104 60.784374 249.80104Q60.284374 249.80104 59.8625 250.03542Q59.45625 250.26979 59.221874 250.62917L58.2375 250.50417L59.065624 246.09792L63.346874 246.09792L63.346874 247.09792L59.909374 247.09792L59.45625 249.41042Q60.221874 248.86354 61.065624 248.86354Q62.190624 248.86354 62.95625 249.64479Q63.7375 250.42604 63.7375 251.66042Q63.7375 252.81667 63.065624 253.67604Q62.2375 254.70729 60.815624 254.70729Q59.64375 254.70729 58.89375 254.05104Q58.159374 253.39479 58.05 252.31667ZM65.05 250.33229Q65.05 248.80104 65.3625 247.87917Q65.675 246.94167 66.28438 246.44167Q66.90938 245.94167 67.84688 245.94167Q68.53438 245.94167 69.05 246.22292Q69.58125 246.50417 69.925 247.03542Q70.26875 247.55104 70.45625 248.30104Q70.64375 249.05104 70.64375 250.33229Q70.64375 251.84792 70.33125 252.76979Q70.03438 253.69167 69.40938 254.20729Q68.8 254.70729 67.84688 254.70729Q66.6125 254.70729 65.89375 253.81667Q65.05 252.75417 65.05 250.33229ZM66.12813 250.33229Q66.12813 252.44167 66.62813 253.14479Q67.12813 253.84792 67.84688 253.84792Q68.58125 253.84792 69.06563 253.14479Q69.56563 252.44167 69.56563 250.33229Q69.56563 248.20729 69.06563 247.51979Q68.58125 246.81667 67.83125 246.81667Q67.1125 246.81667 66.675 247.42604Q66.12813 248.20729 66.12813 250.33229ZM72.05 250.33229Q72.05 248.80104 72.3625 247.87917Q72.675 246.94167 73.28438 246.44167Q73.90938 245.94167 74.84688 245.94167Q75.53438 245.94167 76.05 246.22292Q76.58125 246.50417 76.925 247.03542Q77.26875 247.55104 77.45625 248.30104Q77.64375 249.05104 77.64375 250.33229Q77.64375 251.84792 77.33125 252.76979Q77.03438 253.69167 76.40938 254.20729Q75.8 254.70729 74.84688 254.70729Q73.6125 254.70729 72.89375 253.81667Q72.05 252.75417 72.05 250.33229ZM73.12813 250.33229Q73.12813 252.44167 73.62813 253.14479Q74.12813 253.84792 74.84688 253.84792Q75.58125 253.84792 76.06563 253.14479Q76.56563 252.44167 76.56563 250.33229Q76.56563 248.20729 76.06563 247.51979Q75.58125 246.81667 74.83125 246.81667Q74.1125 246.81667 73.675 247.42604Q73.12813 248.20729 73.12813 250.33229Z" fill-rule="nonzero"/><path fill="#000000" d="M55.01875 191.68333L53.971874 191.68333L53.971874 184.96458Q53.58125 185.32396 52.95625 185.69896Q52.346874 186.05833 51.8625 186.23021L51.8625 185.21458Q52.7375 184.79271 53.39375 184.21458Q54.065624 183.62083 54.346874 183.05833L55.01875 183.05833L55.01875 191.68333ZM58.05 187.44896Q58.05 185.91771 58.3625 184.99583Q58.675 184.05833 59.284374 183.55833Q59.909374 183.05833 60.846874 183.05833Q61.534374 183.05833 62.05 183.33958Q62.58125 183.62083 62.925 184.15208Q63.26875 184.66771 63.45625 185.41771Q63.64375 186.16771 63.64375 187.44896Q63.64375 188.96458 63.33125 189.88646Q63.034374 190.80833 62.409374 191.32396Q61.8 191.82396 60.846874 191.82396Q59.6125 191.82396 58.89375 190.93333Q58.05 189.87083 58.05 187.44896ZM59.128124 187.44896Q59.128124 189.55833 59.628124 190.26146Q60.128124 190.96458 60.846874 190.96458Q61.58125 190.96458 62.065624 190.26146Q62.565624 189.55833 62.565624 187.44896Q62.565624 185.32396 62.065624 184.63646Q61.58125 183.93333 60.83125 183.93333Q60.1125 183.93333 59.675 184.54271Q59.128124 185.32396 59.128124 187.44896ZM65.05 187.44896Q65.05 185.91771 65.3625 184.99583Q65.675 184.05833 66.28438 183.55833Q66.90938 183.05833 67.84688 183.05833Q68.53438 183.05833 69.05 183.33958Q69.58125 183.62083 69.925 184.15208Q70.26875 184.66771 70.45625 185.41771Q70.64375 186.16771 70.64375 187.44896Q70.64375 188.96458 70.33125 189.88646Q70.03438 190.80833 69.40938 191.32396Q68.8 191.82396 67.84688 191.82396Q66.6125 191.82396 65.89375 190.93333Q65.05 189.87083 65.05 187.44896ZM66.12813 187.44896Q66.12813 189.55833 66.62813 190.26146Q67.12813 190.96458 67.84688 190.96458Q68.58125 190.96458 69.06563 190.26146Q69.56563 189.55833 69.56563 187.44896Q69.56563 185.32396 69.06563 184.63646Q68.58125 183.93333 67.83125 183.93333Q67.1125 183.93333 66.675 184.54271Q66.12813 185.32396 66.12813 187.44896ZM72.05 187.44896Q72.05 185.91771 72.3625 184.99583Q72.675 184.05833 73.28438 183.55833Q73.90938 183.05833 74.84688 183.05833Q75.53438 183.05833 76.05 183.33958Q76.58125 183.62083 76.925 184.15208Q77.26875 184.66771 77.45625 185.41771Q77.64375 186.16771 77.64375 187.44896Q77.64375 188.96458 77.33125 189.88646Q77.03438 190.80833 76.40938 191.32396Q75.8 191.82396 74.84688 191.82396Q73.6125 191.82396 72.89375 190.93333Q72.05 189.87083 72.05 187.44896ZM73.12813 187.44896Q73.12813 189.55833 73.62813 190.26146Q74.12813 190.96458 74.84688 190.96458Q75.58125 190.96458 76.06563 190.26146Q76.56563 189.55833 76.56563 187.44896Q76.56563 185.32396 76.06563 184.63646Q75.58125 183.93333 74.83125 183.93333Q74.1125 183.93333 73.675 184.54271Q73.12813 185.32396 73.12813 187.44896Z" fill-rule="nonzero"/><path fill="#000000" d="M55.01875 128.8L53.971874 128.8L53.971874 122.08125Q53.58125 122.44063 52.95625 122.81563Q52.346874 123.175 51.8625 123.34688L51.8625 122.33125Q52.7375 121.90938 53.39375 121.33125Q54.065624 120.7375 54.346874 120.175L55.01875 120.175L55.01875 128.8ZM58.05 126.55L59.159374 126.45625Q59.284374 127.26875 59.721874 127.675Q60.175 128.08125 60.815624 128.08125Q61.565624 128.08125 62.096874 127.50313Q62.628124 126.925 62.628124 125.9875Q62.628124 125.08125 62.1125 124.56563Q61.6125 124.03438 60.784374 124.03438Q60.284374 124.03438 59.8625 124.26875Q59.45625 124.50313 59.221874 124.8625L58.2375 124.7375L59.065624 120.33125L63.346874 120.33125L63.346874 121.33125L59.909374 121.33125L59.45625 123.64375Q60.221874 123.09688 61.065624 123.09688Q62.190624 123.09688 62.95625 123.87813Q63.7375 124.65938 63.7375 125.89375Q63.7375 127.05 63.065624 127.90938Q62.2375 128.94063 60.815624 128.94063Q59.64375 128.94063 58.89375 128.28438Q58.159374 127.62813 58.05 126.55ZM65.05 124.56563Q65.05 123.03438 65.3625 122.1125Q65.675 121.175 66.28438 120.675Q66.90938 120.175 67.84688 120.175Q68.53438 120.175 69.05 120.45625Q69.58125 120.7375 69.925 121.26875Q70.26875 121.78438 70.45625 122.53438Q70.64375 123.28438 70.64375 124.56563Q70.64375 126.08125 70.33125 127.00313Q70.03438 127.925 69.40938 128.44063Q68.8 128.94063 67.84688 128.94063Q66.6125 128.94063 65.89375 128.05Q65.05 126.9875 65.05 124.56563ZM66.12813 124.56563Q66.12813 126.675 66.62813 127.37813Q67.12813 128.08125 67.84688 128.08125Q68.58125 128.08125 69.06563 127.37813Q69.56563 126.675 69.56563 124.56563Q69.56563 122.44063 69.06563 121.75313Q68.58125 121.05 67.83125 121.05Q67.1125 121.05 66.675 121.65938Q66.12813 122.44063 66.12813 124.56563ZM72.05 124.56563Q72.05 123.03438 72.3625 122.1125Q72.675 121.175 73.28438 120.675Q73.90938 120.175 74.84688 120.175Q75.53438 120.175 76.05 120.45625Q76.58125 120.7375 76.925 121.26875Q77.26875 121.78438 77.45625 122.53438Q77.64375 123.28438 77.64375 124.56563Q77.64375 126.08125 77.33125 127.00313Q77.03438 127.925 76.40938 128.44063Q75.8 128.94063 74.84688 128.94063Q73.6125 128.94063 72.89375 128.05Q72.05 126.9875 72.05 124.56563ZM73.12813 124.56563Q73.12813 126.675 73.62813 127.37813Q74.12813 128.08125 74.84688 128.08125Q75.58125 128.08125 76.06563 127.37813Q76.56563 126.675 76.56563 124.56563Q76.56563 122.44063 76.06563 121.75313Q75.58125 121.05 74.83125 121.05Q74.1125 121.05 73.675 121.65938Q73.12813 122.44063 73.12813 124.56563Z" fill-rule="nonzero"/><path fill="#000000" d="M56.596874 64.90104L56.596874 65.916664L50.909374 65.916664Q50.909374 65.541664 51.034374 65.18229Q51.253124 64.604164 51.721874 64.041664Q52.20625 63.479164 53.1125 62.74479Q54.51875 61.58854 55.003124 60.916664Q55.503124 60.24479 55.503124 59.65104Q55.503124 59.02604 55.05 58.604164Q54.596874 58.166664 53.878124 58.166664Q53.1125 58.166664 52.659374 58.61979Q52.20625 59.072914 52.190624 59.885414L51.1125 59.77604Q51.221874 58.55729 51.940624 57.93229Q52.675 57.291664 53.909374 57.291664Q55.14375 57.291664 55.8625 57.979164Q56.58125 58.666664 56.58125 59.68229Q56.58125 60.197914 56.3625 60.697914Q56.159374 61.18229 55.659374 61.74479Q55.175 62.291664 54.05 63.24479Q53.096874 64.041664 52.815624 64.33854Q52.55 64.61979 52.378124 64.90104L56.596874 64.90104ZM58.05 61.68229Q58.05 60.15104 58.3625 59.229164Q58.675 58.291664 59.284374 57.791664Q59.909374 57.291664 60.846874 57.291664Q61.534374 57.291664 62.05 57.572914Q62.58125 57.854164 62.925 58.385414Q63.26875 58.90104 63.45625 59.65104Q63.64375 60.40104 63.64375 61.68229Q63.64375 63.197914 63.33125 64.11979Q63.034374 65.041664 62.409374 65.55729Q61.8 66.05729 60.846874 66.05729Q59.6125 66.05729 58.89375 65.166664Q58.05 64.104164 58.05 61.68229ZM59.128124 61.68229Q59.128124 63.791664 59.628124 64.49479Q60.128124 65.197914 60.846874 65.197914Q61.58125 65.197914 62.065624 64.49479Q62.565624 63.791664 62.565624 61.68229Q62.565624 59.55729 62.065624 58.86979Q61.58125 58.166664 60.83125 58.166664Q60.1125 58.166664 59.675 58.77604Q59.128124 59.55729 59.128124 61.68229ZM65.05 61.68229Q65.05 60.15104 65.3625 59.229164Q65.675 58.291664 66.28438 57.791664Q66.90938 57.291664 67.84688 57.291664Q68.53438 57.291664 69.05 57.572914Q69.58125 57.854164 69.925 58.385414Q70.26875 58.90104 70.45625 59.65104Q70.64375 60.40104 70.64375 61.68229Q70.64375 63.197914 70.33125 64.11979Q70.03438 65.041664 69.40938 65.55729Q68.8 66.05729 67.84688 66.05729Q66.6125 66.05729 65.89375 65.166664Q65.05 64.104164 65.05 61.68229ZM66.12813 61.68229Q66.12813 63.791664 66.62813 64.49479Q67.12813 65.197914 67.84688 65.197914Q68.58125 65.197914 69.06563 64.49479Q69.56563 63.791664 69.56563 61.68229Q69.56563 59.55729 69.06563 58.86979Q68.58125 58.166664 67.83125 58.166664Q67.1125 58.166664 66.675 58.77604Q66.12813 59.55729 66.12813 61.68229ZM72.05 61.68229Q72.05 60.15104 72.3625 59.229164Q72.675 58.291664 73.28438 57.791664Q73.90938 57.291664 74.84688 57.291664Q75.53438 57.291664 76.05 57.572914Q76.58125 57.854164 76.925 58.385414Q77.26875 58.90104 77.45625 59.65104Q77.64375 60.40104 77.64375 61.68229Q77.64375 63.197914 77.33125 64.11979Q77.03438 65.041664 76.40938 65.55729Q75.8 66.05729 74.84688 66.05729Q73.6125 66.05729 72.89375 65.166664Q72.05 64.104164 72.05 61.68229ZM73.12813 61.68229Q73.12813 63.791664 73.62813 64.49479Q74.12813 65.197914 74.84688 65.197914Q75.58125 65.197914 76.06563 64.49479Q76.56563 63.791664 76.56563 61.68229Q76.56563 59.55729 76.06563 58.86979Q75.58125 58.166664 74.83125 58.166664Q74.1125 58.166664 73.675 58.77604Q73.12813 59.55729 73.12813 61.68229Z" fill-rule="nonzero"/><path fill="#757575" d="M23.7375 37.55L23.7375 24.925L19.01875 24.925L19.01875 23.2375L30.3625 23.2375L30.3625 24.925L25.628124 24.925L25.628124 37.55L23.7375 37.55ZM31.878124 25.253124L31.878124 23.2375L33.64375 23.2375L33.64375 25.253124L31.878124 25.253124ZM31.878124 37.55L31.878124 27.175L33.64375 27.175L33.64375 37.55L31.878124 37.55ZM42.64375 33.753124L44.3625 33.971874Q44.08125 35.76875 42.909374 36.784374Q41.753124 37.784374 40.05 37.784374Q37.925 37.784374 36.628124 36.39375Q35.33125 35.003124 35.33125 32.409374Q35.33125 30.721874 35.878124 29.471874Q36.440624 28.20625 37.58125 27.58125Q38.721874 26.940624 40.065624 26.940624Q41.753124 26.940624 42.815624 27.8Q43.89375 28.659374 44.20625 30.221874L42.4875 30.4875Q42.253124 29.440624 41.628124 28.925Q41.003124 28.39375 40.128124 28.39375Q38.8 28.39375 37.971874 29.346874Q37.14375 30.3 37.14375 32.346874Q37.14375 34.440624 37.940624 35.39375Q38.7375 36.33125 40.034374 36.33125Q41.065624 36.33125 41.753124 35.70625Q42.45625 35.065624 42.64375 33.753124ZM45.878124 37.55L45.878124 23.2375L47.64375 23.2375L47.64375 31.39375L51.8 27.175L54.065624 27.175L50.1125 31.01875L54.471874 37.55L52.3 37.55L48.878124 32.253124L47.64375 33.440624L47.64375 37.55L45.878124 37.55ZM55.159374 34.45625L56.909374 34.175Q57.05 35.221874 57.721874 35.784374Q58.39375 36.33125 59.596874 36.33125Q60.8 36.33125 61.378124 35.846874Q61.971874 35.346874 61.971874 34.690624Q61.971874 34.096874 61.45625 33.753124Q61.096874 33.51875 59.659374 33.159374Q57.721874 32.659374 56.971874 32.315624Q56.2375 31.95625 55.846874 31.33125Q55.45625 30.690624 55.45625 29.925Q55.45625 29.2375 55.76875 28.64375Q56.096874 28.05 56.64375 27.659374Q57.05 27.3625 57.753124 27.159374Q58.471874 26.940624 59.284374 26.940624Q60.503124 26.940624 61.425 27.3Q62.346874 27.64375 62.784374 28.253124Q63.221874 28.846874 63.39375 29.846874L61.675 30.08125Q61.55 29.284374 60.9875 28.846874Q60.425 28.39375 59.409374 28.39375Q58.190624 28.39375 57.675 28.8Q57.159374 29.190624 57.159374 29.721874Q57.159374 30.065624 57.378124 30.346874Q57.58125 30.628124 58.05 30.815624Q58.315624 30.909374 59.596874 31.253124Q61.471874 31.753124 62.20625 32.08125Q62.940624 32.39375 63.3625 33.003124Q63.784374 33.596874 63.784374 34.503124Q63.784374 35.378124 63.26875 36.159374Q62.753124 36.940624 61.784374 37.3625Q60.815624 37.784374 59.596874 37.784374Q57.58125 37.784374 56.51875 36.940624Q55.45625 36.096874 55.159374 34.45625ZM78.64375 33.753124L80.3625 33.971874Q80.08125 35.76875 78.90938 36.784374Q77.75313 37.784374 76.05 37.784374Q73.925 37.784374 72.62813 36.39375Q71.33125 35.003124 71.33125 32.409374Q71.33125 30.721874 71.87813 29.471874Q72.44063 28.20625 73.58125 27.58125Q74.72188 26.940624 76.06563 26.940624Q77.75313 26.940624 78.81563 27.8Q79.89375 28.659374 80.20625 30.221874L78.4875 30.4875Q78.25313 29.440624 77.62813 28.925Q77.00313 28.39375 76.12813 28.39375Q74.8 28.39375 73.97188 29.346874Q73.14375 30.3 73.14375 32.346874Q73.14375 34.440624 73.94063 35.39375Q74.7375 36.33125 76.03438 36.33125Q77.06563 36.33125 77.75313 35.70625Q78.45625 35.065624 78.64375 33.753124ZM81.22188 32.3625Q81.22188 29.4875 82.81563 28.096874Q84.15938 26.940624 86.08125 26.940624Q88.22188 26.940624 89.56563 28.346874Q90.925 29.753124 90.925 32.221874Q90.925 34.221874 90.33125 35.378124Q89.7375 36.51875 88.58125 37.159374Q87.44063 37.784374 86.08125 37.784374Q83.89375 37.784374 82.55 36.39375Q81.22188 34.9875 81.22188 32.3625ZM83.01875 32.3625Q83.01875 34.3625 83.87813 35.346874Q84.75313 36.33125 86.08125 36.33125Q87.39375 36.33125 88.25313 35.346874Q89.12813 34.346874 89.12813 32.3Q89.12813 30.378124 88.25313 29.39375Q87.37813 28.39375 86.08125 28.39375Q84.75313 28.39375 83.87813 29.39375Q83.01875 30.378124 83.01875 32.3625ZM92.8625 37.55L92.8625 27.175L94.45625 27.175L94.45625 28.659374Q95.59688 26.940624 97.75313 26.940624Q98.69063 26.940624 99.47188 27.284374Q100.26875 27.6125 100.65938 28.159374Q101.05 28.70625 101.20625 29.45625Q101.3 29.95625 101.3 31.175L101.3 37.55L99.53438 37.55L99.53438 31.2375Q99.53438 30.159374 99.33125 29.628124Q99.12813 29.096874 98.59688 28.784374Q98.08125 28.471874 97.37813 28.471874Q96.25313 28.471874 95.44063 29.190624Q94.62813 29.89375 94.62813 31.878124L94.62813 37.55L92.8625 37.55ZM102.15938 34.45625L103.90938 34.175Q104.05 35.221874 104.72188 35.784374Q105.39375 36.33125 106.59688 36.33125Q107.8 36.33125 108.37813 35.846874Q108.97188 35.346874 108.97188 34.690624Q108.97188 34.096874 108.45625 33.753124Q108.09688 33.51875 106.65938 33.159374Q104.72188 32.659374 103.97188 32.315624Q103.2375 31.95625 102.84688 31.33125Q102.45625 30.690624 102.45625 29.925Q102.45625 29.2375 102.76875 28.64375Q103.09688 28.05 103.64375 27.659374Q104.05 27.3625 104.75313 27.159374Q105.47188 26.940624 106.28438 26.940624Q107.50313 26.940624 108.425 27.3Q109.34688 27.64375 109.78438 28.253124Q110.22188 28.846874 110.39375 29.846874L108.675 30.08125Q108.55 29.284374 107.9875 28.846874Q107.425 28.39375 106.40938 28.39375Q105.19063 28.39375 104.675 28.8Q104.15938 29.190624 104.15938 29.721874Q104.15938 30.065624 104.37813 30.346874Q104.58125 30.628124 105.05 30.815624Q105.31563 30.909374 106.59688 31.253124Q108.47188 31.753124 109.20625 32.08125Q109.94063 32.39375 110.3625 33.003124Q110.78438 33.596874 110.78438 34.503124Q110.78438 35.378124 110.26875 36.159374Q109.75313 36.940624 108.78438 37.3625Q107.81563 37.784374 106.59688 37.784374Q104.58125 37.784374 103.51875 36.940624Q102.45625 36.096874 102.15938 34.45625ZM119.65938 37.55L119.65938 36.01875Q118.45625 37.784374 116.37813 37.784374Q115.45625 37.784374 114.65938 37.440624Q113.8625 37.08125 113.47188 36.55Q113.09688 36.01875 112.94063 35.2375Q112.83125 34.721874 112.83125 33.596874L112.83125 27.175L114.58125 27.175L114.58125 32.925Q114.58125 34.3 114.69063 34.784374Q114.8625 35.471874 115.39375 35.878124Q115.94063 36.26875 116.72188 36.26875Q117.51875 36.26875 118.20625 35.8625Q118.90938 35.45625 119.19063 34.76875Q119.4875 34.065624 119.4875 32.7375L119.4875 27.175L121.2375 27.175L121.2375 37.55L119.65938 37.55ZM122.8625 37.55L122.8625 27.175L124.44063 27.175L124.44063 28.628124Q124.925 27.878124 125.7375 27.409374Q126.55 26.940624 127.58125 26.940624Q128.7375 26.940624 129.47188 27.425Q130.20625 27.89375 130.51875 28.753124Q131.75313 26.940624 133.72188 26.940624Q135.26875 26.940624 136.09688 27.8Q136.925 28.659374 136.925 30.425L136.925 37.55L135.175 37.55L135.175 31.01875Q135.175 29.95625 135.00313 29.503124Q134.83125 29.034374 134.37813 28.753124Q133.94063 28.471874 133.33125 28.471874Q132.2375 28.471874 131.50313 29.20625Q130.78438 29.925 130.78438 31.51875L130.78438 37.55L129.03438 37.55L129.03438 30.815624Q129.03438 29.64375 128.59688 29.065624Q128.175 28.471874 127.19063 28.471874Q126.45625 28.471874 125.81563 28.8625Q125.19063 29.253124 124.90938 30.003124Q124.62813 30.753124 124.62813 32.175L124.62813 37.55L122.8625 37.55ZM138.87813 25.253124L138.87813 23.2375L140.64375 23.2375L140.64375 25.253124L138.87813 25.253124ZM138.87813 37.55L138.87813 27.175L140.64375 27.175L140.64375 37.55L138.87813 37.55ZM149.59688 37.55L149.59688 36.2375Q148.6125 37.784374 146.69063 37.784374Q145.45625 37.784374 144.40938 37.096874Q143.37813 36.409374 142.8 35.190624Q142.2375 33.971874 142.2375 32.378124Q142.2375 30.815624 142.75313 29.55Q143.26875 28.284374 144.3 27.6125Q145.34688 26.940624 146.6125 26.940624Q147.55 26.940624 148.28438 27.346874Q149.01875 27.7375 149.4875 28.3625L149.4875 23.2375L151.22188 23.2375L151.22188 37.55L149.59688 37.55ZM144.03438 32.378124Q144.03438 34.3625 144.87813 35.346874Q145.72188 36.33125 146.8625 36.33125Q148.01875 36.33125 148.81563 35.39375Q149.62813 34.45625 149.62813 32.51875Q149.62813 30.39375 148.8 29.39375Q147.9875 28.39375 146.78438 28.39375Q145.6125 28.39375 144.81563 29.3625Q144.03438 30.315624 144.03438 32.378124ZM153.22188 32.3625Q153.22188 29.4875 154.81563 28.096874Q156.15938 26.940624 158.08125 26.940624Q160.22188 26.940624 161.56563 28.346874Q162.925 29.753124 162.925 32.221874Q162.925 34.221874 162.33125 35.378124Q161.7375 36.51875 160.58125 37.159374Q159.44063 37.784374 158.08125 37.784374Q155.89375 37.784374 154.55 36.39375Q153.22188 34.9875 153.22188 32.3625ZM155.01875 32.3625Q155.01875 34.3625 155.87813 35.346874Q156.75313 36.33125 158.08125 36.33125Q159.39375 36.33125 160.25313 35.346874Q161.12813 34.346874 161.12813 32.3Q161.12813 30.378124 160.25313 29.39375Q159.37813 28.39375 158.08125 28.39375Q156.75313 28.39375 155.87813 29.39375Q155.01875 30.378124 155.01875 32.3625ZM164.15938 34.45625L165.90938 34.175Q166.05 35.221874 166.72188 35.784374Q167.39375 36.33125 168.59688 36.33125Q169.8 36.33125 170.37813 35.846874Q170.97188 35.346874 170.97188 34.690624Q170.97188 34.096874 170.45625 33.753124Q170.09688 33.51875 168.65938 33.159374Q166.72188 32.659374 165.97188 32.315624Q165.2375 31.95625 164.84688 31.33125Q164.45625 30.690624 164.45625 29.925Q164.45625 29.2375 164.76875 28.64375Q165.09688 28.05 165.64375 27.659374Q166.05 27.3625 166.75313 27.159374Q167.47188 26.940624 168.28438 26.940624Q169.50313 26.940624 170.425 27.3Q171.34688 27.64375 171.78438 28.253124Q172.22188 28.846874 172.39375 29.846874L170.675 30.08125Q170.55 29.284374 169.9875 28.846874Q169.425 28.39375 168.40938 28.39375Q167.19063 28.39375 166.675 28.8Q166.15938 29.190624 166.15938 29.721874Q166.15938 30.065624 166.37813 30.346874Q166.58125 30.628124 167.05 30.815624Q167.31563 30.909374 168.59688 31.253124Q170.47188 31.753124 171.20625 32.08125Q171.94063 32.39375 172.3625 33.003124Q172.78438 33.596874 172.78438 34.503124Q172.78438 35.378124 172.26875 36.159374Q171.75313 36.940624 170.78438 37.3625Q169.81563 37.784374 168.59688 37.784374Q166.58125 37.784374 165.51875 36.940624Q164.45625 36.096874 164.15938 34.45625ZM180.19063 33.253124L180.19063 31.4875L185.58125 31.4875L185.58125 33.253124L180.19063 33.253124ZM193.39375 33.76875L195.14375 33.534374Q195.45625 35.034374 196.175 35.690624Q196.90938 36.346874 197.95625 36.346874Q199.19063 36.346874 200.03438 35.4875Q200.89375 34.628124 200.89375 33.3625Q200.89375 32.14375 200.09688 31.3625Q199.31563 30.58125 198.09688 30.58125Q197.59688 30.58125 196.8625 30.76875L197.05 29.221874Q197.22188 29.253124 197.33125 29.253124Q198.45625 29.253124 199.34688 28.675Q200.25313 28.08125 200.25313 26.8625Q200.25313 25.89375 199.59688 25.253124Q198.94063 24.6125 197.90938 24.6125Q196.89375 24.6125 196.20625 25.26875Q195.51875 25.909374 195.33125 27.190624L193.56563 26.878124Q193.89375 25.1125 195.03438 24.14375Q196.175 23.175 197.87813 23.175Q199.05 23.175 200.03438 23.675Q201.01875 24.175 201.53438 25.05Q202.06563 25.925 202.06563 26.89375Q202.06563 27.815624 201.56563 28.58125Q201.06563 29.346874 200.09688 29.8Q201.3625 30.08125 202.06563 31.01875Q202.76875 31.940624 202.76875 33.315624Q202.76875 35.190624 201.39375 36.503124Q200.03438 37.8 197.94063 37.8Q196.05 37.8 194.8 36.675Q193.56563 35.55 193.39375 33.76875ZM210.87813 25.253124L210.87813 23.2375L212.64375 23.2375L212.64375 25.253124L210.87813 25.253124ZM210.87813 37.55L210.87813 27.175L212.64375 27.175L212.64375 37.55L210.87813 37.55ZM214.22188 32.3625Q214.22188 29.4875 215.81563 28.096874Q217.15938 26.940624 219.08125 26.940624Q221.22188 26.940624 222.56563 28.346874Q223.925 29.753124 223.925 32.221874Q223.925 34.221874 223.33125 35.378124Q222.7375 36.51875 221.58125 37.159374Q220.44063 37.784374 219.08125 37.784374Q216.89375 37.784374 215.55 36.39375Q214.22188 34.9875 214.22188 32.3625ZM216.01875 32.3625Q216.01875 34.3625 216.87813 35.346874Q217.75313 36.33125 219.08125 36.33125Q220.39375 36.33125 221.25313 35.346874Q222.12813 34.346874 222.12813 32.3Q222.12813 30.378124 221.25313 29.39375Q220.37813 28.39375 219.08125 28.39375Q217.75313 28.39375 216.87813 29.39375Q216.01875 30.378124 216.01875 32.3625ZM227.4875 37.55L225.8625 37.55L225.8625 23.2375L227.6125 23.2375L227.6125 28.346874Q228.7375 26.940624 230.45625 26.940624Q231.40938 26.940624 232.26875 27.33125Q233.12813 27.721874 233.675 28.425Q234.22188 29.1125 234.53438 30.096874Q234.84688 31.08125 234.84688 32.20625Q234.84688 34.878124 233.53438 36.33125Q232.22188 37.784374 230.37813 37.784374Q228.53438 37.784374 227.4875 36.253124L227.4875 37.55ZM227.47188 32.284374Q227.47188 34.14375 227.97188 34.9875Q228.81563 36.33125 230.22188 36.33125Q231.37813 36.33125 232.20625 35.33125Q233.05 34.33125 233.05 32.346874Q233.05 30.315624 232.2375 29.3625Q231.44063 28.39375 230.3 28.39375Q229.14375 28.39375 228.3 29.39375Q227.47188 30.39375 227.47188 32.284374ZM243.97188 34.20625L245.78438 34.440624Q245.3625 36.01875 244.19063 36.909374Q243.03438 37.784374 241.22188 37.784374Q238.95625 37.784374 237.6125 36.39375Q236.28438 34.9875 236.28438 32.45625Q236.28438 29.83125 237.62813 28.39375Q238.97188 26.940624 241.12813 26.940624Q243.20625 26.940624 244.51875 28.3625Q245.84688 29.76875 245.84688 32.346874Q245.84688 32.503124 245.83125 32.815624L238.09688 32.815624Q238.19063 34.51875 239.06563 35.425Q239.94063 36.33125 241.2375 36.33125Q242.20625 36.33125 242.87813 35.83125Q243.56563 35.315624 243.97188 34.20625ZM238.19063 31.3625L243.9875 31.3625Q243.87813 30.065624 243.33125 29.409374Q242.4875 28.39375 241.14375 28.39375Q239.94063 28.39375 239.1125 29.20625Q238.28438 30.003124 238.19063 31.3625ZM247.8625 37.55L247.8625 27.175L249.45625 27.175L249.45625 28.659374Q250.59688 26.940624 252.75313 26.940624Q253.69063 26.940624 254.47188 27.284374Q255.26875 27.6125 255.65938 28.159374Q256.05 28.70625 256.20624 29.45625Q256.3 29.95625 256.3 31.175L256.3 37.55L254.53438 37.55L254.53438 31.2375Q254.53438 30.159374 254.33125 29.628124Q254.12813 29.096874 253.59688 28.784374Q253.08125 28.471874 252.37813 28.471874Q251.25313 28.471874 250.44063 29.190624Q249.62813 29.89375 249.62813 31.878124L249.62813 37.55L247.8625 37.55ZM264.64374 33.753124L266.3625 33.971874Q266.08124 35.76875 264.90936 36.784374Q263.7531 37.784374 262.05 37.784374Q259.925 37.784374 258.6281 36.39375Q257.33124 35.003124 257.33124 32.409374Q257.33124 30.721874 257.8781 29.471874Q258.4406 28.20625 259.58124 27.58125Q260.72186 26.940624 262.0656 26.940624Q263.7531 26.940624 264.8156 27.8Q265.89374 28.659374 266.20624 30.221874L264.4875 30.4875Q264.2531 29.440624 263.6281 28.925Q263.0031 28.39375 262.1281 28.39375Q260.8 28.39375 259.97186 29.346874Q259.14374 30.3 259.14374 32.346874Q259.14374 34.440624 259.9406 35.39375Q260.7375 36.33125 262.03436 36.33125Q263.0656 36.33125 263.7531 35.70625Q264.45624 35.065624 264.64374 33.753124ZM267.8625 37.55L267.8625 23.2375L269.6281 23.2375L269.6281 28.3625Q270.8625 26.940624 272.7375 26.940624Q273.8781 26.940624 274.72186 27.39375Q275.58124 27.846874 275.9406 28.659374Q276.3156 29.45625 276.3156 30.971874L276.3156 37.55L274.5656 37.55L274.5656 30.971874Q274.5656 29.659374 273.9875 29.065624Q273.40936 28.45625 272.3781 28.45625Q271.59686 28.45625 270.89374 28.8625Q270.20624 29.26875 269.90936 29.971874Q269.6281 30.659374 269.6281 31.878124L269.6281 37.55L267.8625 37.55Z" fill-rule="nonzero"/></svg>