<svg version="1.1" viewBox="0.0 0.0 600.0 371.0" fill="none" stroke="none" stroke-linecap="square" stroke-miterlimit="10" width="600" height="371" xmlns:xlink="http://www.w3.org/1999/xlink" xmlns="http://www.w3.org/2000/svg"><path fill="#ffffff" d="M0 0L600.0 0L600.0 371.0L0 371.0L0 0Z" fill-rule="nonzero"/><path stroke="#333333" stroke-width="1.0" stroke-linecap="butt" d="M90.5 313.5L581.5 313.5" fill-rule="nonzero"/><path stroke="#cccccc" stroke-width="1.0" stroke-linecap="butt" d="M90.5 263.5L581.5 263.5" fill-rule="nonzero"/><path stroke="#cccccc" stroke-width="1.0" stroke-linecap="butt" d="M90.5 212.5L581.5 212.5" fill-rule="nonzero"/><path stroke="#cccccc" stroke-width="1.0" stroke-linecap="butt" d="M90.5 162.5L581.5 162.5" fill-rule="nonzero"/><path stroke="#cccccc" stroke-width="1.0" stroke-linecap="butt" d="M90.5 112.5L581.5 112.5" fill-rule="nonzero"/><path stroke="#cccccc" stroke-width="1.0" stroke-linecap="butt" d="M90.5 61.5L581.5 61.5" fill-rule="nonzero"/><path stroke="#e6e6e6" stroke-width="1.0" stroke-linecap="butt" d="M90.5 296.5L581.5 296.5" fill-rule="nonzero"/><path stroke="#e6e6e6" stroke-width="1.0" stroke-linecap="butt" d="M90.5 279.5L581.5 279.5" fill-rule="nonzero"/><path stroke="#e6e6e6" stroke-width="1.0" stroke-linecap="butt" d="M90.5 246.5L581.5 246.5" fill-rule="nonzero"/><path stroke="#e6e6e6" stroke-width="1.0" stroke-linecap="butt" d="M90.5 229.5L581.5 229.5" fill-rule="nonzero"/><path stroke="#e6e6e6" stroke-width="1.0" stroke-linecap="butt" d="M90.5 196.5L581.5 196.5" fill-rule="nonzero"/><path stroke="#e6e6e6" stroke-width="1.0" stroke-linecap="butt" d="M90.5 179.5L581.5 179.5" fill-rule="nonzero"/><path stroke="#e6e6e6" stroke-width="1.0" stroke-linecap="butt" d="M90.5 145.5L581.5 145.5" fill-rule="nonzero"/><path stroke="#e6e6e6" stroke-width="1.0" stroke-linecap="butt" d="M90.5 128.5L581.5 128.5" fill-rule="nonzero"/><path stroke="#e6e6e6" stroke-width="1.0" stroke-linecap="butt" d="M90.5 95.5L581.5 95.5" fill-rule="nonzero"/><path stroke="#e6e6e6" stroke-width="1.0" stroke-linecap="butt" d="M90.5 78.5L581.5 78.5" fill-rule="nonzero"/><path stroke="#000000" stroke-width="1.0" stroke-linecap="butt" d="M90.5 313.5L90.5 61.5" fill-rule="nonzero"/><clipPath id="id_0"><path d="M90.55 61.916668L581.45 61.916668L581.45 313.45L90.55 313.45L90.55 61.916668Z" clip-rule="nonzero"/></clipPath><path stroke="#000000" stroke-width="2.0" stroke-linecap="butt" stroke-opacity="0.0" clip-path="url(#id_0)" d="M276.0 313.0L219.0 313.0L219.0 73.0C219.0 71.89543 219.89543 71.0 221.0 71.0L274.0 71.0C275.10458 71.0 276.0 71.89543 276.0 73.0Z" fill-rule="nonzero"/><path fill="#ff6d01" clip-path="url(#id_0)" d="M276.0 313.0L219.0 313.0L219.0 73.0C219.0 71.89543 219.89543 71.0 221.0 71.0L274.0 71.0C275.10458 71.0 276.0 71.89543 276.0 73.0Z" fill-rule="nonzero"/><path stroke="#000000" stroke-width="2.0" stroke-linecap="butt" stroke-opacity="0.0" clip-path="url(#id_0)" d="M335.0 313.0L278.0 313.0L278.0 171.0C278.0 169.89543 278.89542 169.0 280.0 169.0L333.0 169.0C334.10458 169.0 335.0 169.89543 335.0 171.0Z" fill-rule="nonzero"/><path fill="#34a853" clip-path="url(#id_0)" d="M335.0 313.0L278.0 313.0L278.0 171.0C278.0 169.89543 278.89542 169.0 280.0 169.0L333.0 169.0C334.10458 169.0 335.0 169.89543 335.0 171.0Z" fill-rule="nonzero"/><path stroke="#000000" stroke-width="2.0" stroke-linecap="butt" stroke-opacity="0.0" clip-path="url(#id_0)" d="M394.0 313.0L337.0 313.0L337.0 175.0C337.0 173.89543 337.89542 173.0 339.0 173.0L392.0 173.0C393.10458 173.0 394.0 173.89543 394.0 175.0Z" fill-rule="nonzero"/><path fill="#34a853" clip-path="url(#id_0)" d="M394.0 313.0L337.0 313.0L337.0 175.0C337.0 173.89543 337.89542 173.0 339.0 173.0L392.0 173.0C393.10458 173.0 394.0 173.89543 394.0 175.0Z" fill-rule="nonzero"/><path stroke="#000000" stroke-width="2.0" stroke-linecap="butt" stroke-opacity="0.0" clip-path="url(#id_0)" d="M453.0 313.0L396.0 313.0L396.0 174.0C396.0 172.89543 396.89542 172.0 398.0 172.0L451.0 172.0C452.10458 172.0 453.0 172.89543 453.0 174.0Z" fill-rule="nonzero"/><path fill="#34a853" clip-path="url(#id_0)" d="M453.0 313.0L396.0 313.0L396.0 174.0C396.0 172.89543 396.89542 172.0 398.0 172.0L451.0 172.0C452.10458 172.0 453.0 172.89543 453.0 174.0Z" fill-rule="nonzero"/><path stroke="#000000" stroke-width="1.0" stroke-linecap="butt" d="M84.5 313.5L96.5 313.5" fill-rule="nonzero"/><path stroke="#000000" stroke-width="1.0" stroke-linecap="butt" d="M84.5 263.5L96.5 263.5" fill-rule="nonzero"/><path stroke="#000000" stroke-width="1.0" stroke-linecap="butt" d="M84.5 212.5L96.5 212.5" fill-rule="nonzero"/><path stroke="#000000" stroke-width="1.0" stroke-linecap="butt" d="M84.5 162.5L96.5 162.5" fill-rule="nonzero"/><path stroke="#000000" stroke-width="1.0" stroke-linecap="butt" d="M84.5 112.5L96.5 112.5" fill-rule="nonzero"/><path stroke="#000000" stroke-width="1.0" stroke-linecap="butt" d="M84.5 61.5L96.5 61.5" fill-rule="nonzero"/><path stroke="#ff6d01" stroke-width="3.0" stroke-linejoin="round" stroke-linecap="round" d="M238.78125 85.06341L239.96875 85.06341L239.96875 85.93841L238.78125 85.93841L238.78125 87.92278L237.70312 87.92278L237.70312 85.93841L233.8125 85.93841L233.8125 85.29778L237.625 79.39153L238.78125 79.39153L238.78125 85.06341ZM235.04688 85.06341L237.70312 85.06341L237.70312 80.87591L237.5625 81.11028L235.04688 85.06341ZM246.39062 81.61028Q246.39062 82.25091 246.04688 82.75091Q245.70312 83.25091 245.14062 83.53216Q245.79688 83.81341 246.1875 84.37591Q246.57812 84.92278 246.57812 85.62591Q246.57812 86.71966 245.82812 87.39153Q245.09375 88.04778 243.875 88.04778Q242.64062 88.04778 241.89062 87.39153Q241.15625 86.71966 241.15625 85.62591Q241.15625 84.92278 241.53125 84.37591Q241.90625 83.81341 242.57812 83.53216Q242.01562 83.25091 241.6875 82.75091Q241.35938 82.25091 241.35938 81.61028Q241.35938 80.53216 242.04688 79.90716Q242.73438 79.26653 243.875 79.26653Q245.0 79.26653 245.6875 79.90716Q246.39062 80.53216 246.39062 81.61028ZM245.5 85.59466Q245.5 84.87591 245.04688 84.43841Q244.59375 83.98528 243.85938 83.98528Q243.125 83.98528 242.67188 84.43841Q242.23438 84.87591 242.23438 85.61028Q242.23438 86.32903 242.67188 86.75091Q243.10938 87.15716 243.875 87.15716Q244.625 87.15716 245.0625 86.73528Q245.5 86.31341 245.5 85.59466ZM243.875 80.15716Q243.23438 80.15716 242.82812 80.56341Q242.4375 80.95403 242.4375 81.64153Q242.4375 82.28216 242.82812 82.68841Q243.21875 83.09466 243.85938 83.09466Q244.51562 83.09466 244.90625 82.68841Q245.29688 82.28216 245.29688 81.64153Q245.29688 80.98528 244.89062 80.57903Q244.48438 80.15716 243.875 80.15716ZM251.76562 87.92278L250.6875 87.92278L250.6875 80.70403L248.5 81.50091L248.5 80.51653L251.60938 79.34466L251.76562 79.34466L251.76562 87.92278ZM260.71875 80.00091L257.1875 87.92278L256.04688 87.92278L259.5625 80.28216L254.95312 80.28216L254.95312 79.39153L260.71875 79.39153L260.71875 80.00091Z" fill-rule="nonzero"/><path fill="#000000" d="M238.78125 85.06341L239.96875 85.06341L239.96875 85.93841L238.78125 85.93841L238.78125 87.92278L237.70312 87.92278L237.70312 85.93841L233.8125 85.93841L233.8125 85.29778L237.625 79.39153L238.78125 79.39153L238.78125 85.06341ZM235.04688 85.06341L237.70312 85.06341L237.70312 80.87591L237.5625 81.11028L235.04688 85.06341ZM246.39062 81.61028Q246.39062 82.25091 246.04688 82.75091Q245.70312 83.25091 245.14062 83.53216Q245.79688 83.81341 246.1875 84.37591Q246.57812 84.92278 246.57812 85.62591Q246.57812 86.71966 245.82812 87.39153Q245.09375 88.04778 243.875 88.04778Q242.64062 88.04778 241.89062 87.39153Q241.15625 86.71966 241.15625 85.62591Q241.15625 84.92278 241.53125 84.37591Q241.90625 83.81341 242.57812 83.53216Q242.01562 83.25091 241.6875 82.75091Q241.35938 82.25091 241.35938 81.61028Q241.35938 80.53216 242.04688 79.90716Q242.73438 79.26653 243.875 79.26653Q245.0 79.26653 245.6875 79.90716Q246.39062 80.53216 246.39062 81.61028ZM245.5 85.59466Q245.5 84.87591 245.04688 84.43841Q244.59375 83.98528 243.85938 83.98528Q243.125 83.98528 242.67188 84.43841Q242.23438 84.87591 242.23438 85.61028Q242.23438 86.32903 242.67188 86.75091Q243.10938 87.15716 243.875 87.15716Q244.625 87.15716 245.0625 86.73528Q245.5 86.31341 245.5 85.59466ZM243.875 80.15716Q243.23438 80.15716 242.82812 80.56341Q242.4375 80.95403 242.4375 81.64153Q242.4375 82.28216 242.82812 82.68841Q243.21875 83.09466 243.85938 83.09466Q244.51562 83.09466 244.90625 82.68841Q245.29688 82.28216 245.29688 81.64153Q245.29688 80.98528 244.89062 80.57903Q244.48438 80.15716 243.875 80.15716ZM251.76562 87.92278L250.6875 87.92278L250.6875 80.70403L248.5 81.50091L248.5 80.51653L251.60938 79.34466L251.76562 79.34466L251.76562 87.92278ZM260.71875 80.00091L257.1875 87.92278L256.04688 87.92278L259.5625 80.28216L254.95312 80.28216L254.95312 79.39153L260.71875 79.39153L260.71875 80.00091Z" fill-rule="nonzero"/><path stroke="#34a853" stroke-width="3.0" stroke-linejoin="round" stroke-linecap="round" d="M298.79688 186.1717L293.20312 186.1717L293.20312 185.39046L296.15625 182.1092Q296.8125 181.3592 297.0625 180.90608Q297.3125 180.43733 297.3125 179.93733Q297.3125 179.26546 296.90625 178.84358Q296.51562 178.40608 295.82812 178.40608Q295.03125 178.40608 294.57812 178.87483Q294.125 179.32796 294.125 180.15608L293.04688 180.15608Q293.04688 178.96858 293.79688 178.24983Q294.5625 177.51546 295.82812 177.51546Q297.03125 177.51546 297.71875 178.14046Q298.40625 178.76546 298.40625 179.81233Q298.40625 181.06233 296.79688 182.81233L294.51562 185.28108L298.79688 185.28108L298.79688 186.1717ZM305.39062 179.8592Q305.39062 180.49983 305.04688 180.99983Q304.70312 181.49983 304.14062 181.78108Q304.79688 182.06233 305.1875 182.62483Q305.57812 183.1717 305.57812 183.87483Q305.57812 184.96858 304.82812 185.64046Q304.09375 186.2967 302.875 186.2967Q301.64062 186.2967 300.89062 185.64046Q300.15625 184.96858 300.15625 183.87483Q300.15625 183.1717 300.53125 182.62483Q300.90625 182.06233 301.57812 181.78108Q301.01562 181.49983 300.6875 180.99983Q300.35938 180.49983 300.35938 179.8592Q300.35938 178.78108 301.04688 178.15608Q301.73438 177.51546 302.875 177.51546Q304.0 177.51546 304.6875 178.15608Q305.39062 178.78108 305.39062 179.8592ZM304.5 183.84358Q304.5 183.12483 304.04688 182.68733Q303.59375 182.2342 302.85938 182.2342Q302.125 182.2342 301.67188 182.68733Q301.23438 183.12483 301.23438 183.8592Q301.23438 184.57796 301.67188 184.99983Q302.10938 185.40608 302.875 185.40608Q303.625 185.40608 304.0625 184.9842Q304.5 184.56233 304.5 183.84358ZM302.875 178.40608Q302.23438 178.40608 301.82812 178.81233Q301.4375 179.20296 301.4375 179.89046Q301.4375 180.53108 301.82812 180.93733Q302.21875 181.34358 302.85938 181.34358Q303.51562 181.34358 303.90625 180.93733Q304.29688 180.53108 304.29688 179.89046Q304.29688 179.2342 303.89062 178.82796Q303.48438 178.40608 302.875 178.40608ZM311.46875 177.64046L311.46875 178.5467L311.26562 178.5467Q310.0 178.57796 309.25 179.31233Q308.5 180.03108 308.375 181.34358Q309.0625 180.57796 310.21875 180.57796Q311.32812 180.57796 312.0 181.3592Q312.67188 182.14046 312.67188 183.39046Q312.67188 184.70296 311.95312 185.49983Q311.23438 186.2967 310.01562 186.2967Q308.79688 186.2967 308.03125 185.3592Q307.28125 184.40608 307.28125 182.9217L307.28125 182.51546Q307.28125 180.15608 308.28125 178.90608Q309.28125 177.65608 311.26562 177.64046L311.46875 177.64046ZM310.04688 181.4842Q309.48438 181.4842 309.01562 181.81233Q308.54688 182.14046 308.35938 182.65608L308.35938 183.0467Q308.35938 184.1092 308.82812 184.74983Q309.3125 185.39046 310.01562 185.39046Q310.75 185.39046 311.17188 184.8592Q311.59375 184.31233 311.59375 183.43733Q311.59375 182.56233 311.17188 182.03108Q310.75 181.4842 310.04688 181.4842ZM318.78125 183.31233L319.96875 183.31233L319.96875 184.18733L318.78125 184.18733L318.78125 186.1717L317.70312 186.1717L317.70312 184.18733L313.8125 184.18733L313.8125 183.5467L317.625 177.64046L318.78125 177.64046L318.78125 183.31233ZM315.04688 183.31233L317.70312 183.31233L317.70312 179.12483L317.5625 179.3592L315.04688 183.31233Z" fill-rule="nonzero"/><path fill="#ffffff" d="M298.79688 186.1717L293.20312 186.1717L293.20312 185.39046L296.15625 182.1092Q296.8125 181.3592 297.0625 180.90608Q297.3125 180.43733 297.3125 179.93733Q297.3125 179.26546 296.90625 178.84358Q296.51562 178.40608 295.82812 178.40608Q295.03125 178.40608 294.57812 178.87483Q294.125 179.32796 294.125 180.15608L293.04688 180.15608Q293.04688 178.96858 293.79688 178.24983Q294.5625 177.51546 295.82812 177.51546Q297.03125 177.51546 297.71875 178.14046Q298.40625 178.76546 298.40625 179.81233Q298.40625 181.06233 296.79688 182.81233L294.51562 185.28108L298.79688 185.28108L298.79688 186.1717ZM305.39062 179.8592Q305.39062 180.49983 305.04688 180.99983Q304.70312 181.49983 304.14062 181.78108Q304.79688 182.06233 305.1875 182.62483Q305.57812 183.1717 305.57812 183.87483Q305.57812 184.96858 304.82812 185.64046Q304.09375 186.2967 302.875 186.2967Q301.64062 186.2967 300.89062 185.64046Q300.15625 184.96858 300.15625 183.87483Q300.15625 183.1717 300.53125 182.62483Q300.90625 182.06233 301.57812 181.78108Q301.01562 181.49983 300.6875 180.99983Q300.35938 180.49983 300.35938 179.8592Q300.35938 178.78108 301.04688 178.15608Q301.73438 177.51546 302.875 177.51546Q304.0 177.51546 304.6875 178.15608Q305.39062 178.78108 305.39062 179.8592ZM304.5 183.84358Q304.5 183.12483 304.04688 182.68733Q303.59375 182.2342 302.85938 182.2342Q302.125 182.2342 301.67188 182.68733Q301.23438 183.12483 301.23438 183.8592Q301.23438 184.57796 301.67188 184.99983Q302.10938 185.40608 302.875 185.40608Q303.625 185.40608 304.0625 184.9842Q304.5 184.56233 304.5 183.84358ZM302.875 178.40608Q302.23438 178.40608 301.82812 178.81233Q301.4375 179.20296 301.4375 179.89046Q301.4375 180.53108 301.82812 180.93733Q302.21875 181.34358 302.85938 181.34358Q303.51562 181.34358 303.90625 180.93733Q304.29688 180.53108 304.29688 179.89046Q304.29688 179.2342 303.89062 178.82796Q303.48438 178.40608 302.875 178.40608ZM311.46875 177.64046L311.46875 178.5467L311.26562 178.5467Q310.0 178.57796 309.25 179.31233Q308.5 180.03108 308.375 181.34358Q309.0625 180.57796 310.21875 180.57796Q311.32812 180.57796 312.0 181.3592Q312.67188 182.14046 312.67188 183.39046Q312.67188 184.70296 311.95312 185.49983Q311.23438 186.2967 310.01562 186.2967Q308.79688 186.2967 308.03125 185.3592Q307.28125 184.40608 307.28125 182.9217L307.28125 182.51546Q307.28125 180.15608 308.28125 178.90608Q309.28125 177.65608 311.26562 177.64046L311.46875 177.64046ZM310.04688 181.4842Q309.48438 181.4842 309.01562 181.81233Q308.54688 182.14046 308.35938 182.65608L308.35938 183.0467Q308.35938 184.1092 308.82812 184.74983Q309.3125 185.39046 310.01562 185.39046Q310.75 185.39046 311.17188 184.8592Q311.59375 184.31233 311.59375 183.43733Q311.59375 182.56233 311.17188 182.03108Q310.75 181.4842 310.04688 181.4842ZM318.78125 183.31233L319.96875 183.31233L319.96875 184.18733L318.78125 184.18733L318.78125 186.1717L317.70312 186.1717L317.70312 184.18733L313.8125 184.18733L313.8125 183.5467L317.625 177.64046L318.78125 177.64046L318.78125 183.31233ZM315.04688 183.31233L317.70312 183.31233L317.70312 179.12483L317.5625 179.3592L315.04688 183.31233Z" fill-rule="nonzero"/><path stroke="#34a853" stroke-width="3.0" stroke-linejoin="round" stroke-linecap="round" d="M357.79688 189.44164L352.20312 189.44164L352.20312 188.66039L355.15625 185.37914Q355.8125 184.62914 356.0625 184.17601Q356.3125 183.70726 356.3125 183.20726Q356.3125 182.53539 355.90625 182.11351Q355.51562 181.67601 354.82812 181.67601Q354.03125 181.67601 353.57812 182.14476Q353.125 182.59789 353.125 183.42601L352.04688 183.42601Q352.04688 182.23851 352.79688 181.51976Q353.5625 180.78539 354.82812 180.78539Q356.03125 180.78539 356.71875 181.41039Q357.40625 182.03539 357.40625 183.08226Q357.40625 184.33226 355.79688 186.08226L353.51562 188.55101L357.79688 188.55101L357.79688 189.44164ZM364.71875 181.51976L361.1875 189.44164L360.04688 189.44164L363.5625 181.80101L358.95312 181.80101L358.95312 180.91039L364.71875 180.91039L364.71875 181.51976ZM370.35938 185.69164Q370.03125 186.09789 369.54688 186.34789Q369.07812 186.58226 368.51562 186.58226Q367.78125 186.58226 367.23438 186.22289Q366.6875 185.86351 366.39062 185.20726Q366.09375 184.53539 366.09375 183.73851Q366.09375 182.89476 366.40625 182.20726Q366.73438 181.51976 367.32812 181.16039Q367.9375 180.78539 368.73438 180.78539Q370.0 180.78539 370.71875 181.73851Q371.45312 182.69164 371.45312 184.31664L371.45312 184.62914Q371.45312 187.12914 370.46875 188.26976Q369.48438 189.41039 367.5 189.44164L367.28125 189.44164L367.28125 188.53539L367.51562 188.53539Q368.85938 188.50414 369.57812 187.83226Q370.29688 187.16039 370.35938 185.69164ZM368.6875 185.69164Q369.23438 185.69164 369.6875 185.36351Q370.15625 185.01976 370.375 184.53539L370.375 184.09789Q370.375 183.03539 369.90625 182.36351Q369.4375 181.69164 368.73438 181.69164Q368.01562 181.69164 367.57812 182.23851Q367.15625 182.78539 367.15625 183.69164Q367.15625 184.56664 367.5625 185.12914Q367.98438 185.69164 368.6875 185.69164ZM377.35938 185.69164Q377.03125 186.09789 376.54688 186.34789Q376.07812 186.58226 375.51562 186.58226Q374.78125 186.58226 374.23438 186.22289Q373.6875 185.86351 373.39062 185.20726Q373.09375 184.53539 373.09375 183.73851Q373.09375 182.89476 373.40625 182.20726Q373.73438 181.51976 374.32812 181.16039Q374.9375 180.78539 375.73438 180.78539Q377.0 180.78539 377.71875 181.73851Q378.45312 182.69164 378.45312 184.31664L378.45312 184.62914Q378.45312 187.12914 377.46875 188.26976Q376.48438 189.41039 374.5 189.44164L374.28125 189.44164L374.28125 188.53539L374.51562 188.53539Q375.85938 188.50414 376.57812 187.83226Q377.29688 187.16039 377.35938 185.69164ZM375.6875 185.69164Q376.23438 185.69164 376.6875 185.36351Q377.15625 185.01976 377.375 184.53539L377.375 184.09789Q377.375 183.03539 376.90625 182.36351Q376.4375 181.69164 375.73438 181.69164Q375.01562 181.69164 374.57812 182.23851Q374.15625 182.78539 374.15625 183.69164Q374.15625 184.56664 374.5625 185.12914Q374.98438 185.69164 375.6875 185.69164Z" fill-rule="nonzero"/><path fill="#ffffff" d="M357.79688 189.44164L352.20312 189.44164L352.20312 188.66039L355.15625 185.37914Q355.8125 184.62914 356.0625 184.17601Q356.3125 183.70726 356.3125 183.20726Q356.3125 182.53539 355.90625 182.11351Q355.51562 181.67601 354.82812 181.67601Q354.03125 181.67601 353.57812 182.14476Q353.125 182.59789 353.125 183.42601L352.04688 183.42601Q352.04688 182.23851 352.79688 181.51976Q353.5625 180.78539 354.82812 180.78539Q356.03125 180.78539 356.71875 181.41039Q357.40625 182.03539 357.40625 183.08226Q357.40625 184.33226 355.79688 186.08226L353.51562 188.55101L357.79688 188.55101L357.79688 189.44164ZM364.71875 181.51976L361.1875 189.44164L360.04688 189.44164L363.5625 181.80101L358.95312 181.80101L358.95312 180.91039L364.71875 180.91039L364.71875 181.51976ZM370.35938 185.69164Q370.03125 186.09789 369.54688 186.34789Q369.07812 186.58226 368.51562 186.58226Q367.78125 186.58226 367.23438 186.22289Q366.6875 185.86351 366.39062 185.20726Q366.09375 184.53539 366.09375 183.73851Q366.09375 182.89476 366.40625 182.20726Q366.73438 181.51976 367.32812 181.16039Q367.9375 180.78539 368.73438 180.78539Q370.0 180.78539 370.71875 181.73851Q371.45312 182.69164 371.45312 184.31664L371.45312 184.62914Q371.45312 187.12914 370.46875 188.26976Q369.48438 189.41039 367.5 189.44164L367.28125 189.44164L367.28125 188.53539L367.51562 188.53539Q368.85938 188.50414 369.57812 187.83226Q370.29688 187.16039 370.35938 185.69164ZM368.6875 185.69164Q369.23438 185.69164 369.6875 185.36351Q370.15625 185.01976 370.375 184.53539L370.375 184.09789Q370.375 183.03539 369.90625 182.36351Q369.4375 181.69164 368.73438 181.69164Q368.01562 181.69164 367.57812 182.23851Q367.15625 182.78539 367.15625 183.69164Q367.15625 184.56664 367.5625 185.12914Q367.98438 185.69164 368.6875 185.69164ZM377.35938 185.69164Q377.03125 186.09789 376.54688 186.34789Q376.07812 186.58226 375.51562 186.58226Q374.78125 186.58226 374.23438 186.22289Q373.6875 185.86351 373.39062 185.20726Q373.09375 184.53539 373.09375 183.73851Q373.09375 182.89476 373.40625 182.20726Q373.73438 181.51976 374.32812 181.16039Q374.9375 180.78539 375.73438 180.78539Q377.0 180.78539 377.71875 181.73851Q378.45312 182.69164 378.45312 184.31664L378.45312 184.62914Q378.45312 187.12914 377.46875 188.26976Q376.48438 189.41039 374.5 189.44164L374.28125 189.44164L374.28125 188.53539L374.51562 188.53539Q375.85938 188.50414 376.57812 187.83226Q377.29688 187.16039 377.35938 185.69164ZM375.6875 185.69164Q376.23438 185.69164 376.6875 185.36351Q377.15625 185.01976 377.375 184.53539L377.375 184.09789Q377.375 183.03539 376.90625 182.36351Q376.4375 181.69164 375.73438 181.69164Q375.01562 181.69164 374.57812 182.23851Q374.15625 182.78539 374.15625 183.69164Q374.15625 184.56664 374.5625 185.12914Q374.98438 185.69164 375.6875 185.69164Z" fill-rule="nonzero"/><path stroke="#34a853" stroke-width="3.0" stroke-linejoin="round" stroke-linecap="round" d="M416.79688 188.88826L411.20312 188.88826L411.20312 188.10701L414.15625 184.82576Q414.8125 184.07576 415.0625 183.62263Q415.3125 183.15388 415.3125 182.65388Q415.3125 181.98201 414.90625 181.56013Q414.51562 181.12263 413.82812 181.12263Q413.03125 181.12263 412.57812 181.59138Q412.125 182.04451 412.125 182.87263L411.04688 182.87263Q411.04688 181.68513 411.79688 180.96638Q412.5625 180.23201 413.82812 180.23201Q415.03125 180.23201 415.71875 180.85701Q416.40625 181.48201 416.40625 182.52888Q416.40625 183.77888 414.79688 185.52888L412.51562 187.99763L416.79688 187.99763L416.79688 188.88826ZM423.39062 182.57576Q423.39062 183.21638 423.04688 183.71638Q422.70312 184.21638 422.14062 184.49763Q422.79688 184.77888 423.1875 185.34138Q423.57812 185.88826 423.57812 186.59138Q423.57812 187.68513 422.82812 188.35701Q422.09375 189.01326 420.875 189.01326Q419.64062 189.01326 418.89062 188.35701Q418.15625 187.68513 418.15625 186.59138Q418.15625 185.88826 418.53125 185.34138Q418.90625 184.77888 419.57812 184.49763Q419.01562 184.21638 418.6875 183.71638Q418.35938 183.21638 418.35938 182.57576Q418.35938 181.49763 419.04688 180.87263Q419.73438 180.23201 420.875 180.23201Q422.0 180.23201 422.6875 180.87263Q423.39062 181.49763 423.39062 182.57576ZM422.5 186.56013Q422.5 185.84138 422.04688 185.40388Q421.59375 184.95076 420.85938 184.95076Q420.125 184.95076 419.67188 185.40388Q419.23438 185.84138 419.23438 186.57576Q419.23438 187.29451 419.67188 187.71638Q420.10938 188.12263 420.875 188.12263Q421.625 188.12263 422.0625 187.70076Q422.5 187.27888 422.5 186.56013ZM420.875 181.12263Q420.23438 181.12263 419.82812 181.52888Q419.4375 181.91951 419.4375 182.60701Q419.4375 183.24763 419.82812 183.65388Q420.21875 184.06013 420.85938 184.06013Q421.51562 184.06013 421.90625 183.65388Q422.29688 183.24763 422.29688 182.60701Q422.29688 181.95076 421.89062 181.54451Q421.48438 181.12263 420.875 181.12263ZM428.76562 188.88826L427.6875 188.88826L427.6875 181.66951L425.5 182.46638L425.5 181.48201L428.60938 180.31013L428.76562 180.31013L428.76562 188.88826ZM437.5625 185.24763Q437.5625 187.15388 436.90625 188.09138Q436.26562 189.01326 434.875 189.01326Q433.51562 189.01326 432.85938 188.10701Q432.20312 187.20076 432.17188 185.38826L432.17188 183.95076Q432.17188 182.06013 432.8125 181.15388Q433.46875 180.23201 434.85938 180.23201Q436.23438 180.23201 436.89062 181.12263Q437.54688 181.99763 437.5625 183.84138L437.5625 185.24763ZM436.46875 183.76326Q436.46875 182.38826 436.07812 181.76326Q435.70312 181.12263 434.85938 181.12263Q434.03125 181.12263 433.64062 181.76326Q433.26562 182.38826 433.26562 183.68513L433.26562 185.41951Q433.26562 186.79451 433.65625 187.46638Q434.0625 188.12263 434.875 188.12263Q435.67188 188.12263 436.0625 187.49763Q436.45312 186.87263 436.46875 185.54451L436.46875 183.76326Z" fill-rule="nonzero"/><path fill="#ffffff" d="M416.79688 188.88826L411.20312 188.88826L411.20312 188.10701L414.15625 184.82576Q414.8125 184.07576 415.0625 183.62263Q415.3125 183.15388 415.3125 182.65388Q415.3125 181.98201 414.90625 181.56013Q414.51562 181.12263 413.82812 181.12263Q413.03125 181.12263 412.57812 181.59138Q412.125 182.04451 412.125 182.87263L411.04688 182.87263Q411.04688 181.68513 411.79688 180.96638Q412.5625 180.23201 413.82812 180.23201Q415.03125 180.23201 415.71875 180.85701Q416.40625 181.48201 416.40625 182.52888Q416.40625 183.77888 414.79688 185.52888L412.51562 187.99763L416.79688 187.99763L416.79688 188.88826ZM423.39062 182.57576Q423.39062 183.21638 423.04688 183.71638Q422.70312 184.21638 422.14062 184.49763Q422.79688 184.77888 423.1875 185.34138Q423.57812 185.88826 423.57812 186.59138Q423.57812 187.68513 422.82812 188.35701Q422.09375 189.01326 420.875 189.01326Q419.64062 189.01326 418.89062 188.35701Q418.15625 187.68513 418.15625 186.59138Q418.15625 185.88826 418.53125 185.34138Q418.90625 184.77888 419.57812 184.49763Q419.01562 184.21638 418.6875 183.71638Q418.35938 183.21638 418.35938 182.57576Q418.35938 181.49763 419.04688 180.87263Q419.73438 180.23201 420.875 180.23201Q422.0 180.23201 422.6875 180.87263Q423.39062 181.49763 423.39062 182.57576ZM422.5 186.56013Q422.5 185.84138 422.04688 185.40388Q421.59375 184.95076 420.85938 184.95076Q420.125 184.95076 419.67188 185.40388Q419.23438 185.84138 419.23438 186.57576Q419.23438 187.29451 419.67188 187.71638Q420.10938 188.12263 420.875 188.12263Q421.625 188.12263 422.0625 187.70076Q422.5 187.27888 422.5 186.56013ZM420.875 181.12263Q420.23438 181.12263 419.82812 181.52888Q419.4375 181.91951 419.4375 182.60701Q419.4375 183.24763 419.82812 183.65388Q420.21875 184.06013 420.85938 184.06013Q421.51562 184.06013 421.90625 183.65388Q422.29688 183.24763 422.29688 182.60701Q422.29688 181.95076 421.89062 181.54451Q421.48438 181.12263 420.875 181.12263ZM428.76562 188.88826L427.6875 188.88826L427.6875 181.66951L425.5 182.46638L425.5 181.48201L428.60938 180.31013L428.76562 180.31013L428.76562 188.88826ZM437.5625 185.24763Q437.5625 187.15388 436.90625 188.09138Q436.26562 189.01326 434.875 189.01326Q433.51562 189.01326 432.85938 188.10701Q432.20312 187.20076 432.17188 185.38826L432.17188 183.95076Q432.17188 182.06013 432.8125 181.15388Q433.46875 180.23201 434.85938 180.23201Q436.23438 180.23201 436.89062 181.12263Q437.54688 181.99763 437.5625 183.84138L437.5625 185.24763ZM436.46875 183.76326Q436.46875 182.38826 436.07812 181.76326Q435.70312 181.12263 434.85938 181.12263Q434.03125 181.12263 433.64062 181.76326Q433.26562 182.38826 433.26562 183.68513L433.26562 185.41951Q433.26562 186.79451 433.65625 187.46638Q434.0625 188.12263 434.875 188.12263Q435.67188 188.12263 436.0625 187.49763Q436.45312 186.87263 436.46875 185.54451L436.46875 183.76326Z" fill-rule="nonzero"/><path fill="#000000" d="M313.92188 349.45L313.92188 340.85626L317.17188 340.85626Q318.01562 340.85626 318.46875 340.9344Q319.10938 341.04376 319.53125 341.34064Q319.96875 341.6375 320.21875 342.16876Q320.48438 342.7 320.48438 343.34064Q320.48438 344.4344 319.78125 345.2Q319.09375 345.95 317.26562 345.95L315.0625 345.95L315.0625 349.45L313.92188 349.45ZM315.0625 344.95L317.28125 344.95Q318.39062 344.95 318.84375 344.54376Q319.3125 344.1219 319.3125 343.3719Q319.3125 342.84064 319.03125 342.46564Q318.76562 342.075 318.32812 341.95Q318.03125 341.8719 317.26562 341.8719L315.0625 341.8719L315.0625 344.95ZM321.78125 349.45L321.78125 343.23126L322.73438 343.23126L322.73438 344.16876Q323.09375 343.5125 323.39062 343.3094Q323.70312 343.09064 324.07812 343.09064Q324.60938 343.09064 325.15625 343.41876L324.79688 344.40314Q324.40625 344.16876 324.03125 344.16876Q323.67188 344.16876 323.39062 344.3875Q323.125 344.59064 323.01562 344.96564Q322.82812 345.52814 322.82812 346.1844L322.82812 349.45L321.78125 349.45ZM325.40625 346.34064Q325.40625 344.60626 326.35938 343.77814Q327.15625 343.09064 328.3125 343.09064Q329.59375 343.09064 330.40625 343.9344Q331.23438 344.7625 331.23438 346.2469Q331.23438 347.45 330.875 348.1375Q330.51562 348.825 329.8125 349.21564Q329.125 349.59064 328.3125 349.59064Q327.01562 349.59064 326.20312 348.7625Q325.40625 347.91876 325.40625 346.34064ZM326.48438 346.34064Q326.48438 347.52814 327.0 348.1219Q327.53125 348.71564 328.3125 348.71564Q329.10938 348.71564 329.625 348.1219Q330.14062 347.52814 330.14062 346.3094Q330.14062 345.15314 329.60938 344.5594Q329.09375 343.96564 328.3125 343.96564Q327.53125 343.96564 327.0 344.5594Q326.48438 345.1375 326.48438 346.34064ZM336.85938 347.16876L337.89062 347.3094Q337.71875 348.3719 337.01562 348.98126Q336.3125 349.59064 335.29688 349.59064Q334.01562 349.59064 333.23438 348.7625Q332.46875 347.91876 332.46875 346.35626Q332.46875 345.35626 332.79688 344.60626Q333.14062 343.84064 333.8125 343.46564Q334.5 343.09064 335.3125 343.09064Q336.3125 343.09064 336.95312 343.60626Q337.60938 344.10626 337.79688 345.0594L336.76562 345.21564Q336.625 344.59064 336.25 344.27814Q335.875 343.95 335.34375 343.95Q334.54688 343.95 334.04688 344.52814Q333.54688 345.09064 333.54688 346.325Q333.54688 347.59064 334.03125 348.15314Q334.51562 348.71564 335.28125 348.71564Q335.90625 348.71564 336.3125 348.34064Q336.73438 347.96564 336.85938 347.16876ZM343.04688 347.45L344.14062 347.575Q343.89062 348.52814 343.1875 349.0594Q342.48438 349.59064 341.40625 349.59064Q340.04688 349.59064 339.23438 348.7469Q338.4375 347.90314 338.4375 346.3875Q338.4375 344.825 339.25 343.96564Q340.0625 343.09064 341.34375 343.09064Q342.59375 343.09064 343.375 343.9344Q344.17188 344.77814 344.17188 346.325Q344.17188 346.41876 344.17188 346.60626L339.53125 346.60626Q339.59375 347.6375 340.10938 348.1844Q340.625 348.71564 341.40625 348.71564Q341.98438 348.71564 342.39062 348.41876Q342.8125 348.10626 343.04688 347.45ZM339.59375 345.7469L343.0625 345.7469Q343.0 344.95 342.67188 344.5594Q342.15625 343.95 341.35938 343.95Q340.625 343.95 340.125 344.4344Q339.64062 344.91876 339.59375 345.7469ZM345.375 347.59064L346.40625 347.4344Q346.5 348.0594 346.89062 348.3875Q347.29688 348.71564 348.03125 348.71564Q348.75 348.71564 349.09375 348.4344Q349.45312 348.1375 349.45312 347.73126Q349.45312 347.3719 349.14062 347.16876Q348.92188 347.02814 348.0625 346.8094Q346.90625 346.5125 346.45312 346.3094Q346.01562 346.09064 345.78125 345.71564Q345.54688 345.34064 345.54688 344.8719Q345.54688 344.46564 345.73438 344.10626Q345.92188 343.7469 346.25 343.5125Q346.5 343.34064 346.92188 343.21564Q347.34375 343.09064 347.84375 343.09064Q348.5625 343.09064 349.10938 343.3094Q349.67188 343.5125 349.9375 343.8719Q350.20312 344.23126 350.29688 344.825L349.26562 344.96564Q349.20312 344.4969 348.85938 344.23126Q348.53125 343.95 347.90625 343.95Q347.1875 343.95 346.875 344.2Q346.5625 344.4344 346.5625 344.7625Q346.5625 344.96564 346.6875 345.1219Q346.82812 345.29376 347.09375 345.40314Q347.25 345.46564 348.03125 345.66876Q349.15625 345.98126 349.59375 346.16876Q350.03125 346.35626 350.28125 346.71564Q350.53125 347.075 350.53125 347.6219Q350.53125 348.15314 350.21875 348.6219Q349.92188 349.075 349.34375 349.34064Q348.76562 349.59064 348.03125 349.59064Q346.8125 349.59064 346.17188 349.09064Q345.54688 348.575 345.375 347.59064ZM352.40625 346.34064Q352.40625 344.60626 353.35938 343.77814Q354.15625 343.09064 355.3125 343.09064Q356.59375 343.09064 357.40625 343.9344Q358.23438 344.7625 358.23438 346.2469Q358.23438 347.45 357.875 348.1375Q357.51562 348.825 356.8125 349.21564Q356.125 349.59064 355.3125 349.59064Q354.01562 349.59064 353.20312 348.7625Q352.40625 347.91876 352.40625 346.34064ZM353.48438 346.34064Q353.48438 347.52814 354.0 348.1219Q354.53125 348.71564 355.3125 348.71564Q356.10938 348.71564 356.625 348.1219Q357.14062 347.52814 357.14062 346.3094Q357.14062 345.15314 356.60938 344.5594Q356.09375 343.96564 355.3125 343.96564Q354.53125 343.96564 354.0 344.5594Q353.48438 345.1375 353.48438 346.34064Z" fill-rule="nonzero"/><path fill="#000000" d="M29.550013 199.07396L21.971888 199.07396L21.971888 201.90208L20.956263 201.90208L20.956263 195.08958L21.971888 195.08958L21.971888 197.93333L29.550013 197.93333L29.550013 199.07396ZM22.175013 194.38646L20.956263 194.38646L20.956263 193.32396L22.175013 193.32396L22.175013 194.38646ZM29.550013 194.38646L23.331263 194.38646L23.331263 193.32396L29.550013 193.32396L29.550013 194.38646ZM27.268763 187.32396L27.409388 186.29271Q28.471888 186.46458 29.081263 187.16771Q29.690638 187.87083 29.690638 188.88646Q29.690638 190.16771 28.862513 190.94896Q28.018763 191.71458 26.456263 191.71458Q25.456263 191.71458 24.706263 191.38646Q23.940638 191.04271 23.565638 190.37083Q23.190638 189.68333 23.190638 188.87083Q23.190638 187.87083 23.706263 187.23021Q24.206263 186.57396 25.159388 186.38646L25.315638 187.41771Q24.690638 187.55833 24.378138 187.93333Q24.050013 188.30833 24.050013 188.83958Q24.050013 189.63646 24.628138 190.13646Q25.190638 190.63646 26.425013 190.63646Q27.690638 190.63646 28.253138 190.15208Q28.815638 189.66771 28.815638 188.90208Q28.815638 188.27708 28.440638 187.87083Q28.065638 187.44896 27.268763 187.32396ZM29.550013 185.38646L20.956263 185.38646L20.956263 184.32396L25.862513 184.32396L23.331263 181.83958L23.331263 180.46458L25.628138 182.85521L29.550013 180.23021L29.550013 181.52708L26.362513 183.58958L27.081263 184.32396L29.550013 184.32396L29.550013 185.38646ZM27.690638 179.80833L27.534388 178.77708Q28.159388 178.68333 28.487513 178.29271Q28.815638 177.88646 28.815638 177.15208Q28.815638 176.43333 28.534388 176.08958Q28.237513 175.73021 27.831263 175.73021Q27.471888 175.73021 27.268763 176.04271Q27.128138 176.26146 26.909388 177.12083Q26.612513 178.27708 26.409388 178.73021Q26.190638 179.16771 25.815638 179.40208Q25.440638 179.63646 24.971888 179.63646Q24.565638 179.63646 24.206263 179.44896Q23.846888 179.26146 23.612513 178.93333Q23.440638 178.68333 23.315638 178.26146Q23.190638 177.83958 23.190638 177.33958Q23.190638 176.62083 23.409388 176.07396Q23.612513 175.51146 23.971888 175.24583Q24.331263 174.98021 24.925013 174.88646L25.065638 175.91771Q24.596888 175.98021 24.331263 176.32396Q24.050013 176.65208 24.050013 177.27708Q24.050013 177.99583 24.300013 178.30833Q24.534388 178.62083 24.862513 178.62083Q25.065638 178.62083 25.221888 178.49583Q25.393763 178.35521 25.503138 178.08958Q25.565638 177.93333 25.768763 177.15208Q26.081263 176.02708 26.268763 175.58958Q26.456263 175.15208 26.815638 174.90208Q27.175013 174.65208 27.721888 174.65208Q28.253138 174.65208 28.721888 174.96458Q29.175013 175.26146 29.440638 175.83958Q29.690638 176.41771 29.690638 177.15208Q29.690638 178.37083 29.190638 179.01146Q28.675013 179.63646 27.690638 179.80833Z" fill-rule="nonzero"/><path fill="#000000" d="M72.05 313.21564Q72.05 311.6844 72.3625 310.7625Q72.675 309.825 73.28438 309.325Q73.90938 308.825 74.84688 308.825Q75.53438 308.825 76.05 309.10626Q76.58125 309.3875 76.925 309.91876Q77.26875 310.4344 77.45625 311.1844Q77.64375 311.9344 77.64375 313.21564Q77.64375 314.73126 77.33125 315.65314Q77.03438 316.575 76.40938 317.09064Q75.8 317.59064 74.84688 317.59064Q73.6125 317.59064 72.89375 316.7Q72.05 315.6375 72.05 313.21564ZM73.12813 313.21564Q73.12813 315.325 73.62813 316.02814Q74.12813 316.73126 74.84688 316.73126Q75.58125 316.73126 76.06563 316.02814Q76.56563 315.325 76.56563 313.21564Q76.56563 311.09064 76.06563 310.40314Q75.58125 309.7 74.83125 309.7Q74.1125 309.7 73.675 310.3094Q73.12813 311.09064 73.12813 313.21564Z" fill-rule="nonzero"/><path fill="#000000" d="M55.01875 267.14334L53.971874 267.14334L53.971874 260.4246Q53.58125 260.78397 52.95625 261.15897Q52.346874 261.51834 51.8625 261.69022L51.8625 260.6746Q52.7375 260.25272 53.39375 259.6746Q54.065624 259.08084 54.346874 258.51834L55.01875 258.51834L55.01875 267.14334ZM58.05 262.90897Q58.05 261.37772 58.3625 260.45584Q58.675 259.51834 59.284374 259.01834Q59.909374 258.51834 60.846874 258.51834Q61.534374 258.51834 62.05 258.7996Q62.58125 259.08084 62.925 259.6121Q63.26875 260.12772 63.45625 260.87772Q63.64375 261.62772 63.64375 262.90897Q63.64375 264.4246 63.33125 265.34647Q63.034374 266.26834 62.409374 266.78397Q61.8 267.28397 60.846874 267.28397Q59.6125 267.28397 58.89375 266.39334Q58.05 265.33084 58.05 262.90897ZM59.128124 262.90897Q59.128124 265.01834 59.628124 265.72147Q60.128124 266.4246 60.846874 266.4246Q61.58125 266.4246 62.065624 265.72147Q62.565624 265.01834 62.565624 262.90897Q62.565624 260.78397 62.065624 260.09647Q61.58125 259.39334 60.83125 259.39334Q60.1125 259.39334 59.675 260.00272Q59.128124 260.78397 59.128124 262.90897ZM65.05 262.90897Q65.05 261.37772 65.3625 260.45584Q65.675 259.51834 66.28438 259.01834Q66.90938 258.51834 67.84688 258.51834Q68.53438 258.51834 69.05 258.7996Q69.58125 259.08084 69.925 259.6121Q70.26875 260.12772 70.45625 260.87772Q70.64375 261.62772 70.64375 262.90897Q70.64375 264.4246 70.33125 265.34647Q70.03438 266.26834 69.40938 266.78397Q68.8 267.28397 67.84688 267.28397Q66.6125 267.28397 65.89375 266.39334Q65.05 265.33084 65.05 262.90897ZM66.12813 262.90897Q66.12813 265.01834 66.62813 265.72147Q67.12813 266.4246 67.84688 266.4246Q68.58125 266.4246 69.06563 265.72147Q69.56563 265.01834 69.56563 262.90897Q69.56563 260.78397 69.06563 260.09647Q68.58125 259.39334 67.83125 259.39334Q67.1125 259.39334 66.675 260.00272Q66.12813 260.78397 66.12813 262.90897ZM72.05 262.90897Q72.05 261.37772 72.3625 260.45584Q72.675 259.51834 73.28438 259.01834Q73.90938 258.51834 74.84688 258.51834Q75.53438 258.51834 76.05 258.7996Q76.58125 259.08084 76.925 259.6121Q77.26875 260.12772 77.45625 260.87772Q77.64375 261.62772 77.64375 262.90897Q77.64375 264.4246 77.33125 265.34647Q77.03438 266.26834 76.40938 266.78397Q75.8 267.28397 74.84688 267.28397Q73.6125 267.28397 72.89375 266.39334Q72.05 265.33084 72.05 262.90897ZM73.12813 262.90897Q73.12813 265.01834 73.62813 265.72147Q74.12813 266.4246 74.84688 266.4246Q75.58125 266.4246 76.06563 265.72147Q76.56563 265.01834 76.56563 262.90897Q76.56563 260.78397 76.06563 260.09647Q75.58125 259.39334 74.83125 259.39334Q74.1125 259.39334 73.675 260.00272Q73.12813 260.78397 73.12813 262.90897Z" fill-rule="nonzero"/><path fill="#000000" d="M56.596874 215.82104L56.596874 216.83667L50.909374 216.83667Q50.909374 216.46167 51.034374 216.1023Q51.253124 215.52417 51.721874 214.96167Q52.20625 214.39917 53.1125 213.6648Q54.51875 212.50854 55.003124 211.83667Q55.503124 211.1648 55.503124 210.57104Q55.503124 209.94604 55.05 209.52417Q54.596874 209.08667 53.878124 209.08667Q53.1125 209.08667 52.659374 209.5398Q52.20625 209.99292 52.190624 210.80542L51.1125 210.69604Q51.221874 209.4773 51.940624 208.8523Q52.675 208.21167 53.909374 208.21167Q55.14375 208.21167 55.8625 208.89917Q56.58125 209.58667 56.58125 210.6023Q56.58125 211.11792 56.3625 211.61792Q56.159374 212.1023 55.659374 212.6648Q55.175 213.21167 54.05 214.1648Q53.096874 214.96167 52.815624 215.25854Q52.55 215.5398 52.378124 215.82104L56.596874 215.82104ZM58.05 212.6023Q58.05 211.07104 58.3625 210.14917Q58.675 209.21167 59.284374 208.71167Q59.909374 208.21167 60.846874 208.21167Q61.534374 208.21167 62.05 208.49292Q62.58125 208.77417 62.925 209.30542Q63.26875 209.82104 63.45625 210.57104Q63.64375 211.32104 63.64375 212.6023Q63.64375 214.11792 63.33125 215.0398Q63.034374 215.96167 62.409374 216.4773Q61.8 216.9773 60.846874 216.9773Q59.6125 216.9773 58.89375 216.08667Q58.05 215.02417 58.05 212.6023ZM59.128124 212.6023Q59.128124 214.71167 59.628124 215.4148Q60.128124 216.11792 60.846874 216.11792Q61.58125 216.11792 62.065624 215.4148Q62.565624 214.71167 62.565624 212.6023Q62.565624 210.4773 62.065624 209.7898Q61.58125 209.08667 60.83125 209.08667Q60.1125 209.08667 59.675 209.69604Q59.128124 210.4773 59.128124 212.6023ZM65.05 212.6023Q65.05 211.07104 65.3625 210.14917Q65.675 209.21167 66.28438 208.71167Q66.90938 208.21167 67.84688 208.21167Q68.53438 208.21167 69.05 208.49292Q69.58125 208.77417 69.925 209.30542Q70.26875 209.82104 70.45625 210.57104Q70.64375 211.32104 70.64375 212.6023Q70.64375 214.11792 70.33125 215.0398Q70.03438 215.96167 69.40938 216.4773Q68.8 216.9773 67.84688 216.9773Q66.6125 216.9773 65.89375 216.08667Q65.05 215.02417 65.05 212.6023ZM66.12813 212.6023Q66.12813 214.71167 66.62813 215.4148Q67.12813 216.11792 67.84688 216.11792Q68.58125 216.11792 69.06563 215.4148Q69.56563 214.71167 69.56563 212.6023Q69.56563 210.4773 69.06563 209.7898Q68.58125 209.08667 67.83125 209.08667Q67.1125 209.08667 66.675 209.69604Q66.12813 210.4773 66.12813 212.6023ZM72.05 212.6023Q72.05 211.07104 72.3625 210.14917Q72.675 209.21167 73.28438 208.71167Q73.90938 208.21167 74.84688 208.21167Q75.53438 208.21167 76.05 208.49292Q76.58125 208.77417 76.925 209.30542Q77.26875 209.82104 77.45625 210.57104Q77.64375 211.32104 77.64375 212.6023Q77.64375 214.11792 77.33125 215.0398Q77.03438 215.96167 76.40938 216.4773Q75.8 216.9773 74.84688 216.9773Q73.6125 216.9773 72.89375 216.08667Q72.05 215.02417 72.05 212.6023ZM73.12813 212.6023Q73.12813 214.71167 73.62813 215.4148Q74.12813 216.11792 74.84688 216.11792Q75.58125 216.11792 76.06563 215.4148Q76.56563 214.71167 76.56563 212.6023Q76.56563 210.4773 76.06563 209.7898Q75.58125 209.08667 74.83125 209.08667Q74.1125 209.08667 73.675 209.69604Q73.12813 210.4773 73.12813 212.6023Z" fill-rule="nonzero"/><path fill="#000000" d="M51.05 164.26437L52.1125 164.12375Q52.284374 165.01437 52.721874 165.42062Q53.159374 165.81125 53.784374 165.81125Q54.534374 165.81125 55.05 165.29562Q55.565624 164.78 55.565624 164.01437Q55.565624 163.29562 55.08125 162.82687Q54.6125 162.3425 53.878124 162.3425Q53.58125 162.3425 53.128124 162.4675L53.253124 161.53Q53.3625 161.54562 53.425 161.54562Q54.096874 161.54562 54.628124 161.20187Q55.175 160.8425 55.175 160.10812Q55.175 159.53 54.784374 159.155Q54.39375 158.76437 53.76875 158.76437Q53.159374 158.76437 52.7375 159.155Q52.33125 159.54562 52.221874 160.31125L51.159374 160.12375Q51.346874 159.07687 52.034374 158.49875Q52.721874 157.905 53.7375 157.905Q54.440624 157.905 55.034374 158.2175Q55.628124 158.51437 55.940624 159.03Q56.253124 159.54562 56.253124 160.13937Q56.253124 160.68625 55.95625 161.155Q55.659374 161.60812 55.08125 161.87375Q55.83125 162.04562 56.253124 162.60812Q56.675 163.155 56.675 163.99875Q56.675 165.12375 55.846874 165.905Q55.034374 166.68625 53.784374 166.68625Q52.659374 166.68625 51.909374 166.01437Q51.159374 165.32687 51.05 164.26437ZM58.05 162.29562Q58.05 160.76437 58.3625 159.8425Q58.675 158.905 59.284374 158.405Q59.909374 157.905 60.846874 157.905Q61.534374 157.905 62.05 158.18625Q62.58125 158.4675 62.925 158.99875Q63.26875 159.51437 63.45625 160.26437Q63.64375 161.01437 63.64375 162.29562Q63.64375 163.81125 63.33125 164.73312Q63.034374 165.655 62.409374 166.17062Q61.8 166.67062 60.846874 166.67062Q59.6125 166.67062 58.89375 165.78Q58.05 164.7175 58.05 162.29562ZM59.128124 162.29562Q59.128124 164.405 59.628124 165.10812Q60.128124 165.81125 60.846874 165.81125Q61.58125 165.81125 62.065624 165.10812Q62.565624 164.405 62.565624 162.29562Q62.565624 160.17062 62.065624 159.48312Q61.58125 158.78 60.83125 158.78Q60.1125 158.78 59.675 159.38937Q59.128124 160.17062 59.128124 162.29562ZM65.05 162.29562Q65.05 160.76437 65.3625 159.8425Q65.675 158.905 66.28438 158.405Q66.90938 157.905 67.84688 157.905Q68.53438 157.905 69.05 158.18625Q69.58125 158.4675 69.925 158.99875Q70.26875 159.51437 70.45625 160.26437Q70.64375 161.01437 70.64375 162.29562Q70.64375 163.81125 70.33125 164.73312Q70.03438 165.655 69.40938 166.17062Q68.8 166.67062 67.84688 166.67062Q66.6125 166.67062 65.89375 165.78Q65.05 164.7175 65.05 162.29562ZM66.12813 162.29562Q66.12813 164.405 66.62813 165.10812Q67.12813 165.81125 67.84688 165.81125Q68.58125 165.81125 69.06563 165.10812Q69.56563 164.405 69.56563 162.29562Q69.56563 160.17062 69.06563 159.48312Q68.58125 158.78 67.83125 158.78Q67.1125 158.78 66.675 159.38937Q66.12813 160.17062 66.12813 162.29562ZM72.05 162.29562Q72.05 160.76437 72.3625 159.8425Q72.675 158.905 73.28438 158.405Q73.90938 157.905 74.84688 157.905Q75.53438 157.905 76.05 158.18625Q76.58125 158.4675 76.925 158.99875Q77.26875 159.51437 77.45625 160.26437Q77.64375 161.01437 77.64375 162.29562Q77.64375 163.81125 77.33125 164.73312Q77.03438 165.655 76.40938 166.17062Q75.8 166.67062 74.84688 166.67062Q73.6125 166.67062 72.89375 165.78Q72.05 164.7175 72.05 162.29562ZM73.12813 162.29562Q73.12813 164.405 73.62813 165.10812Q74.12813 165.81125 74.84688 165.81125Q75.58125 165.81125 76.06563 165.10812Q76.56563 164.405 76.56563 162.29562Q76.56563 160.17062 76.06563 159.48312Q75.58125 158.78 74.83125 158.78Q74.1125 158.78 73.675 159.38937Q73.12813 160.17062 73.12813 162.29562Z" fill-rule="nonzero"/><path fill="#000000" d="M54.425 116.223335L54.425 114.160835L50.70625 114.160835L50.70625 113.192085L54.628124 107.629585L55.4875 107.629585L55.4875 113.192085L56.64375 113.192085L56.64375 114.160835L55.4875 114.160835L55.4875 116.223335L54.425 116.223335ZM54.425 113.192085L54.425 109.33271L51.7375 113.192085L54.425 113.192085ZM58.05 111.98896Q58.05 110.45771 58.3625 109.535835Q58.675 108.598335 59.284374 108.098335Q59.909374 107.598335 60.846874 107.598335Q61.534374 107.598335 62.05 107.879585Q62.58125 108.160835 62.925 108.692085Q63.26875 109.20771 63.45625 109.95771Q63.64375 110.70771 63.64375 111.98896Q63.64375 113.504585 63.33125 114.42646Q63.034374 115.348335 62.409374 115.86396Q61.8 116.36396 60.846874 116.36396Q59.6125 116.36396 58.89375 115.473335Q58.05 114.410835 58.05 111.98896ZM59.128124 111.98896Q59.128124 114.098335 59.628124 114.80146Q60.128124 115.504585 60.846874 115.504585Q61.58125 115.504585 62.065624 114.80146Q62.565624 114.098335 62.565624 111.98896Q62.565624 109.86396 62.065624 109.17646Q61.58125 108.473335 60.83125 108.473335Q60.1125 108.473335 59.675 109.08271Q59.128124 109.86396 59.128124 111.98896ZM65.05 111.98896Q65.05 110.45771 65.3625 109.535835Q65.675 108.598335 66.28438 108.098335Q66.90938 107.598335 67.84688 107.598335Q68.53438 107.598335 69.05 107.879585Q69.58125 108.160835 69.925 108.692085Q70.26875 109.20771 70.45625 109.95771Q70.64375 110.70771 70.64375 111.98896Q70.64375 113.504585 70.33125 114.42646Q70.03438 115.348335 69.40938 115.86396Q68.8 116.36396 67.84688 116.36396Q66.6125 116.36396 65.89375 115.473335Q65.05 114.410835 65.05 111.98896ZM66.12813 111.98896Q66.12813 114.098335 66.62813 114.80146Q67.12813 115.504585 67.84688 115.504585Q68.58125 115.504585 69.06563 114.80146Q69.56563 114.098335 69.56563 111.98896Q69.56563 109.86396 69.06563 109.17646Q68.58125 108.473335 67.83125 108.473335Q67.1125 108.473335 66.675 109.08271Q66.12813 109.86396 66.12813 111.98896ZM72.05 111.98896Q72.05 110.45771 72.3625 109.535835Q72.675 108.598335 73.28438 108.098335Q73.90938 107.598335 74.84688 107.598335Q75.53438 107.598335 76.05 107.879585Q76.58125 108.160835 76.925 108.692085Q77.26875 109.20771 77.45625 109.95771Q77.64375 110.70771 77.64375 111.98896Q77.64375 113.504585 77.33125 114.42646Q77.03438 115.348335 76.40938 115.86396Q75.8 116.36396 74.84688 116.36396Q73.6125 116.36396 72.89375 115.473335Q72.05 114.410835 72.05 111.98896ZM73.12813 111.98896Q73.12813 114.098335 73.62813 114.80146Q74.12813 115.504585 74.84688 115.504585Q75.58125 115.504585 76.06563 114.80146Q76.56563 114.098335 76.56563 111.98896Q76.56563 109.86396 76.06563 109.17646Q75.58125 108.473335 74.83125 108.473335Q74.1125 108.473335 73.675 109.08271Q73.12813 109.86396 73.12813 111.98896Z" fill-rule="nonzero"/><path fill="#000000" d="M51.05 63.666664L52.159374 63.572914Q52.284374 64.385414 52.721874 64.791664Q53.175 65.197914 53.815624 65.197914Q54.565624 65.197914 55.096874 64.61979Q55.628124 64.041664 55.628124 63.104164Q55.628124 62.197914 55.1125 61.68229Q54.6125 61.15104 53.784374 61.15104Q53.284374 61.15104 52.8625 61.385414Q52.45625 61.61979 52.221874 61.979164L51.2375 61.854164L52.065624 57.447914L56.346874 57.447914L56.346874 58.447914L52.909374 58.447914L52.45625 60.760414Q53.221874 60.21354 54.065624 60.21354Q55.190624 60.21354 55.95625 60.99479Q56.7375 61.77604 56.7375 63.010414Q56.7375 64.166664 56.065624 65.02604Q55.2375 66.05729 53.815624 66.05729Q52.64375 66.05729 51.89375 65.40104Q51.159374 64.74479 51.05 63.666664ZM58.05 61.68229Q58.05 60.15104 58.3625 59.229164Q58.675 58.291664 59.284374 57.791664Q59.909374 57.291664 60.846874 57.291664Q61.534374 57.291664 62.05 57.572914Q62.58125 57.854164 62.925 58.385414Q63.26875 58.90104 63.45625 59.65104Q63.64375 60.40104 63.64375 61.68229Q63.64375 63.197914 63.33125 64.11979Q63.034374 65.041664 62.409374 65.55729Q61.8 66.05729 60.846874 66.05729Q59.6125 66.05729 58.89375 65.166664Q58.05 64.104164 58.05 61.68229ZM59.128124 61.68229Q59.128124 63.791664 59.628124 64.49479Q60.128124 65.197914 60.846874 65.197914Q61.58125 65.197914 62.065624 64.49479Q62.565624 63.791664 62.565624 61.68229Q62.565624 59.55729 62.065624 58.86979Q61.58125 58.166664 60.83125 58.166664Q60.1125 58.166664 59.675 58.77604Q59.128124 59.55729 59.128124 61.68229ZM65.05 61.68229Q65.05 60.15104 65.3625 59.229164Q65.675 58.291664 66.28438 57.791664Q66.90938 57.291664 67.84688 57.291664Q68.53438 57.291664 69.05 57.572914Q69.58125 57.854164 69.925 58.385414Q70.26875 58.90104 70.45625 59.65104Q70.64375 60.40104 70.64375 61.68229Q70.64375 63.197914 70.33125 64.11979Q70.03438 65.041664 69.40938 65.55729Q68.8 66.05729 67.84688 66.05729Q66.6125 66.05729 65.89375 65.166664Q65.05 64.104164 65.05 61.68229ZM66.12813 61.68229Q66.12813 63.791664 66.62813 64.49479Q67.12813 65.197914 67.84688 65.197914Q68.58125 65.197914 69.06563 64.49479Q69.56563 63.791664 69.56563 61.68229Q69.56563 59.55729 69.06563 58.86979Q68.58125 58.166664 67.83125 58.166664Q67.1125 58.166664 66.675 58.77604Q66.12813 59.55729 66.12813 61.68229ZM72.05 61.68229Q72.05 60.15104 72.3625 59.229164Q72.675 58.291664 73.28438 57.791664Q73.90938 57.291664 74.84688 57.291664Q75.53438 57.291664 76.05 57.572914Q76.58125 57.854164 76.925 58.385414Q77.26875 58.90104 77.45625 59.65104Q77.64375 60.40104 77.64375 61.68229Q77.64375 63.197914 77.33125 64.11979Q77.03438 65.041664 76.40938 65.55729Q75.8 66.05729 74.84688 66.05729Q73.6125 66.05729 72.89375 65.166664Q72.05 64.104164 72.05 61.68229ZM73.12813 61.68229Q73.12813 63.791664 73.62813 64.49479Q74.12813 65.197914 74.84688 65.197914Q75.58125 65.197914 76.06563 64.49479Q76.56563 63.791664 76.56563 61.68229Q76.56563 59.55729 76.06563 58.86979Q75.58125 58.166664 74.83125 58.166664Q74.1125 58.166664 73.675 58.77604Q73.12813 59.55729 73.12813 61.68229Z" fill-rule="nonzero"/><path fill="#757575" d="M23.7375 37.55L23.7375 24.925L19.01875 24.925L19.01875 23.2375L30.3625 23.2375L30.3625 24.925L25.628124 24.925L25.628124 37.55L23.7375 37.55ZM31.878124 25.253124L31.878124 23.2375L33.64375 23.2375L33.64375 25.253124L31.878124 25.253124ZM31.878124 37.55L31.878124 27.175L33.64375 27.175L33.64375 37.55L31.878124 37.55ZM42.64375 33.753124L44.3625 33.971874Q44.08125 35.76875 42.909374 36.784374Q41.753124 37.784374 40.05 37.784374Q37.925 37.784374 36.628124 36.39375Q35.33125 35.003124 35.33125 32.409374Q35.33125 30.721874 35.878124 29.471874Q36.440624 28.20625 37.58125 27.58125Q38.721874 26.940624 40.065624 26.940624Q41.753124 26.940624 42.815624 27.8Q43.89375 28.659374 44.20625 30.221874L42.4875 30.4875Q42.253124 29.440624 41.628124 28.925Q41.003124 28.39375 40.128124 28.39375Q38.8 28.39375 37.971874 29.346874Q37.14375 30.3 37.14375 32.346874Q37.14375 34.440624 37.940624 35.39375Q38.7375 36.33125 40.034374 36.33125Q41.065624 36.33125 41.753124 35.70625Q42.45625 35.065624 42.64375 33.753124ZM45.878124 37.55L45.878124 23.2375L47.64375 23.2375L47.64375 31.39375L51.8 27.175L54.065624 27.175L50.1125 31.01875L54.471874 37.55L52.3 37.55L48.878124 32.253124L47.64375 33.440624L47.64375 37.55L45.878124 37.55ZM55.159374 34.45625L56.909374 34.175Q57.05 35.221874 57.721874 35.784374Q58.39375 36.33125 59.596874 36.33125Q60.8 36.33125 61.378124 35.846874Q61.971874 35.346874 61.971874 34.690624Q61.971874 34.096874 61.45625 33.753124Q61.096874 33.51875 59.659374 33.159374Q57.721874 32.659374 56.971874 32.315624Q56.2375 31.95625 55.846874 31.33125Q55.45625 30.690624 55.45625 29.925Q55.45625 29.2375 55.76875 28.64375Q56.096874 28.05 56.64375 27.659374Q57.05 27.3625 57.753124 27.159374Q58.471874 26.940624 59.284374 26.940624Q60.503124 26.940624 61.425 27.3Q62.346874 27.64375 62.784374 28.253124Q63.221874 28.846874 63.39375 29.846874L61.675 30.08125Q61.55 29.284374 60.9875 28.846874Q60.425 28.39375 59.409374 28.39375Q58.190624 28.39375 57.675 28.8Q57.159374 29.190624 57.159374 29.721874Q57.159374 30.065624 57.378124 30.346874Q57.58125 30.628124 58.05 30.815624Q58.315624 30.909374 59.596874 31.253124Q61.471874 31.753124 62.20625 32.08125Q62.940624 32.39375 63.3625 33.003124Q63.784374 33.596874 63.784374 34.503124Q63.784374 35.378124 63.26875 36.159374Q62.753124 36.940624 61.784374 37.3625Q60.815624 37.784374 59.596874 37.784374Q57.58125 37.784374 56.51875 36.940624Q55.45625 36.096874 55.159374 34.45625ZM78.64375 33.753124L80.3625 33.971874Q80.08125 35.76875 78.90938 36.784374Q77.75313 37.784374 76.05 37.784374Q73.925 37.784374 72.62813 36.39375Q71.33125 35.003124 71.33125 32.409374Q71.33125 30.721874 71.87813 29.471874Q72.44063 28.20625 73.58125 27.58125Q74.72188 26.940624 76.06563 26.940624Q77.75313 26.940624 78.81563 27.8Q79.89375 28.659374 80.20625 30.221874L78.4875 30.4875Q78.25313 29.440624 77.62813 28.925Q77.00313 28.39375 76.12813 28.39375Q74.8 28.39375 73.97188 29.346874Q73.14375 30.3 73.14375 32.346874Q73.14375 34.440624 73.94063 35.39375Q74.7375 36.33125 76.03438 36.33125Q77.06563 36.33125 77.75313 35.70625Q78.45625 35.065624 78.64375 33.753124ZM81.22188 32.3625Q81.22188 29.4875 82.81563 28.096874Q84.15938 26.940624 86.08125 26.940624Q88.22188 26.940624 89.56563 28.346874Q90.925 29.753124 90.925 32.221874Q90.925 34.221874 90.33125 35.378124Q89.7375 36.51875 88.58125 37.159374Q87.44063 37.784374 86.08125 37.784374Q83.89375 37.784374 82.55 36.39375Q81.22188 34.9875 81.22188 32.3625ZM83.01875 32.3625Q83.01875 34.3625 83.87813 35.346874Q84.75313 36.33125 86.08125 36.33125Q87.39375 36.33125 88.25313 35.346874Q89.12813 34.346874 89.12813 32.3Q89.12813 30.378124 88.25313 29.39375Q87.37813 28.39375 86.08125 28.39375Q84.75313 28.39375 83.87813 29.39375Q83.01875 30.378124 83.01875 32.3625ZM92.8625 37.55L92.8625 27.175L94.45625 27.175L94.45625 28.659374Q95.59688 26.940624 97.75313 26.940624Q98.69063 26.940624 99.47188 27.284374Q100.26875 27.6125 100.65938 28.159374Q101.05 28.70625 101.20625 29.45625Q101.3 29.95625 101.3 31.175L101.3 37.55L99.53438 37.55L99.53438 31.2375Q99.53438 30.159374 99.33125 29.628124Q99.12813 29.096874 98.59688 28.784374Q98.08125 28.471874 97.37813 28.471874Q96.25313 28.471874 95.44063 29.190624Q94.62813 29.89375 94.62813 31.878124L94.62813 37.55L92.8625 37.55ZM102.15938 34.45625L103.90938 34.175Q104.05 35.221874 104.72188 35.784374Q105.39375 36.33125 106.59688 36.33125Q107.8 36.33125 108.37813 35.846874Q108.97188 35.346874 108.97188 34.690624Q108.97188 34.096874 108.45625 33.753124Q108.09688 33.51875 106.65938 33.159374Q104.72188 32.659374 103.97188 32.315624Q103.2375 31.95625 102.84688 31.33125Q102.45625 30.690624 102.45625 29.925Q102.45625 29.2375 102.76875 28.64375Q103.09688 28.05 103.64375 27.659374Q104.05 27.3625 104.75313 27.159374Q105.47188 26.940624 106.28438 26.940624Q107.50313 26.940624 108.425 27.3Q109.34688 27.64375 109.78438 28.253124Q110.22188 28.846874 110.39375 29.846874L108.675 30.08125Q108.55 29.284374 107.9875 28.846874Q107.425 28.39375 106.40938 28.39375Q105.19063 28.39375 104.675 28.8Q104.15938 29.190624 104.15938 29.721874Q104.15938 30.065624 104.37813 30.346874Q104.58125 30.628124 105.05 30.815624Q105.31563 30.909374 106.59688 31.253124Q108.47188 31.753124 109.20625 32.08125Q109.94063 32.39375 110.3625 33.003124Q110.78438 33.596874 110.78438 34.503124Q110.78438 35.378124 110.26875 36.159374Q109.75313 36.940624 108.78438 37.3625Q107.81563 37.784374 106.59688 37.784374Q104.58125 37.784374 103.51875 36.940624Q102.45625 36.096874 102.15938 34.45625ZM119.65938 37.55L119.65938 36.01875Q118.45625 37.784374 116.37813 37.784374Q115.45625 37.784374 114.65938 37.440624Q113.8625 37.08125 113.47188 36.55Q113.09688 36.01875 112.94063 35.2375Q112.83125 34.721874 112.83125 33.596874L112.83125 27.175L114.58125 27.175L114.58125 32.925Q114.58125 34.3 114.69063 34.784374Q114.8625 35.471874 115.39375 35.878124Q115.94063 36.26875 116.72188 36.26875Q117.51875 36.26875 118.20625 35.8625Q118.90938 35.45625 119.19063 34.76875Q119.4875 34.065624 119.4875 32.7375L119.4875 27.175L121.2375 27.175L121.2375 37.55L119.65938 37.55ZM122.8625 37.55L122.8625 27.175L124.44063 27.175L124.44063 28.628124Q124.925 27.878124 125.7375 27.409374Q126.55 26.940624 127.58125 26.940624Q128.7375 26.940624 129.47188 27.425Q130.20625 27.89375 130.51875 28.753124Q131.75313 26.940624 133.72188 26.940624Q135.26875 26.940624 136.09688 27.8Q136.925 28.659374 136.925 30.425L136.925 37.55L135.175 37.55L135.175 31.01875Q135.175 29.95625 135.00313 29.503124Q134.83125 29.034374 134.37813 28.753124Q133.94063 28.471874 133.33125 28.471874Q132.2375 28.471874 131.50313 29.20625Q130.78438 29.925 130.78438 31.51875L130.78438 37.55L129.03438 37.55L129.03438 30.815624Q129.03438 29.64375 128.59688 29.065624Q128.175 28.471874 127.19063 28.471874Q126.45625 28.471874 125.81563 28.8625Q125.19063 29.253124 124.90938 30.003124Q124.62813 30.753124 124.62813 32.175L124.62813 37.55L122.8625 37.55ZM138.87813 25.253124L138.87813 23.2375L140.64375 23.2375L140.64375 25.253124L138.87813 25.253124ZM138.87813 37.55L138.87813 27.175L140.64375 27.175L140.64375 37.55L138.87813 37.55ZM149.59688 37.55L149.59688 36.2375Q148.6125 37.784374 146.69063 37.784374Q145.45625 37.784374 144.40938 37.096874Q143.37813 36.409374 142.8 35.190624Q142.2375 33.971874 142.2375 32.378124Q142.2375 30.815624 142.75313 29.55Q143.26875 28.284374 144.3 27.6125Q145.34688 26.940624 146.6125 26.940624Q147.55 26.940624 148.28438 27.346874Q149.01875 27.7375 149.4875 28.3625L149.4875 23.2375L151.22188 23.2375L151.22188 37.55L149.59688 37.55ZM144.03438 32.378124Q144.03438 34.3625 144.87813 35.346874Q145.72188 36.33125 146.8625 36.33125Q148.01875 36.33125 148.81563 35.39375Q149.62813 34.45625 149.62813 32.51875Q149.62813 30.39375 148.8 29.39375Q147.9875 28.39375 146.78438 28.39375Q145.6125 28.39375 144.81563 29.3625Q144.03438 30.315624 144.03438 32.378124ZM153.22188 32.3625Q153.22188 29.4875 154.81563 28.096874Q156.15938 26.940624 158.08125 26.940624Q160.22188 26.940624 161.56563 28.346874Q162.925 29.753124 162.925 32.221874Q162.925 34.221874 162.33125 35.378124Q161.7375 36.51875 160.58125 37.159374Q159.44063 37.784374 158.08125 37.784374Q155.89375 37.784374 154.55 36.39375Q153.22188 34.9875 153.22188 32.3625ZM155.01875 32.3625Q155.01875 34.3625 155.87813 35.346874Q156.75313 36.33125 158.08125 36.33125Q159.39375 36.33125 160.25313 35.346874Q161.12813 34.346874 161.12813 32.3Q161.12813 30.378124 160.25313 29.39375Q159.37813 28.39375 158.08125 28.39375Q156.75313 28.39375 155.87813 29.39375Q155.01875 30.378124 155.01875 32.3625ZM164.15938 34.45625L165.90938 34.175Q166.05 35.221874 166.72188 35.784374Q167.39375 36.33125 168.59688 36.33125Q169.8 36.33125 170.37813 35.846874Q170.97188 35.346874 170.97188 34.690624Q170.97188 34.096874 170.45625 33.753124Q170.09688 33.51875 168.65938 33.159374Q166.72188 32.659374 165.97188 32.315624Q165.2375 31.95625 164.84688 31.33125Q164.45625 30.690624 164.45625 29.925Q164.45625 29.2375 164.76875 28.64375Q165.09688 28.05 165.64375 27.659374Q166.05 27.3625 166.75313 27.159374Q167.47188 26.940624 168.28438 26.940624Q169.50313 26.940624 170.425 27.3Q171.34688 27.64375 171.78438 28.253124Q172.22188 28.846874 172.39375 29.846874L170.675 30.08125Q170.55 29.284374 169.9875 28.846874Q169.425 28.39375 168.40938 28.39375Q167.19063 28.39375 166.675 28.8Q166.15938 29.190624 166.15938 29.721874Q166.15938 30.065624 166.37813 30.346874Q166.58125 30.628124 167.05 30.815624Q167.31563 30.909374 168.59688 31.253124Q170.47188 31.753124 171.20625 32.08125Q171.94063 32.39375 172.3625 33.003124Q172.78438 33.596874 172.78438 34.503124Q172.78438 35.378124 172.26875 36.159374Q171.75313 36.940624 170.78438 37.3625Q169.81563 37.784374 168.59688 37.784374Q166.58125 37.784374 165.51875 36.940624Q164.45625 36.096874 164.15938 34.45625ZM180.19063 33.253124L180.19063 31.4875L185.58125 31.4875L185.58125 33.253124L180.19063 33.253124ZM200.00313 37.55L198.2375 37.55L198.2375 26.346874Q197.6125 26.95625 196.58125 27.565624Q195.55 28.159374 194.72188 28.471874L194.72188 26.76875Q196.20625 26.08125 197.3 25.096874Q198.40938 24.096874 198.8625 23.175L200.00313 23.175L200.00313 37.55ZM210.87813 25.253124L210.87813 23.2375L212.64375 23.2375L212.64375 25.253124L210.87813 25.253124ZM210.87813 37.55L210.87813 27.175L212.64375 27.175L212.64375 37.55L210.87813 37.55ZM214.22188 32.3625Q214.22188 29.4875 215.81563 28.096874Q217.15938 26.940624 219.08125 26.940624Q221.22188 26.940624 222.56563 28.346874Q223.925 29.753124 223.925 32.221874Q223.925 34.221874 223.33125 35.378124Q222.7375 36.51875 221.58125 37.159374Q220.44063 37.784374 219.08125 37.784374Q216.89375 37.784374 215.55 36.39375Q214.22188 34.9875 214.22188 32.3625ZM216.01875 32.3625Q216.01875 34.3625 216.87813 35.346874Q217.75313 36.33125 219.08125 36.33125Q220.39375 36.33125 221.25313 35.346874Q222.12813 34.346874 222.12813 32.3Q222.12813 30.378124 221.25313 29.39375Q220.37813 28.39375 219.08125 28.39375Q217.75313 28.39375 216.87813 29.39375Q216.01875 30.378124 216.01875 32.3625ZM227.4875 37.55L225.8625 37.55L225.8625 23.2375L227.6125 23.2375L227.6125 28.346874Q228.7375 26.940624 230.45625 26.940624Q231.40938 26.940624 232.26875 27.33125Q233.12813 27.721874 233.675 28.425Q234.22188 29.1125 234.53438 30.096874Q234.84688 31.08125 234.84688 32.20625Q234.84688 34.878124 233.53438 36.33125Q232.22188 37.784374 230.37813 37.784374Q228.53438 37.784374 227.4875 36.253124L227.4875 37.55ZM227.47188 32.284374Q227.47188 34.14375 227.97188 34.9875Q228.81563 36.33125 230.22188 36.33125Q231.37813 36.33125 232.20625 35.33125Q233.05 34.33125 233.05 32.346874Q233.05 30.315624 232.2375 29.3625Q231.44063 28.39375 230.3 28.39375Q229.14375 28.39375 228.3 29.39375Q227.47188 30.39375 227.47188 32.284374ZM243.97188 34.20625L245.78438 34.440624Q245.3625 36.01875 244.19063 36.909374Q243.03438 37.784374 241.22188 37.784374Q238.95625 37.784374 237.6125 36.39375Q236.28438 34.9875 236.28438 32.45625Q236.28438 29.83125 237.62813 28.39375Q238.97188 26.940624 241.12813 26.940624Q243.20625 26.940624 244.51875 28.3625Q245.84688 29.76875 245.84688 32.346874Q245.84688 32.503124 245.83125 32.815624L238.09688 32.815624Q238.19063 34.51875 239.06563 35.425Q239.94063 36.33125 241.2375 36.33125Q242.20625 36.33125 242.87813 35.83125Q243.56563 35.315624 243.97188 34.20625ZM238.19063 31.3625L243.9875 31.3625Q243.87813 30.065624 243.33125 29.409374Q242.4875 28.39375 241.14375 28.39375Q239.94063 28.39375 239.1125 29.20625Q238.28438 30.003124 238.19063 31.3625ZM247.8625 37.55L247.8625 27.175L249.45625 27.175L249.45625 28.659374Q250.59688 26.940624 252.75313 26.940624Q253.69063 26.940624 254.47188 27.284374Q255.26875 27.6125 255.65938 28.159374Q256.05 28.70625 256.20624 29.45625Q256.3 29.95625 256.3 31.175L256.3 37.55L254.53438 37.55L254.53438 31.2375Q254.53438 30.159374 254.33125 29.628124Q254.12813 29.096874 253.59688 28.784374Q253.08125 28.471874 252.37813 28.471874Q251.25313 28.471874 250.44063 29.190624Q249.62813 29.89375 249.62813 31.878124L249.62813 37.55L247.8625 37.55ZM264.64374 33.753124L266.3625 33.971874Q266.08124 35.76875 264.90936 36.784374Q263.7531 37.784374 262.05 37.784374Q259.925 37.784374 258.6281 36.39375Q257.33124 35.003124 257.33124 32.409374Q257.33124 30.721874 257.8781 29.471874Q258.4406 28.20625 259.58124 27.58125Q260.72186 26.940624 262.0656 26.940624Q263.7531 26.940624 264.8156 27.8Q265.89374 28.659374 266.20624 30.221874L264.4875 30.4875Q264.2531 29.440624 263.6281 28.925Q263.0031 28.39375 262.1281 28.39375Q260.8 28.39375 259.97186 29.346874Q259.14374 30.3 259.14374 32.346874Q259.14374 34.440624 259.9406 35.39375Q260.7375 36.33125 262.03436 36.33125Q263.0656 36.33125 263.7531 35.70625Q264.45624 35.065624 264.64374 33.753124ZM267.8625 37.55L267.8625 23.2375L269.6281 23.2375L269.6281 28.3625Q270.8625 26.940624 272.7375 26.940624Q273.8781 26.940624 274.72186 27.39375Q275.58124 27.846874 275.9406 28.659374Q276.3156 29.45625 276.3156 30.971874L276.3156 37.55L274.5656 37.55L274.5656 30.971874Q274.5656 29.659374 273.9875 29.065624Q273.40936 28.45625 272.3781 28.45625Q271.59686 28.45625 270.89374 28.8625Q270.20624 29.26875 269.90936 29.971874Q269.6281 30.659374 269.6281 31.878124L269.6281 37.55L267.8625 37.55ZM283.78436 41.55L283.59686 39.89375Q284.175 40.05 284.59686 40.05Q285.1906 40.05 285.53436 39.846874Q285.89374 39.659374 286.1125 39.315624Q286.28436 39.05 286.65936 38.003124Q286.70624 37.846874 286.8156 37.565624L282.8781 27.175L284.76874 27.175L286.925 33.190624Q287.34686 34.33125 287.675 35.58125Q287.9875 34.378124 288.39374 33.221874L290.6125 27.175L292.3781 27.175L288.425 37.721874Q287.8 39.440624 287.4406 40.08125Q286.97186 40.95625 286.3625 41.346874Q285.76874 41.753124 284.925 41.753124Q284.40936 41.753124 283.78436 41.55ZM299.39374 33.76875L301.14374 33.534374Q301.45624 35.034374 302.175 35.690624Q302.90936 36.346874 303.95624 36.346874Q305.1906 36.346874 306.03436 35.4875Q306.89374 34.628124 306.89374 33.3625Q306.89374 32.14375 306.09686 31.3625Q305.3156 30.58125 304.09686 30.58125Q303.59686 30.58125 302.8625 30.76875L303.05 29.221874Q303.22186 29.253124 303.33124 29.253124Q304.45624 29.253124 305.34686 28.675Q306.2531 28.08125 306.2531 26.8625Q306.2531 25.89375 305.59686 25.253124Q304.9406 24.6125 303.90936 24.6125Q302.89374 24.6125 302.20624 25.26875Q301.51874 25.909374 301.33124 27.190624L299.5656 26.878124Q299.89374 25.1125 301.03436 24.14375Q302.175 23.175 303.8781 23.175Q305.05 23.175 306.03436 23.675Q307.01874 24.175 307.53436 25.05Q308.0656 25.925 308.0656 26.89375Q308.0656 27.815624 307.5656 28.58125Q307.0656 29.346874 306.09686 29.8Q307.3625 30.08125 308.0656 31.01875Q308.76874 31.940624 308.76874 33.315624Q308.76874 35.190624 307.39374 36.503124Q306.03436 37.8 303.9406 37.8Q302.05 37.8 300.8 36.675Q299.5656 35.55 299.39374 33.76875ZM323.64374 33.753124L325.3625 33.971874Q325.08124 35.76875 323.90936 36.784374Q322.7531 37.784374 321.05 37.784374Q318.925 37.784374 317.6281 36.39375Q316.33124 35.003124 316.33124 32.409374Q316.33124 30.721874 316.8781 29.471874Q317.4406 28.20625 318.58124 27.58125Q319.72186 26.940624 321.0656 26.940624Q322.7531 26.940624 323.8156 27.8Q324.89374 28.659374 325.20624 30.221874L323.4875 30.4875Q323.2531 29.440624 322.6281 28.925Q322.0031 28.39375 321.1281 28.39375Q319.8 28.39375 318.97186 29.346874Q318.14374 30.3 318.14374 32.346874Q318.14374 34.440624 318.9406 35.39375Q319.7375 36.33125 321.03436 36.33125Q322.0656 36.33125 322.7531 35.70625Q323.45624 35.065624 323.64374 33.753124ZM326.8625 41.51875L326.8625 27.175L328.47186 27.175L328.47186 28.51875Q329.03436 27.7375 329.7375 27.346874Q330.45624 26.940624 331.47186 26.940624Q332.8 26.940624 333.8156 27.628124Q334.83124 28.315624 335.34686 29.565624Q335.8781 30.8 335.8781 32.284374Q335.8781 33.878124 335.3 35.159374Q334.7375 36.425 333.64374 37.1125Q332.55 37.784374 331.34686 37.784374Q330.47186 37.784374 329.76874 37.409374Q329.08124 37.034374 328.6281 36.471874L328.6281 41.51875L326.8625 41.51875ZM328.45624 32.425Q328.45624 34.425 329.26874 35.378124Q330.08124 36.33125 331.2375 36.33125Q332.40936 36.33125 333.2375 35.346874Q334.08124 34.3625 334.08124 32.26875Q334.08124 30.3 333.2531 29.315624Q332.4406 28.315624 331.3156 28.315624Q330.1906 28.315624 329.3156 29.378124Q328.45624 30.425 328.45624 32.425ZM344.65936 37.55L344.65936 36.01875Q343.45624 37.784374 341.3781 37.784374Q340.45624 37.784374 339.65936 37.440624Q338.8625 37.08125 338.47186 36.55Q338.09686 36.01875 337.9406 35.2375Q337.83124 34.721874 337.83124 33.596874L337.83124 27.175L339.58124 27.175L339.58124 32.925Q339.58124 34.3 339.6906 34.784374Q339.8625 35.471874 340.39374 35.878124Q340.9406 36.26875 341.72186 36.26875Q342.51874 36.26875 343.20624 35.8625Q343.90936 35.45625 344.1906 34.76875Q344.4875 34.065624 344.4875 32.7375L344.4875 27.175L346.2375 27.175L346.2375 37.55L344.65936 37.55ZM349.4875 37.55L347.8625 37.55L347.8625 23.2375L349.6125 23.2375L349.6125 28.346874Q350.7375 26.940624 352.45624 26.940624Q353.40936 26.940624 354.26874 27.33125Q355.1281 27.721874 355.675 28.425Q356.22186 29.1125 356.53436 30.096874Q356.84686 31.08125 356.84686 32.20625Q356.84686 34.878124 355.53436 36.33125Q354.22186 37.784374 352.3781 37.784374Q350.53436 37.784374 349.4875 36.253124L349.4875 37.55ZM349.47186 32.284374Q349.47186 34.14375 349.97186 34.9875Q350.8156 36.33125 352.22186 36.33125Q353.3781 36.33125 354.20624 35.33125Q355.05 34.33125 355.05 32.346874Q355.05 30.315624 354.2375 29.3625Q353.4406 28.39375 352.3 28.39375Q351.14374 28.39375 350.3 29.39375Q349.47186 30.39375 349.47186 32.284374ZM365.97186 34.20625L367.78436 34.440624Q367.3625 36.01875 366.1906 36.909374Q365.03436 37.784374 363.22186 37.784374Q360.95624 37.784374 359.6125 36.39375Q358.28436 34.9875 358.28436 32.45625Q358.28436 29.83125 359.6281 28.39375Q360.97186 26.940624 363.1281 26.940624Q365.20624 26.940624 366.51874 28.3625Q367.84686 29.76875 367.84686 32.346874Q367.84686 32.503124 367.83124 32.815624L360.09686 32.815624Q360.1906 34.51875 361.0656 35.425Q361.9406 36.33125 363.2375 36.33125Q364.20624 36.33125 364.8781 35.83125Q365.5656 35.315624 365.97186 34.20625ZM360.1906 31.3625L365.9875 31.3625Q365.8781 30.065624 365.33124 29.409374Q364.4875 28.39375 363.14374 28.39375Q361.9406 28.39375 361.1125 29.20625Q360.28436 30.003124 360.1906 31.3625ZM369.8625 37.55L369.8625 27.175L371.45624 27.175L371.45624 28.659374Q372.59686 26.940624 374.7531 26.940624Q375.6906 26.940624 376.47186 27.284374Q377.26874 27.6125 377.65936 28.159374Q378.05 28.70625 378.20624 29.45625Q378.3 29.95625 378.3 31.175L378.3 37.55L376.53436 37.55L376.53436 31.2375Q376.53436 30.159374 376.33124 29.628124Q376.1281 29.096874 375.59686 28.784374Q375.08124 28.471874 374.3781 28.471874Q373.2531 28.471874 372.4406 29.190624Q371.6281 29.89375 371.6281 31.878124L371.6281 37.55L369.8625 37.55ZM386.64374 33.753124L388.3625 33.971874Q388.08124 35.76875 386.90936 36.784374Q385.7531 37.784374 384.05 37.784374Q381.925 37.784374 380.6281 36.39375Q379.33124 35.003124 379.33124 32.409374Q379.33124 30.721874 379.8781 29.471874Q380.4406 28.20625 381.58124 27.58125Q382.72186 26.940624 384.0656 26.940624Q385.7531 26.940624 386.8156 27.8Q387.89374 28.659374 388.20624 30.221874L386.4875 30.4875Q386.2531 29.440624 385.6281 28.925Q385.0031 28.39375 384.1281 28.39375Q382.8 28.39375 381.97186 29.346874Q381.14374 30.3 381.14374 32.346874Q381.14374 34.440624 381.9406 35.39375Q382.7375 36.33125 384.03436 36.33125Q385.0656 36.33125 385.7531 35.70625Q386.45624 35.065624 386.64374 33.753124ZM389.8625 37.55L389.8625 23.2375L391.6281 23.2375L391.6281 28.3625Q392.8625 26.940624 394.7375 26.940624Q395.8781 26.940624 396.72186 27.39375Q397.58124 27.846874 397.9406 28.659374Q398.3156 29.45625 398.3156 30.971874L398.3156 37.55L396.5656 37.55L396.5656 30.971874Q396.5656 29.659374 395.9875 29.065624Q395.40936 28.45625 394.3781 28.45625Q393.59686 28.45625 392.89374 28.8625Q392.20624 29.26875 391.90936 29.971874Q391.6281 30.659374 391.6281 31.878124L391.6281 37.55L389.8625 37.55Z" fill-rule="nonzero"/></svg>