<svg version="1.1" viewBox="0.0 0.0 600.0 371.0" fill="none" stroke="none" stroke-linecap="square" stroke-miterlimit="10" width="600" height="371" xmlns:xlink="http://www.w3.org/1999/xlink" xmlns="http://www.w3.org/2000/svg"><path fill="#ffffff" d="M0 0L600.0 0L600.0 371.0L0 371.0L0 0Z" fill-rule="nonzero"/><path stroke="#333333" stroke-width="1.0" stroke-linecap="butt" d="M90.5 313.5L581.5 313.5" fill-rule="nonzero"/><path stroke="#cccccc" stroke-width="1.0" stroke-linecap="butt" d="M90.5 229.5L581.5 229.5" fill-rule="nonzero"/><path stroke="#cccccc" stroke-width="1.0" stroke-linecap="butt" d="M90.5 145.5L581.5 145.5" fill-rule="nonzero"/><path stroke="#cccccc" stroke-width="1.0" stroke-linecap="butt" d="M90.5 61.5L581.5 61.5" fill-rule="nonzero"/><path stroke="#e6e6e6" stroke-width="1.0" stroke-linecap="butt" d="M90.5 285.5L581.5 285.5" fill-rule="nonzero"/><path stroke="#e6e6e6" stroke-width="1.0" stroke-linecap="butt" d="M90.5 257.5L581.5 257.5" fill-rule="nonzero"/><path stroke="#e6e6e6" stroke-width="1.0" stroke-linecap="butt" d="M90.5 201.5L581.5 201.5" fill-rule="nonzero"/><path stroke="#e6e6e6" stroke-width="1.0" stroke-linecap="butt" d="M90.5 173.5L581.5 173.5" fill-rule="nonzero"/><path stroke="#e6e6e6" stroke-width="1.0" stroke-linecap="butt" d="M90.5 117.5L581.5 117.5" fill-rule="nonzero"/><path stroke="#e6e6e6" stroke-width="1.0" stroke-linecap="butt" d="M90.5 89.5L581.5 89.5" fill-rule="nonzero"/><path stroke="#000000" stroke-width="1.0" stroke-linecap="butt" d="M90.5 313.5L90.5 61.5" fill-rule="nonzero"/><clipPath id="id_0"><path d="M90.55 61.916668L581.45 61.916668L581.45 313.45L90.55 313.45L90.55 61.916668Z" clip-rule="nonzero"/></clipPath><path stroke="#000000" stroke-width="2.0" stroke-linecap="butt" stroke-opacity="0.0" clip-path="url(#id_0)" d="M296.0 313.0L219.0 313.0L219.0 81.0C219.0 79.89543 219.89543 79.0 221.0 79.0L294.0 79.0C295.10458 79.0 296.0 79.89543 296.0 81.0Z" fill-rule="nonzero"/><path fill="#34a853" clip-path="url(#id_0)" d="M296.0 313.0L219.0 313.0L219.0 81.0C219.0 79.89543 219.89543 79.0 221.0 79.0L294.0 79.0C295.10458 79.0 296.0 79.89543 296.0 81.0Z" fill-rule="nonzero"/><path stroke="#000000" stroke-width="2.0" stroke-linecap="butt" stroke-opacity="0.0" clip-path="url(#id_0)" d="M375.0 313.0L298.0 313.0L298.0 82.0C298.0 80.89543 298.89542 80.0 300.0 80.0L373.0 80.0C374.10458 80.0 375.0 80.89543 375.0 82.0Z" fill-rule="nonzero"/><path fill="#34a853" clip-path="url(#id_0)" d="M375.0 313.0L298.0 313.0L298.0 82.0C298.0 80.89543 298.89542 80.0 300.0 80.0L373.0 80.0C374.10458 80.0 375.0 80.89543 375.0 82.0Z" fill-rule="nonzero"/><path stroke="#000000" stroke-width="2.0" stroke-linecap="butt" stroke-opacity="0.0" clip-path="url(#id_0)" d="M454.0 313.0L377.0 313.0L377.0 81.0C377.0 79.89543 377.89542 79.0 379.0 79.0L452.0 79.0C453.10458 79.0 454.0 79.89543 454.0 81.0Z" fill-rule="nonzero"/><path fill="#34a853" clip-path="url(#id_0)" d="M454.0 313.0L377.0 313.0L377.0 81.0C377.0 79.89543 377.89542 79.0 379.0 79.0L452.0 79.0C453.10458 79.0 454.0 79.89543 454.0 81.0Z" fill-rule="nonzero"/><path stroke="#000000" stroke-width="1.0" stroke-linecap="butt" d="M84.5 313.5L96.5 313.5" fill-rule="nonzero"/><path stroke="#000000" stroke-width="1.0" stroke-linecap="butt" d="M84.5 229.5L96.5 229.5" fill-rule="nonzero"/><path stroke="#000000" stroke-width="1.0" stroke-linecap="butt" d="M84.5 145.5L96.5 145.5" fill-rule="nonzero"/><path stroke="#000000" stroke-width="1.0" stroke-linecap="butt" d="M84.5 61.5L96.5 61.5" fill-rule="nonzero"/><path stroke="#34a853" stroke-width="3.0" stroke-linejoin="round" stroke-linecap="round" d="M249.29688 96.24016L243.70312 96.24016L243.70312 95.45891L246.65625 92.17766Q247.3125 91.42766 247.5625 90.97453Q247.8125 90.50578 247.8125 90.00578Q247.8125 89.33391 247.40625 88.91203Q247.01562 88.47453 246.32812 88.47453Q245.53125 88.47453 245.07812 88.94328Q244.625 89.39641 244.625 90.22453L243.54688 90.22453Q243.54688 89.03703 244.29688 88.31828Q245.0625 87.58391 246.32812 87.58391Q247.53125 87.58391 248.21875 88.20891Q248.90625 88.83391 248.90625 89.88078Q248.90625 91.13078 247.29688 92.88078L245.01562 95.34953L249.29688 95.34953L249.29688 96.24016ZM256.21875 88.31828L252.6875 96.24016L251.54688 96.24016L255.0625 88.59953L250.45312 88.59953L250.45312 87.70891L256.21875 87.70891L256.21875 88.31828ZM261.85938 92.49016Q261.53125 92.89641 261.04688 93.14641Q260.57812 93.38078 260.01562 93.38078Q259.28125 93.38078 258.73438 93.02141Q258.1875 92.66203 257.89062 92.00578Q257.59375 91.33391 257.59375 90.53703Q257.59375 89.69328 257.90625 89.00578Q258.23438 88.31828 258.82812 87.95891Q259.4375 87.58391 260.23438 87.58391Q261.5 87.58391 262.21875 88.53703Q262.95312 89.49016 262.95312 91.11516L262.95312 91.42766Q262.95312 93.92766 261.96875 95.06828Q260.98438 96.20891 259.0 96.24016L258.78125 96.24016L258.78125 95.33391L259.01562 95.33391Q260.35938 95.30266 261.07812 94.63078Q261.79688 93.95891 261.85938 92.49016ZM260.1875 92.49016Q260.73438 92.49016 261.1875 92.16203Q261.65625 91.81828 261.875 91.33391L261.875 90.89641Q261.875 89.83391 261.40625 89.16203Q260.9375 88.49016 260.23438 88.49016Q259.51562 88.49016 259.07812 89.03703Q258.65625 89.58391 258.65625 90.49016Q258.65625 91.36516 259.0625 91.92766Q259.48438 92.49016 260.1875 92.49016ZM268.26562 96.24016L267.1875 96.24016L267.1875 89.02141L265.0 89.81828L265.0 88.83391L268.10938 87.66203L268.26562 87.66203L268.26562 96.24016Z" fill-rule="nonzero"/><path fill="#ffffff" d="M249.29688 96.24016L243.70312 96.24016L243.70312 95.45891L246.65625 92.17766Q247.3125 91.42766 247.5625 90.97453Q247.8125 90.50578 247.8125 90.00578Q247.8125 89.33391 247.40625 88.91203Q247.01562 88.47453 246.32812 88.47453Q245.53125 88.47453 245.07812 88.94328Q244.625 89.39641 244.625 90.22453L243.54688 90.22453Q243.54688 89.03703 244.29688 88.31828Q245.0625 87.58391 246.32812 87.58391Q247.53125 87.58391 248.21875 88.20891Q248.90625 88.83391 248.90625 89.88078Q248.90625 91.13078 247.29688 92.88078L245.01562 95.34953L249.29688 95.34953L249.29688 96.24016ZM256.21875 88.31828L252.6875 96.24016L251.54688 96.24016L255.0625 88.59953L250.45312 88.59953L250.45312 87.70891L256.21875 87.70891L256.21875 88.31828ZM261.85938 92.49016Q261.53125 92.89641 261.04688 93.14641Q260.57812 93.38078 260.01562 93.38078Q259.28125 93.38078 258.73438 93.02141Q258.1875 92.66203 257.89062 92.00578Q257.59375 91.33391 257.59375 90.53703Q257.59375 89.69328 257.90625 89.00578Q258.23438 88.31828 258.82812 87.95891Q259.4375 87.58391 260.23438 87.58391Q261.5 87.58391 262.21875 88.53703Q262.95312 89.49016 262.95312 91.11516L262.95312 91.42766Q262.95312 93.92766 261.96875 95.06828Q260.98438 96.20891 259.0 96.24016L258.78125 96.24016L258.78125 95.33391L259.01562 95.33391Q260.35938 95.30266 261.07812 94.63078Q261.79688 93.95891 261.85938 92.49016ZM260.1875 92.49016Q260.73438 92.49016 261.1875 92.16203Q261.65625 91.81828 261.875 91.33391L261.875 90.89641Q261.875 89.83391 261.40625 89.16203Q260.9375 88.49016 260.23438 88.49016Q259.51562 88.49016 259.07812 89.03703Q258.65625 89.58391 258.65625 90.49016Q258.65625 91.36516 259.0625 91.92766Q259.48438 92.49016 260.1875 92.49016ZM268.26562 96.24016L267.1875 96.24016L267.1875 89.02141L265.0 89.81828L265.0 88.83391L268.10938 87.66203L268.26562 87.66203L268.26562 96.24016Z" fill-rule="nonzero"/><path stroke="#34a853" stroke-width="3.0" stroke-linejoin="round" stroke-linecap="round" d="M328.29688 96.49169L322.70312 96.49169L322.70312 95.71044L325.65625 92.42919Q326.3125 91.67919 326.5625 91.22607Q326.8125 90.75732 326.8125 90.25732Q326.8125 89.58544 326.40625 89.16357Q326.01562 88.72607 325.32812 88.72607Q324.53125 88.72607 324.07812 89.19482Q323.625 89.64794 323.625 90.47607L322.54688 90.47607Q322.54688 89.28857 323.29688 88.56982Q324.0625 87.83544 325.32812 87.83544Q326.53125 87.83544 327.21875 88.46044Q327.90625 89.08544 327.90625 90.13232Q327.90625 91.38232 326.29688 93.13232L324.01562 95.60107L328.29688 95.60107L328.29688 96.49169ZM335.21875 88.56982L331.6875 96.49169L330.54688 96.49169L334.0625 88.85107L329.45312 88.85107L329.45312 87.96044L335.21875 87.96044L335.21875 88.56982ZM341.89062 90.17919Q341.89062 90.81982 341.54688 91.31982Q341.20312 91.81982 340.64062 92.10107Q341.29688 92.38232 341.6875 92.94482Q342.07812 93.49169 342.07812 94.19482Q342.07812 95.28857 341.32812 95.96044Q340.59375 96.61669 339.375 96.61669Q338.14062 96.61669 337.39062 95.96044Q336.65625 95.28857 336.65625 94.19482Q336.65625 93.49169 337.03125 92.94482Q337.40625 92.38232 338.07812 92.10107Q337.51562 91.81982 337.1875 91.31982Q336.85938 90.81982 336.85938 90.17919Q336.85938 89.10107 337.54688 88.47607Q338.23438 87.83544 339.375 87.83544Q340.5 87.83544 341.1875 88.47607Q341.89062 89.10107 341.89062 90.17919ZM341.0 94.16357Q341.0 93.44482 340.54688 93.00732Q340.09375 92.55419 339.35938 92.55419Q338.625 92.55419 338.17188 93.00732Q337.73438 93.44482 337.73438 94.17919Q337.73438 94.89794 338.17188 95.31982Q338.60938 95.72607 339.375 95.72607Q340.125 95.72607 340.5625 95.30419Q341.0 94.88232 341.0 94.16357ZM339.375 88.72607Q338.73438 88.72607 338.32812 89.13232Q337.9375 89.52294 337.9375 90.21044Q337.9375 90.85107 338.32812 91.25732Q338.71875 91.66357 339.35938 91.66357Q340.01562 91.66357 340.40625 91.25732Q340.79688 90.85107 340.79688 90.21044Q340.79688 89.55419 340.39062 89.14794Q339.98438 88.72607 339.375 88.72607ZM348.89062 90.17919Q348.89062 90.81982 348.54688 91.31982Q348.20312 91.81982 347.64062 92.10107Q348.29688 92.38232 348.6875 92.94482Q349.07812 93.49169 349.07812 94.19482Q349.07812 95.28857 348.32812 95.96044Q347.59375 96.61669 346.375 96.61669Q345.14062 96.61669 344.39062 95.96044Q343.65625 95.28857 343.65625 94.19482Q343.65625 93.49169 344.03125 92.94482Q344.40625 92.38232 345.07812 92.10107Q344.51562 91.81982 344.1875 91.31982Q343.85938 90.81982 343.85938 90.17919Q343.85938 89.10107 344.54688 88.47607Q345.23438 87.83544 346.375 87.83544Q347.5 87.83544 348.1875 88.47607Q348.89062 89.10107 348.89062 90.17919ZM348.0 94.16357Q348.0 93.44482 347.54688 93.00732Q347.09375 92.55419 346.35938 92.55419Q345.625 92.55419 345.17188 93.00732Q344.73438 93.44482 344.73438 94.17919Q344.73438 94.89794 345.17188 95.31982Q345.60938 95.72607 346.375 95.72607Q347.125 95.72607 347.5625 95.30419Q348.0 94.88232 348.0 94.16357ZM346.375 88.72607Q345.73438 88.72607 345.32812 89.13232Q344.9375 89.52294 344.9375 90.21044Q344.9375 90.85107 345.32812 91.25732Q345.71875 91.66357 346.35938 91.66357Q347.01562 91.66357 347.40625 91.25732Q347.79688 90.85107 347.79688 90.21044Q347.79688 89.55419 347.39062 89.14794Q346.98438 88.72607 346.375 88.72607Z" fill-rule="nonzero"/><path fill="#ffffff" d="M328.29688 96.49169L322.70312 96.49169L322.70312 95.71044L325.65625 92.42919Q326.3125 91.67919 326.5625 91.22607Q326.8125 90.75732 326.8125 90.25732Q326.8125 89.58544 326.40625 89.16357Q326.01562 88.72607 325.32812 88.72607Q324.53125 88.72607 324.07812 89.19482Q323.625 89.64794 323.625 90.47607L322.54688 90.47607Q322.54688 89.28857 323.29688 88.56982Q324.0625 87.83544 325.32812 87.83544Q326.53125 87.83544 327.21875 88.46044Q327.90625 89.08544 327.90625 90.13232Q327.90625 91.38232 326.29688 93.13232L324.01562 95.60107L328.29688 95.60107L328.29688 96.49169ZM335.21875 88.56982L331.6875 96.49169L330.54688 96.49169L334.0625 88.85107L329.45312 88.85107L329.45312 87.96044L335.21875 87.96044L335.21875 88.56982ZM341.89062 90.17919Q341.89062 90.81982 341.54688 91.31982Q341.20312 91.81982 340.64062 92.10107Q341.29688 92.38232 341.6875 92.94482Q342.07812 93.49169 342.07812 94.19482Q342.07812 95.28857 341.32812 95.96044Q340.59375 96.61669 339.375 96.61669Q338.14062 96.61669 337.39062 95.96044Q336.65625 95.28857 336.65625 94.19482Q336.65625 93.49169 337.03125 92.94482Q337.40625 92.38232 338.07812 92.10107Q337.51562 91.81982 337.1875 91.31982Q336.85938 90.81982 336.85938 90.17919Q336.85938 89.10107 337.54688 88.47607Q338.23438 87.83544 339.375 87.83544Q340.5 87.83544 341.1875 88.47607Q341.89062 89.10107 341.89062 90.17919ZM341.0 94.16357Q341.0 93.44482 340.54688 93.00732Q340.09375 92.55419 339.35938 92.55419Q338.625 92.55419 338.17188 93.00732Q337.73438 93.44482 337.73438 94.17919Q337.73438 94.89794 338.17188 95.31982Q338.60938 95.72607 339.375 95.72607Q340.125 95.72607 340.5625 95.30419Q341.0 94.88232 341.0 94.16357ZM339.375 88.72607Q338.73438 88.72607 338.32812 89.13232Q337.9375 89.52294 337.9375 90.21044Q337.9375 90.85107 338.32812 91.25732Q338.71875 91.66357 339.35938 91.66357Q340.01562 91.66357 340.40625 91.25732Q340.79688 90.85107 340.79688 90.21044Q340.79688 89.55419 340.39062 89.14794Q339.98438 88.72607 339.375 88.72607ZM348.89062 90.17919Q348.89062 90.81982 348.54688 91.31982Q348.20312 91.81982 347.64062 92.10107Q348.29688 92.38232 348.6875 92.94482Q349.07812 93.49169 349.07812 94.19482Q349.07812 95.28857 348.32812 95.96044Q347.59375 96.61669 346.375 96.61669Q345.14062 96.61669 344.39062 95.96044Q343.65625 95.28857 343.65625 94.19482Q343.65625 93.49169 344.03125 92.94482Q344.40625 92.38232 345.07812 92.10107Q344.51562 91.81982 344.1875 91.31982Q343.85938 90.81982 343.85938 90.17919Q343.85938 89.10107 344.54688 88.47607Q345.23438 87.83544 346.375 87.83544Q347.5 87.83544 348.1875 88.47607Q348.89062 89.10107 348.89062 90.17919ZM348.0 94.16357Q348.0 93.44482 347.54688 93.00732Q347.09375 92.55419 346.35938 92.55419Q345.625 92.55419 345.17188 93.00732Q344.73438 93.44482 344.73438 94.17919Q344.73438 94.89794 345.17188 95.31982Q345.60938 95.72607 346.375 95.72607Q347.125 95.72607 347.5625 95.30419Q348.0 94.88232 348.0 94.16357ZM346.375 88.72607Q345.73438 88.72607 345.32812 89.13232Q344.9375 89.52294 344.9375 90.21044Q344.9375 90.85107 345.32812 91.25732Q345.71875 91.66357 346.35938 91.66357Q347.01562 91.66357 347.40625 91.25732Q347.79688 90.85107 347.79688 90.21044Q347.79688 89.55419 347.39062 89.14794Q346.98438 88.72607 346.375 88.72607Z" fill-rule="nonzero"/><path stroke="#34a853" stroke-width="3.0" stroke-linejoin="round" stroke-linecap="round" d="M407.29688 95.73709L401.70312 95.73709L401.70312 94.95584L404.65625 91.67459Q405.3125 90.92459 405.5625 90.471466Q405.8125 90.002716 405.8125 89.502716Q405.8125 88.83084 405.40625 88.408966Q405.01562 87.971466 404.32812 87.971466Q403.53125 87.971466 403.07812 88.440216Q402.625 88.89334 402.625 89.721466L401.54688 89.721466Q401.54688 88.533966 402.29688 87.815216Q403.0625 87.08084 404.32812 87.08084Q405.53125 87.08084 406.21875 87.70584Q406.90625 88.33084 406.90625 89.377716Q406.90625 90.627716 405.29688 92.377716L403.01562 94.846466L407.29688 94.846466L407.29688 95.73709ZM414.21875 87.815216L410.6875 95.73709L409.54688 95.73709L413.0625 88.096466L408.45312 88.096466L408.45312 87.20584L414.21875 87.20584L414.21875 87.815216ZM419.85938 91.98709Q419.53125 92.39334 419.04688 92.64334Q418.57812 92.877716 418.01562 92.877716Q417.28125 92.877716 416.73438 92.51834Q416.1875 92.158966 415.89062 91.502716Q415.59375 90.83084 415.59375 90.033966Q415.59375 89.190216 415.90625 88.502716Q416.23438 87.815216 416.82812 87.45584Q417.4375 87.08084 418.23438 87.08084Q419.5 87.08084 420.21875 88.033966Q420.95312 88.98709 420.95312 90.61209L420.95312 90.92459Q420.95312 93.42459 419.96875 94.565216Q418.98438 95.70584 417.0 95.73709L416.78125 95.73709L416.78125 94.83084L417.01562 94.83084Q418.35938 94.79959 419.07812 94.127716Q419.79688 93.45584 419.85938 91.98709ZM418.1875 91.98709Q418.73438 91.98709 419.1875 91.658966Q419.65625 91.315216 419.875 90.83084L419.875 90.39334Q419.875 89.33084 419.40625 88.658966Q418.9375 87.98709 418.23438 87.98709Q417.51562 87.98709 417.07812 88.533966Q416.65625 89.08084 416.65625 89.98709Q416.65625 90.86209 417.0625 91.42459Q417.48438 91.98709 418.1875 91.98709ZM428.21875 87.815216L424.6875 95.73709L423.54688 95.73709L427.0625 88.096466L422.45312 88.096466L422.45312 87.20584L428.21875 87.20584L428.21875 87.815216Z" fill-rule="nonzero"/><path fill="#ffffff" d="M407.29688 95.73709L401.70312 95.73709L401.70312 94.95584L404.65625 91.67459Q405.3125 90.92459 405.5625 90.471466Q405.8125 90.002716 405.8125 89.502716Q405.8125 88.83084 405.40625 88.408966Q405.01562 87.971466 404.32812 87.971466Q403.53125 87.971466 403.07812 88.440216Q402.625 88.89334 402.625 89.721466L401.54688 89.721466Q401.54688 88.533966 402.29688 87.815216Q403.0625 87.08084 404.32812 87.08084Q405.53125 87.08084 406.21875 87.70584Q406.90625 88.33084 406.90625 89.377716Q406.90625 90.627716 405.29688 92.377716L403.01562 94.846466L407.29688 94.846466L407.29688 95.73709ZM414.21875 87.815216L410.6875 95.73709L409.54688 95.73709L413.0625 88.096466L408.45312 88.096466L408.45312 87.20584L414.21875 87.20584L414.21875 87.815216ZM419.85938 91.98709Q419.53125 92.39334 419.04688 92.64334Q418.57812 92.877716 418.01562 92.877716Q417.28125 92.877716 416.73438 92.51834Q416.1875 92.158966 415.89062 91.502716Q415.59375 90.83084 415.59375 90.033966Q415.59375 89.190216 415.90625 88.502716Q416.23438 87.815216 416.82812 87.45584Q417.4375 87.08084 418.23438 87.08084Q419.5 87.08084 420.21875 88.033966Q420.95312 88.98709 420.95312 90.61209L420.95312 90.92459Q420.95312 93.42459 419.96875 94.565216Q418.98438 95.70584 417.0 95.73709L416.78125 95.73709L416.78125 94.83084L417.01562 94.83084Q418.35938 94.79959 419.07812 94.127716Q419.79688 93.45584 419.85938 91.98709ZM418.1875 91.98709Q418.73438 91.98709 419.1875 91.658966Q419.65625 91.315216 419.875 90.83084L419.875 90.39334Q419.875 89.33084 419.40625 88.658966Q418.9375 87.98709 418.23438 87.98709Q417.51562 87.98709 417.07812 88.533966Q416.65625 89.08084 416.65625 89.98709Q416.65625 90.86209 417.0625 91.42459Q417.48438 91.98709 418.1875 91.98709ZM428.21875 87.815216L424.6875 95.73709L423.54688 95.73709L427.0625 88.096466L422.45312 88.096466L422.45312 87.20584L428.21875 87.20584L428.21875 87.815216Z" fill-rule="nonzero"/><path fill="#000000" d="M313.92188 349.45L313.92188 340.85626L317.17188 340.85626Q318.01562 340.85626 318.46875 340.9344Q319.10938 341.04376 319.53125 341.34064Q319.96875 341.6375 320.21875 342.16876Q320.48438 342.7 320.48438 343.34064Q320.48438 344.4344 319.78125 345.2Q319.09375 345.95 317.26562 345.95L315.0625 345.95L315.0625 349.45L313.92188 349.45ZM315.0625 344.95L317.28125 344.95Q318.39062 344.95 318.84375 344.54376Q319.3125 344.1219 319.3125 343.3719Q319.3125 342.84064 319.03125 342.46564Q318.76562 342.075 318.32812 341.95Q318.03125 341.8719 317.26562 341.8719L315.0625 341.8719L315.0625 344.95ZM321.78125 349.45L321.78125 343.23126L322.73438 343.23126L322.73438 344.16876Q323.09375 343.5125 323.39062 343.3094Q323.70312 343.09064 324.07812 343.09064Q324.60938 343.09064 325.15625 343.41876L324.79688 344.40314Q324.40625 344.16876 324.03125 344.16876Q323.67188 344.16876 323.39062 344.3875Q323.125 344.59064 323.01562 344.96564Q322.82812 345.52814 322.82812 346.1844L322.82812 349.45L321.78125 349.45ZM325.40625 346.34064Q325.40625 344.60626 326.35938 343.77814Q327.15625 343.09064 328.3125 343.09064Q329.59375 343.09064 330.40625 343.9344Q331.23438 344.7625 331.23438 346.2469Q331.23438 347.45 330.875 348.1375Q330.51562 348.825 329.8125 349.21564Q329.125 349.59064 328.3125 349.59064Q327.01562 349.59064 326.20312 348.7625Q325.40625 347.91876 325.40625 346.34064ZM326.48438 346.34064Q326.48438 347.52814 327.0 348.1219Q327.53125 348.71564 328.3125 348.71564Q329.10938 348.71564 329.625 348.1219Q330.14062 347.52814 330.14062 346.3094Q330.14062 345.15314 329.60938 344.5594Q329.09375 343.96564 328.3125 343.96564Q327.53125 343.96564 327.0 344.5594Q326.48438 345.1375 326.48438 346.34064ZM336.85938 347.16876L337.89062 347.3094Q337.71875 348.3719 337.01562 348.98126Q336.3125 349.59064 335.29688 349.59064Q334.01562 349.59064 333.23438 348.7625Q332.46875 347.91876 332.46875 346.35626Q332.46875 345.35626 332.79688 344.60626Q333.14062 343.84064 333.8125 343.46564Q334.5 343.09064 335.3125 343.09064Q336.3125 343.09064 336.95312 343.60626Q337.60938 344.10626 337.79688 345.0594L336.76562 345.21564Q336.625 344.59064 336.25 344.27814Q335.875 343.95 335.34375 343.95Q334.54688 343.95 334.04688 344.52814Q333.54688 345.09064 333.54688 346.325Q333.54688 347.59064 334.03125 348.15314Q334.51562 348.71564 335.28125 348.71564Q335.90625 348.71564 336.3125 348.34064Q336.73438 347.96564 336.85938 347.16876ZM343.04688 347.45L344.14062 347.575Q343.89062 348.52814 343.1875 349.0594Q342.48438 349.59064 341.40625 349.59064Q340.04688 349.59064 339.23438 348.7469Q338.4375 347.90314 338.4375 346.3875Q338.4375 344.825 339.25 343.96564Q340.0625 343.09064 341.34375 343.09064Q342.59375 343.09064 343.375 343.9344Q344.17188 344.77814 344.17188 346.325Q344.17188 346.41876 344.17188 346.60626L339.53125 346.60626Q339.59375 347.6375 340.10938 348.1844Q340.625 348.71564 341.40625 348.71564Q341.98438 348.71564 342.39062 348.41876Q342.8125 348.10626 343.04688 347.45ZM339.59375 345.7469L343.0625 345.7469Q343.0 344.95 342.67188 344.5594Q342.15625 343.95 341.35938 343.95Q340.625 343.95 340.125 344.4344Q339.64062 344.91876 339.59375 345.7469ZM345.375 347.59064L346.40625 347.4344Q346.5 348.0594 346.89062 348.3875Q347.29688 348.71564 348.03125 348.71564Q348.75 348.71564 349.09375 348.4344Q349.45312 348.1375 349.45312 347.73126Q349.45312 347.3719 349.14062 347.16876Q348.92188 347.02814 348.0625 346.8094Q346.90625 346.5125 346.45312 346.3094Q346.01562 346.09064 345.78125 345.71564Q345.54688 345.34064 345.54688 344.8719Q345.54688 344.46564 345.73438 344.10626Q345.92188 343.7469 346.25 343.5125Q346.5 343.34064 346.92188 343.21564Q347.34375 343.09064 347.84375 343.09064Q348.5625 343.09064 349.10938 343.3094Q349.67188 343.5125 349.9375 343.8719Q350.20312 344.23126 350.29688 344.825L349.26562 344.96564Q349.20312 344.4969 348.85938 344.23126Q348.53125 343.95 347.90625 343.95Q347.1875 343.95 346.875 344.2Q346.5625 344.4344 346.5625 344.7625Q346.5625 344.96564 346.6875 345.1219Q346.82812 345.29376 347.09375 345.40314Q347.25 345.46564 348.03125 345.66876Q349.15625 345.98126 349.59375 346.16876Q350.03125 346.35626 350.28125 346.71564Q350.53125 347.075 350.53125 347.6219Q350.53125 348.15314 350.21875 348.6219Q349.92188 349.075 349.34375 349.34064Q348.76562 349.59064 348.03125 349.59064Q346.8125 349.59064 346.17188 349.09064Q345.54688 348.575 345.375 347.59064ZM352.40625 346.34064Q352.40625 344.60626 353.35938 343.77814Q354.15625 343.09064 355.3125 343.09064Q356.59375 343.09064 357.40625 343.9344Q358.23438 344.7625 358.23438 346.2469Q358.23438 347.45 357.875 348.1375Q357.51562 348.825 356.8125 349.21564Q356.125 349.59064 355.3125 349.59064Q354.01562 349.59064 353.20312 348.7625Q352.40625 347.91876 352.40625 346.34064ZM353.48438 346.34064Q353.48438 347.52814 354.0 348.1219Q354.53125 348.71564 355.3125 348.71564Q356.10938 348.71564 356.625 348.1219Q357.14062 347.52814 357.14062 346.3094Q357.14062 345.15314 356.60938 344.5594Q356.09375 343.96564 355.3125 343.96564Q354.53125 343.96564 354.0 344.5594Q353.48438 345.1375 353.48438 346.34064Z" fill-rule="nonzero"/><path fill="#000000" d="M29.550013 199.07396L21.971888 199.07396L21.971888 201.90208L20.956263 201.90208L20.956263 195.08958L21.971888 195.08958L21.971888 197.93333L29.550013 197.93333L29.550013 199.07396ZM22.175013 194.38646L20.956263 194.38646L20.956263 193.32396L22.175013 193.32396L22.175013 194.38646ZM29.550013 194.38646L23.331263 194.38646L23.331263 193.32396L29.550013 193.32396L29.550013 194.38646ZM27.268763 187.32396L27.409388 186.29271Q28.471888 186.46458 29.081263 187.16771Q29.690638 187.87083 29.690638 188.88646Q29.690638 190.16771 28.862513 190.94896Q28.018763 191.71458 26.456263 191.71458Q25.456263 191.71458 24.706263 191.38646Q23.940638 191.04271 23.565638 190.37083Q23.190638 189.68333 23.190638 188.87083Q23.190638 187.87083 23.706263 187.23021Q24.206263 186.57396 25.159388 186.38646L25.315638 187.41771Q24.690638 187.55833 24.378138 187.93333Q24.050013 188.30833 24.050013 188.83958Q24.050013 189.63646 24.628138 190.13646Q25.190638 190.63646 26.425013 190.63646Q27.690638 190.63646 28.253138 190.15208Q28.815638 189.66771 28.815638 188.90208Q28.815638 188.27708 28.440638 187.87083Q28.065638 187.44896 27.268763 187.32396ZM29.550013 185.38646L20.956263 185.38646L20.956263 184.32396L25.862513 184.32396L23.331263 181.83958L23.331263 180.46458L25.628138 182.85521L29.550013 180.23021L29.550013 181.52708L26.362513 183.58958L27.081263 184.32396L29.550013 184.32396L29.550013 185.38646ZM27.690638 179.80833L27.534388 178.77708Q28.159388 178.68333 28.487513 178.29271Q28.815638 177.88646 28.815638 177.15208Q28.815638 176.43333 28.534388 176.08958Q28.237513 175.73021 27.831263 175.73021Q27.471888 175.73021 27.268763 176.04271Q27.128138 176.26146 26.909388 177.12083Q26.612513 178.27708 26.409388 178.73021Q26.190638 179.16771 25.815638 179.40208Q25.440638 179.63646 24.971888 179.63646Q24.565638 179.63646 24.206263 179.44896Q23.846888 179.26146 23.612513 178.93333Q23.440638 178.68333 23.315638 178.26146Q23.190638 177.83958 23.190638 177.33958Q23.190638 176.62083 23.409388 176.07396Q23.612513 175.51146 23.971888 175.24583Q24.331263 174.98021 24.925013 174.88646L25.065638 175.91771Q24.596888 175.98021 24.331263 176.32396Q24.050013 176.65208 24.050013 177.27708Q24.050013 177.99583 24.300013 178.30833Q24.534388 178.62083 24.862513 178.62083Q25.065638 178.62083 25.221888 178.49583Q25.393763 178.35521 25.503138 178.08958Q25.565638 177.93333 25.768763 177.15208Q26.081263 176.02708 26.268763 175.58958Q26.456263 175.15208 26.815638 174.90208Q27.175013 174.65208 27.721888 174.65208Q28.253138 174.65208 28.721888 174.96458Q29.175013 175.26146 29.440638 175.83958Q29.690638 176.41771 29.690638 177.15208Q29.690638 178.37083 29.190638 179.01146Q28.675013 179.63646 27.690638 179.80833Z" fill-rule="nonzero"/><path fill="#000000" d="M72.05 313.21564Q72.05 311.6844 72.3625 310.7625Q72.675 309.825 73.28438 309.325Q73.90938 308.825 74.84688 308.825Q75.53438 308.825 76.05 309.10626Q76.58125 309.3875 76.925 309.91876Q77.26875 310.4344 77.45625 311.1844Q77.64375 311.9344 77.64375 313.21564Q77.64375 314.73126 77.33125 315.65314Q77.03438 316.575 76.40938 317.09064Q75.8 317.59064 74.84688 317.59064Q73.6125 317.59064 72.89375 316.7Q72.05 315.6375 72.05 313.21564ZM73.12813 313.21564Q73.12813 315.325 73.62813 316.02814Q74.12813 316.73126 74.84688 316.73126Q75.58125 316.73126 76.06563 316.02814Q76.56563 315.325 76.56563 313.21564Q76.56563 311.09064 76.06563 310.40314Q75.58125 309.7 74.83125 309.7Q74.1125 309.7 73.675 310.3094Q73.12813 311.09064 73.12813 313.21564Z" fill-rule="nonzero"/><path fill="#000000" d="M55.01875 233.60556L53.971874 233.60556L53.971874 226.88681Q53.58125 227.24619 52.95625 227.62119Q52.346874 227.98056 51.8625 228.15244L51.8625 227.13681Q52.7375 226.71494 53.39375 226.13681Q54.065624 225.54306 54.346874 224.98056L55.01875 224.98056L55.01875 233.60556ZM58.05 229.37119Q58.05 227.83994 58.3625 226.91806Q58.675 225.98056 59.284374 225.48056Q59.909374 224.98056 60.846874 224.98056Q61.534374 224.98056 62.05 225.26181Q62.58125 225.54306 62.925 226.07431Q63.26875 226.58994 63.45625 227.33994Q63.64375 228.08994 63.64375 229.37119Q63.64375 230.88681 63.33125 231.80869Q63.034374 232.73056 62.409374 233.24619Q61.8 233.74619 60.846874 233.74619Q59.6125 233.74619 58.89375 232.85556Q58.05 231.79306 58.05 229.37119ZM59.128124 229.37119Q59.128124 231.48056 59.628124 232.18369Q60.128124 232.88681 60.846874 232.88681Q61.58125 232.88681 62.065624 232.18369Q62.565624 231.48056 62.565624 229.37119Q62.565624 227.24619 62.065624 226.55869Q61.58125 225.85556 60.83125 225.85556Q60.1125 225.85556 59.675 226.46494Q59.128124 227.24619 59.128124 229.37119ZM65.05 229.37119Q65.05 227.83994 65.3625 226.91806Q65.675 225.98056 66.28438 225.48056Q66.90938 224.98056 67.84688 224.98056Q68.53438 224.98056 69.05 225.26181Q69.58125 225.54306 69.925 226.07431Q70.26875 226.58994 70.45625 227.33994Q70.64375 228.08994 70.64375 229.37119Q70.64375 230.88681 70.33125 231.80869Q70.03438 232.73056 69.40938 233.24619Q68.8 233.74619 67.84688 233.74619Q66.6125 233.74619 65.89375 232.85556Q65.05 231.79306 65.05 229.37119ZM66.12813 229.37119Q66.12813 231.48056 66.62813 232.18369Q67.12813 232.88681 67.84688 232.88681Q68.58125 232.88681 69.06563 232.18369Q69.56563 231.48056 69.56563 229.37119Q69.56563 227.24619 69.06563 226.55869Q68.58125 225.85556 67.83125 225.85556Q67.1125 225.85556 66.675 226.46494Q66.12813 227.24619 66.12813 229.37119ZM72.05 229.37119Q72.05 227.83994 72.3625 226.91806Q72.675 225.98056 73.28438 225.48056Q73.90938 224.98056 74.84688 224.98056Q75.53438 224.98056 76.05 225.26181Q76.58125 225.54306 76.925 226.07431Q77.26875 226.58994 77.45625 227.33994Q77.64375 228.08994 77.64375 229.37119Q77.64375 230.88681 77.33125 231.80869Q77.03438 232.73056 76.40938 233.24619Q75.8 233.74619 74.84688 233.74619Q73.6125 233.74619 72.89375 232.85556Q72.05 231.79306 72.05 229.37119ZM73.12813 229.37119Q73.12813 231.48056 73.62813 232.18369Q74.12813 232.88681 74.84688 232.88681Q75.58125 232.88681 76.06563 232.18369Q76.56563 231.48056 76.56563 229.37119Q76.56563 227.24619 76.06563 226.55869Q75.58125 225.85556 74.83125 225.85556Q74.1125 225.85556 73.675 226.46494Q73.12813 227.24619 73.12813 229.37119Z" fill-rule="nonzero"/><path fill="#000000" d="M56.596874 148.74548L56.596874 149.76111L50.909374 149.76111Q50.909374 149.38611 51.034374 149.02673Q51.253124 148.44861 51.721874 147.88611Q52.20625 147.32361 53.1125 146.58923Q54.51875 145.43298 55.003124 144.76111Q55.503124 144.08923 55.503124 143.49548Q55.503124 142.87048 55.05 142.44861Q54.596874 142.01111 53.878124 142.01111Q53.1125 142.01111 52.659374 142.46423Q52.20625 142.91736 52.190624 143.72986L51.1125 143.62048Q51.221874 142.40173 51.940624 141.77673Q52.675 141.13611 53.909374 141.13611Q55.14375 141.13611 55.8625 141.82361Q56.58125 142.51111 56.58125 143.52673Q56.58125 144.04236 56.3625 144.54236Q56.159374 145.02673 55.659374 145.58923Q55.175 146.13611 54.05 147.08923Q53.096874 147.88611 52.815624 148.18298Q52.55 148.46423 52.378124 148.74548L56.596874 148.74548ZM58.05 145.52673Q58.05 143.99548 58.3625 143.07361Q58.675 142.13611 59.284374 141.63611Q59.909374 141.13611 60.846874 141.13611Q61.534374 141.13611 62.05 141.41736Q62.58125 141.69861 62.925 142.22986Q63.26875 142.74548 63.45625 143.49548Q63.64375 144.24548 63.64375 145.52673Q63.64375 147.04236 63.33125 147.96423Q63.034374 148.88611 62.409374 149.40173Q61.8 149.90173 60.846874 149.90173Q59.6125 149.90173 58.89375 149.01111Q58.05 147.94861 58.05 145.52673ZM59.128124 145.52673Q59.128124 147.63611 59.628124 148.33923Q60.128124 149.04236 60.846874 149.04236Q61.58125 149.04236 62.065624 148.33923Q62.565624 147.63611 62.565624 145.52673Q62.565624 143.40173 62.065624 142.71423Q61.58125 142.01111 60.83125 142.01111Q60.1125 142.01111 59.675 142.62048Q59.128124 143.40173 59.128124 145.52673ZM65.05 145.52673Q65.05 143.99548 65.3625 143.07361Q65.675 142.13611 66.28438 141.63611Q66.90938 141.13611 67.84688 141.13611Q68.53438 141.13611 69.05 141.41736Q69.58125 141.69861 69.925 142.22986Q70.26875 142.74548 70.45625 143.49548Q70.64375 144.24548 70.64375 145.52673Q70.64375 147.04236 70.33125 147.96423Q70.03438 148.88611 69.40938 149.40173Q68.8 149.90173 67.84688 149.90173Q66.6125 149.90173 65.89375 149.01111Q65.05 147.94861 65.05 145.52673ZM66.12813 145.52673Q66.12813 147.63611 66.62813 148.33923Q67.12813 149.04236 67.84688 149.04236Q68.58125 149.04236 69.06563 148.33923Q69.56563 147.63611 69.56563 145.52673Q69.56563 143.40173 69.06563 142.71423Q68.58125 142.01111 67.83125 142.01111Q67.1125 142.01111 66.675 142.62048Q66.12813 143.40173 66.12813 145.52673ZM72.05 145.52673Q72.05 143.99548 72.3625 143.07361Q72.675 142.13611 73.28438 141.63611Q73.90938 141.13611 74.84688 141.13611Q75.53438 141.13611 76.05 141.41736Q76.58125 141.69861 76.925 142.22986Q77.26875 142.74548 77.45625 143.49548Q77.64375 144.24548 77.64375 145.52673Q77.64375 147.04236 77.33125 147.96423Q77.03438 148.88611 76.40938 149.40173Q75.8 149.90173 74.84688 149.90173Q73.6125 149.90173 72.89375 149.01111Q72.05 147.94861 72.05 145.52673ZM73.12813 145.52673Q73.12813 147.63611 73.62813 148.33923Q74.12813 149.04236 74.84688 149.04236Q75.58125 149.04236 76.06563 148.33923Q76.56563 147.63611 76.56563 145.52673Q76.56563 143.40173 76.06563 142.71423Q75.58125 142.01111 74.83125 142.01111Q74.1125 142.01111 73.675 142.62048Q73.12813 143.40173 73.12813 145.52673Z" fill-rule="nonzero"/><path fill="#000000" d="M51.05 63.65104L52.1125 63.510414Q52.284374 64.40104 52.721874 64.80729Q53.159374 65.197914 53.784374 65.197914Q54.534374 65.197914 55.05 64.68229Q55.565624 64.166664 55.565624 63.40104Q55.565624 62.68229 55.08125 62.21354Q54.6125 61.729164 53.878124 61.729164Q53.58125 61.729164 53.128124 61.854164L53.253124 60.916664Q53.3625 60.93229 53.425 60.93229Q54.096874 60.93229 54.628124 60.58854Q55.175 60.229164 55.175 59.49479Q55.175 58.916664 54.784374 58.541664Q54.39375 58.15104 53.76875 58.15104Q53.159374 58.15104 52.7375 58.541664Q52.33125 58.93229 52.221874 59.697914L51.159374 59.510414Q51.346874 58.46354 52.034374 57.885414Q52.721874 57.291664 53.7375 57.291664Q54.440624 57.291664 55.034374 57.604164Q55.628124 57.90104 55.940624 58.416664Q56.253124 58.93229 56.253124 59.52604Q56.253124 60.072914 55.95625 60.541664Q55.659374 60.99479 55.08125 61.260414Q55.83125 61.43229 56.253124 61.99479Q56.675 62.541664 56.675 63.385414Q56.675 64.510414 55.846874 65.291664Q55.034374 66.072914 53.784374 66.072914Q52.659374 66.072914 51.909374 65.40104Q51.159374 64.71354 51.05 63.65104ZM58.05 61.68229Q58.05 60.15104 58.3625 59.229164Q58.675 58.291664 59.284374 57.791664Q59.909374 57.291664 60.846874 57.291664Q61.534374 57.291664 62.05 57.572914Q62.58125 57.854164 62.925 58.385414Q63.26875 58.90104 63.45625 59.65104Q63.64375 60.40104 63.64375 61.68229Q63.64375 63.197914 63.33125 64.11979Q63.034374 65.041664 62.409374 65.55729Q61.8 66.05729 60.846874 66.05729Q59.6125 66.05729 58.89375 65.166664Q58.05 64.104164 58.05 61.68229ZM59.128124 61.68229Q59.128124 63.791664 59.628124 64.49479Q60.128124 65.197914 60.846874 65.197914Q61.58125 65.197914 62.065624 64.49479Q62.565624 63.791664 62.565624 61.68229Q62.565624 59.55729 62.065624 58.86979Q61.58125 58.166664 60.83125 58.166664Q60.1125 58.166664 59.675 58.77604Q59.128124 59.55729 59.128124 61.68229ZM65.05 61.68229Q65.05 60.15104 65.3625 59.229164Q65.675 58.291664 66.28438 57.791664Q66.90938 57.291664 67.84688 57.291664Q68.53438 57.291664 69.05 57.572914Q69.58125 57.854164 69.925 58.385414Q70.26875 58.90104 70.45625 59.65104Q70.64375 60.40104 70.64375 61.68229Q70.64375 63.197914 70.33125 64.11979Q70.03438 65.041664 69.40938 65.55729Q68.8 66.05729 67.84688 66.05729Q66.6125 66.05729 65.89375 65.166664Q65.05 64.104164 65.05 61.68229ZM66.12813 61.68229Q66.12813 63.791664 66.62813 64.49479Q67.12813 65.197914 67.84688 65.197914Q68.58125 65.197914 69.06563 64.49479Q69.56563 63.791664 69.56563 61.68229Q69.56563 59.55729 69.06563 58.86979Q68.58125 58.166664 67.83125 58.166664Q67.1125 58.166664 66.675 58.77604Q66.12813 59.55729 66.12813 61.68229ZM72.05 61.68229Q72.05 60.15104 72.3625 59.229164Q72.675 58.291664 73.28438 57.791664Q73.90938 57.291664 74.84688 57.291664Q75.53438 57.291664 76.05 57.572914Q76.58125 57.854164 76.925 58.385414Q77.26875 58.90104 77.45625 59.65104Q77.64375 60.40104 77.64375 61.68229Q77.64375 63.197914 77.33125 64.11979Q77.03438 65.041664 76.40938 65.55729Q75.8 66.05729 74.84688 66.05729Q73.6125 66.05729 72.89375 65.166664Q72.05 64.104164 72.05 61.68229ZM73.12813 61.68229Q73.12813 63.791664 73.62813 64.49479Q74.12813 65.197914 74.84688 65.197914Q75.58125 65.197914 76.06563 64.49479Q76.56563 63.791664 76.56563 61.68229Q76.56563 59.55729 76.06563 58.86979Q75.58125 58.166664 74.83125 58.166664Q74.1125 58.166664 73.675 58.77604Q73.12813 59.55729 73.12813 61.68229Z" fill-rule="nonzero"/><path fill="#757575" d="M23.7375 37.55L23.7375 24.925L19.01875 24.925L19.01875 23.2375L30.3625 23.2375L30.3625 24.925L25.628124 24.925L25.628124 37.55L23.7375 37.55ZM31.878124 25.253124L31.878124 23.2375L33.64375 23.2375L33.64375 25.253124L31.878124 25.253124ZM31.878124 37.55L31.878124 27.175L33.64375 27.175L33.64375 37.55L31.878124 37.55ZM42.64375 33.753124L44.3625 33.971874Q44.08125 35.76875 42.909374 36.784374Q41.753124 37.784374 40.05 37.784374Q37.925 37.784374 36.628124 36.39375Q35.33125 35.003124 35.33125 32.409374Q35.33125 30.721874 35.878124 29.471874Q36.440624 28.20625 37.58125 27.58125Q38.721874 26.940624 40.065624 26.940624Q41.753124 26.940624 42.815624 27.8Q43.89375 28.659374 44.20625 30.221874L42.4875 30.4875Q42.253124 29.440624 41.628124 28.925Q41.003124 28.39375 40.128124 28.39375Q38.8 28.39375 37.971874 29.346874Q37.14375 30.3 37.14375 32.346874Q37.14375 34.440624 37.940624 35.39375Q38.7375 36.33125 40.034374 36.33125Q41.065624 36.33125 41.753124 35.70625Q42.45625 35.065624 42.64375 33.753124ZM45.878124 37.55L45.878124 23.2375L47.64375 23.2375L47.64375 31.39375L51.8 27.175L54.065624 27.175L50.1125 31.01875L54.471874 37.55L52.3 37.55L48.878124 32.253124L47.64375 33.440624L47.64375 37.55L45.878124 37.55ZM55.159374 34.45625L56.909374 34.175Q57.05 35.221874 57.721874 35.784374Q58.39375 36.33125 59.596874 36.33125Q60.8 36.33125 61.378124 35.846874Q61.971874 35.346874 61.971874 34.690624Q61.971874 34.096874 61.45625 33.753124Q61.096874 33.51875 59.659374 33.159374Q57.721874 32.659374 56.971874 32.315624Q56.2375 31.95625 55.846874 31.33125Q55.45625 30.690624 55.45625 29.925Q55.45625 29.2375 55.76875 28.64375Q56.096874 28.05 56.64375 27.659374Q57.05 27.3625 57.753124 27.159374Q58.471874 26.940624 59.284374 26.940624Q60.503124 26.940624 61.425 27.3Q62.346874 27.64375 62.784374 28.253124Q63.221874 28.846874 63.39375 29.846874L61.675 30.08125Q61.55 29.284374 60.9875 28.846874Q60.425 28.39375 59.409374 28.39375Q58.190624 28.39375 57.675 28.8Q57.159374 29.190624 57.159374 29.721874Q57.159374 30.065624 57.378124 30.346874Q57.58125 30.628124 58.05 30.815624Q58.315624 30.909374 59.596874 31.253124Q61.471874 31.753124 62.20625 32.08125Q62.940624 32.39375 63.3625 33.003124Q63.784374 33.596874 63.784374 34.503124Q63.784374 35.378124 63.26875 36.159374Q62.753124 36.940624 61.784374 37.3625Q60.815624 37.784374 59.596874 37.784374Q57.58125 37.784374 56.51875 36.940624Q55.45625 36.096874 55.159374 34.45625ZM78.64375 33.753124L80.3625 33.971874Q80.08125 35.76875 78.90938 36.784374Q77.75313 37.784374 76.05 37.784374Q73.925 37.784374 72.62813 36.39375Q71.33125 35.003124 71.33125 32.409374Q71.33125 30.721874 71.87813 29.471874Q72.44063 28.20625 73.58125 27.58125Q74.72188 26.940624 76.06563 26.940624Q77.75313 26.940624 78.81563 27.8Q79.89375 28.659374 80.20625 30.221874L78.4875 30.4875Q78.25313 29.440624 77.62813 28.925Q77.00313 28.39375 76.12813 28.39375Q74.8 28.39375 73.97188 29.346874Q73.14375 30.3 73.14375 32.346874Q73.14375 34.440624 73.94063 35.39375Q74.7375 36.33125 76.03438 36.33125Q77.06563 36.33125 77.75313 35.70625Q78.45625 35.065624 78.64375 33.753124ZM81.22188 32.3625Q81.22188 29.4875 82.81563 28.096874Q84.15938 26.940624 86.08125 26.940624Q88.22188 26.940624 89.56563 28.346874Q90.925 29.753124 90.925 32.221874Q90.925 34.221874 90.33125 35.378124Q89.7375 36.51875 88.58125 37.159374Q87.44063 37.784374 86.08125 37.784374Q83.89375 37.784374 82.55 36.39375Q81.22188 34.9875 81.22188 32.3625ZM83.01875 32.3625Q83.01875 34.3625 83.87813 35.346874Q84.75313 36.33125 86.08125 36.33125Q87.39375 36.33125 88.25313 35.346874Q89.12813 34.346874 89.12813 32.3Q89.12813 30.378124 88.25313 29.39375Q87.37813 28.39375 86.08125 28.39375Q84.75313 28.39375 83.87813 29.39375Q83.01875 30.378124 83.01875 32.3625ZM92.8625 37.55L92.8625 27.175L94.45625 27.175L94.45625 28.659374Q95.59688 26.940624 97.75313 26.940624Q98.69063 26.940624 99.47188 27.284374Q100.26875 27.6125 100.65938 28.159374Q101.05 28.70625 101.20625 29.45625Q101.3 29.95625 101.3 31.175L101.3 37.55L99.53438 37.55L99.53438 31.2375Q99.53438 30.159374 99.33125 29.628124Q99.12813 29.096874 98.59688 28.784374Q98.08125 28.471874 97.37813 28.471874Q96.25313 28.471874 95.44063 29.190624Q94.62813 29.89375 94.62813 31.878124L94.62813 37.55L92.8625 37.55ZM102.15938 34.45625L103.90938 34.175Q104.05 35.221874 104.72188 35.784374Q105.39375 36.33125 106.59688 36.33125Q107.8 36.33125 108.37813 35.846874Q108.97188 35.346874 108.97188 34.690624Q108.97188 34.096874 108.45625 33.753124Q108.09688 33.51875 106.65938 33.159374Q104.72188 32.659374 103.97188 32.315624Q103.2375 31.95625 102.84688 31.33125Q102.45625 30.690624 102.45625 29.925Q102.45625 29.2375 102.76875 28.64375Q103.09688 28.05 103.64375 27.659374Q104.05 27.3625 104.75313 27.159374Q105.47188 26.940624 106.28438 26.940624Q107.50313 26.940624 108.425 27.3Q109.34688 27.64375 109.78438 28.253124Q110.22188 28.846874 110.39375 29.846874L108.675 30.08125Q108.55 29.284374 107.9875 28.846874Q107.425 28.39375 106.40938 28.39375Q105.19063 28.39375 104.675 28.8Q104.15938 29.190624 104.15938 29.721874Q104.15938 30.065624 104.37813 30.346874Q104.58125 30.628124 105.05 30.815624Q105.31563 30.909374 106.59688 31.253124Q108.47188 31.753124 109.20625 32.08125Q109.94063 32.39375 110.3625 33.003124Q110.78438 33.596874 110.78438 34.503124Q110.78438 35.378124 110.26875 36.159374Q109.75313 36.940624 108.78438 37.3625Q107.81563 37.784374 106.59688 37.784374Q104.58125 37.784374 103.51875 36.940624Q102.45625 36.096874 102.15938 34.45625ZM119.65938 37.55L119.65938 36.01875Q118.45625 37.784374 116.37813 37.784374Q115.45625 37.784374 114.65938 37.440624Q113.8625 37.08125 113.47188 36.55Q113.09688 36.01875 112.94063 35.2375Q112.83125 34.721874 112.83125 33.596874L112.83125 27.175L114.58125 27.175L114.58125 32.925Q114.58125 34.3 114.69063 34.784374Q114.8625 35.471874 115.39375 35.878124Q115.94063 36.26875 116.72188 36.26875Q117.51875 36.26875 118.20625 35.8625Q118.90938 35.45625 119.19063 34.76875Q119.4875 34.065624 119.4875 32.7375L119.4875 27.175L121.2375 27.175L121.2375 37.55L119.65938 37.55ZM122.8625 37.55L122.8625 27.175L124.44063 27.175L124.44063 28.628124Q124.925 27.878124 125.7375 27.409374Q126.55 26.940624 127.58125 26.940624Q128.7375 26.940624 129.47188 27.425Q130.20625 27.89375 130.51875 28.753124Q131.75313 26.940624 133.72188 26.940624Q135.26875 26.940624 136.09688 27.8Q136.925 28.659374 136.925 30.425L136.925 37.55L135.175 37.55L135.175 31.01875Q135.175 29.95625 135.00313 29.503124Q134.83125 29.034374 134.37813 28.753124Q133.94063 28.471874 133.33125 28.471874Q132.2375 28.471874 131.50313 29.20625Q130.78438 29.925 130.78438 31.51875L130.78438 37.55L129.03438 37.55L129.03438 30.815624Q129.03438 29.64375 128.59688 29.065624Q128.175 28.471874 127.19063 28.471874Q126.45625 28.471874 125.81563 28.8625Q125.19063 29.253124 124.90938 30.003124Q124.62813 30.753124 124.62813 32.175L124.62813 37.55L122.8625 37.55ZM138.87813 25.253124L138.87813 23.2375L140.64375 23.2375L140.64375 25.253124L138.87813 25.253124ZM138.87813 37.55L138.87813 27.175L140.64375 27.175L140.64375 37.55L138.87813 37.55ZM149.59688 37.55L149.59688 36.2375Q148.6125 37.784374 146.69063 37.784374Q145.45625 37.784374 144.40938 37.096874Q143.37813 36.409374 142.8 35.190624Q142.2375 33.971874 142.2375 32.378124Q142.2375 30.815624 142.75313 29.55Q143.26875 28.284374 144.3 27.6125Q145.34688 26.940624 146.6125 26.940624Q147.55 26.940624 148.28438 27.346874Q149.01875 27.7375 149.4875 28.3625L149.4875 23.2375L151.22188 23.2375L151.22188 37.55L149.59688 37.55ZM144.03438 32.378124Q144.03438 34.3625 144.87813 35.346874Q145.72188 36.33125 146.8625 36.33125Q148.01875 36.33125 148.81563 35.39375Q149.62813 34.45625 149.62813 32.51875Q149.62813 30.39375 148.8 29.39375Q147.9875 28.39375 146.78438 28.39375Q145.6125 28.39375 144.81563 29.3625Q144.03438 30.315624 144.03438 32.378124ZM153.22188 32.3625Q153.22188 29.4875 154.81563 28.096874Q156.15938 26.940624 158.08125 26.940624Q160.22188 26.940624 161.56563 28.346874Q162.925 29.753124 162.925 32.221874Q162.925 34.221874 162.33125 35.378124Q161.7375 36.51875 160.58125 37.159374Q159.44063 37.784374 158.08125 37.784374Q155.89375 37.784374 154.55 36.39375Q153.22188 34.9875 153.22188 32.3625ZM155.01875 32.3625Q155.01875 34.3625 155.87813 35.346874Q156.75313 36.33125 158.08125 36.33125Q159.39375 36.33125 160.25313 35.346874Q161.12813 34.346874 161.12813 32.3Q161.12813 30.378124 160.25313 29.39375Q159.37813 28.39375 158.08125 28.39375Q156.75313 28.39375 155.87813 29.39375Q155.01875 30.378124 155.01875 32.3625ZM164.15938 34.45625L165.90938 34.175Q166.05 35.221874 166.72188 35.784374Q167.39375 36.33125 168.59688 36.33125Q169.8 36.33125 170.37813 35.846874Q170.97188 35.346874 170.97188 34.690624Q170.97188 34.096874 170.45625 33.753124Q170.09688 33.51875 168.65938 33.159374Q166.72188 32.659374 165.97188 32.315624Q165.2375 31.95625 164.84688 31.33125Q164.45625 30.690624 164.45625 29.925Q164.45625 29.2375 164.76875 28.64375Q165.09688 28.05 165.64375 27.659374Q166.05 27.3625 166.75313 27.159374Q167.47188 26.940624 168.28438 26.940624Q169.50313 26.940624 170.425 27.3Q171.34688 27.64375 171.78438 28.253124Q172.22188 28.846874 172.39375 29.846874L170.675 30.08125Q170.55 29.284374 169.9875 28.846874Q169.425 28.39375 168.40938 28.39375Q167.19063 28.39375 166.675 28.8Q166.15938 29.190624 166.15938 29.721874Q166.15938 30.065624 166.37813 30.346874Q166.58125 30.628124 167.05 30.815624Q167.31563 30.909374 168.59688 31.253124Q170.47188 31.753124 171.20625 32.08125Q171.94063 32.39375 172.3625 33.003124Q172.78438 33.596874 172.78438 34.503124Q172.78438 35.378124 172.26875 36.159374Q171.75313 36.940624 170.78438 37.3625Q169.81563 37.784374 168.59688 37.784374Q166.58125 37.784374 165.51875 36.940624Q164.45625 36.096874 164.15938 34.45625ZM180.19063 33.253124L180.19063 31.4875L185.58125 31.4875L185.58125 33.253124L180.19063 33.253124ZM193.39375 33.76875L195.14375 33.534374Q195.45625 35.034374 196.175 35.690624Q196.90938 36.346874 197.95625 36.346874Q199.19063 36.346874 200.03438 35.4875Q200.89375 34.628124 200.89375 33.3625Q200.89375 32.14375 200.09688 31.3625Q199.31563 30.58125 198.09688 30.58125Q197.59688 30.58125 196.8625 30.76875L197.05 29.221874Q197.22188 29.253124 197.33125 29.253124Q198.45625 29.253124 199.34688 28.675Q200.25313 28.08125 200.25313 26.8625Q200.25313 25.89375 199.59688 25.253124Q198.94063 24.6125 197.90938 24.6125Q196.89375 24.6125 196.20625 25.26875Q195.51875 25.909374 195.33125 27.190624L193.56563 26.878124Q193.89375 25.1125 195.03438 24.14375Q196.175 23.175 197.87813 23.175Q199.05 23.175 200.03438 23.675Q201.01875 24.175 201.53438 25.05Q202.06563 25.925 202.06563 26.89375Q202.06563 27.815624 201.56563 28.58125Q201.06563 29.346874 200.09688 29.8Q201.3625 30.08125 202.06563 31.01875Q202.76875 31.940624 202.76875 33.315624Q202.76875 35.190624 201.39375 36.503124Q200.03438 37.8 197.94063 37.8Q196.05 37.8 194.8 36.675Q193.56563 35.55 193.39375 33.76875ZM217.64375 33.753124L219.3625 33.971874Q219.08125 35.76875 217.90938 36.784374Q216.75313 37.784374 215.05 37.784374Q212.925 37.784374 211.62813 36.39375Q210.33125 35.003124 210.33125 32.409374Q210.33125 30.721874 210.87813 29.471874Q211.44063 28.20625 212.58125 27.58125Q213.72188 26.940624 215.06563 26.940624Q216.75313 26.940624 217.81563 27.8Q218.89375 28.659374 219.20625 30.221874L217.4875 30.4875Q217.25313 29.440624 216.62813 28.925Q216.00313 28.39375 215.12813 28.39375Q213.8 28.39375 212.97188 29.346874Q212.14375 30.3 212.14375 32.346874Q212.14375 34.440624 212.94063 35.39375Q213.7375 36.33125 215.03438 36.33125Q216.06563 36.33125 216.75313 35.70625Q217.45625 35.065624 217.64375 33.753124ZM220.8625 41.51875L220.8625 27.175L222.47188 27.175L222.47188 28.51875Q223.03438 27.7375 223.7375 27.346874Q224.45625 26.940624 225.47188 26.940624Q226.8 26.940624 227.81563 27.628124Q228.83125 28.315624 229.34688 29.565624Q229.87813 30.8 229.87813 32.284374Q229.87813 33.878124 229.3 35.159374Q228.7375 36.425 227.64375 37.1125Q226.55 37.784374 225.34688 37.784374Q224.47188 37.784374 223.76875 37.409374Q223.08125 37.034374 222.62813 36.471874L222.62813 41.51875L220.8625 41.51875ZM222.45625 32.425Q222.45625 34.425 223.26875 35.378124Q224.08125 36.33125 225.2375 36.33125Q226.40938 36.33125 227.2375 35.346874Q228.08125 34.3625 228.08125 32.26875Q228.08125 30.3 227.25313 29.315624Q226.44063 28.315624 225.31563 28.315624Q224.19063 28.315624 223.31563 29.378124Q222.45625 30.425 222.45625 32.425ZM238.65938 37.55L238.65938 36.01875Q237.45625 37.784374 235.37813 37.784374Q234.45625 37.784374 233.65938 37.440624Q232.8625 37.08125 232.47188 36.55Q232.09688 36.01875 231.94063 35.2375Q231.83125 34.721874 231.83125 33.596874L231.83125 27.175L233.58125 27.175L233.58125 32.925Q233.58125 34.3 233.69063 34.784374Q233.8625 35.471874 234.39375 35.878124Q234.94063 36.26875 235.72188 36.26875Q236.51875 36.26875 237.20625 35.8625Q237.90938 35.45625 238.19063 34.76875Q238.4875 34.065624 238.4875 32.7375L238.4875 27.175L240.2375 27.175L240.2375 37.55L238.65938 37.55ZM243.4875 37.55L241.8625 37.55L241.8625 23.2375L243.6125 23.2375L243.6125 28.346874Q244.7375 26.940624 246.45625 26.940624Q247.40938 26.940624 248.26875 27.33125Q249.12813 27.721874 249.675 28.425Q250.22188 29.1125 250.53438 30.096874Q250.84688 31.08125 250.84688 32.20625Q250.84688 34.878124 249.53438 36.33125Q248.22188 37.784374 246.37813 37.784374Q244.53438 37.784374 243.4875 36.253124L243.4875 37.55ZM243.47188 32.284374Q243.47188 34.14375 243.97188 34.9875Q244.81563 36.33125 246.22188 36.33125Q247.37813 36.33125 248.20625 35.33125Q249.05 34.33125 249.05 32.346874Q249.05 30.315624 248.2375 29.3625Q247.44063 28.39375 246.3 28.39375Q245.14375 28.39375 244.3 29.39375Q243.47188 30.39375 243.47188 32.284374ZM259.97186 34.20625L261.78436 34.440624Q261.3625 36.01875 260.1906 36.909374Q259.03436 37.784374 257.22186 37.784374Q254.95625 37.784374 253.6125 36.39375Q252.28438 34.9875 252.28438 32.45625Q252.28438 29.83125 253.62813 28.39375Q254.97188 26.940624 257.1281 26.940624Q259.20624 26.940624 260.51874 28.3625Q261.84686 29.76875 261.84686 32.346874Q261.84686 32.503124 261.83124 32.815624L254.09688 32.815624Q254.19063 34.51875 255.06563 35.425Q255.94063 36.33125 257.2375 36.33125Q258.20624 36.33125 258.8781 35.83125Q259.5656 35.315624 259.97186 34.20625ZM254.19063 31.3625L259.9875 31.3625Q259.8781 30.065624 259.33124 29.409374Q258.4875 28.39375 257.14374 28.39375Q255.94063 28.39375 255.1125 29.20625Q254.28438 30.003124 254.19063 31.3625ZM263.8625 37.55L263.8625 27.175L265.45624 27.175L265.45624 28.659374Q266.59686 26.940624 268.7531 26.940624Q269.6906 26.940624 270.47186 27.284374Q271.26874 27.6125 271.65936 28.159374Q272.05 28.70625 272.20624 29.45625Q272.3 29.95625 272.3 31.175L272.3 37.55L270.53436 37.55L270.53436 31.2375Q270.53436 30.159374 270.33124 29.628124Q270.1281 29.096874 269.59686 28.784374Q269.08124 28.471874 268.3781 28.471874Q267.2531 28.471874 266.4406 29.190624Q265.6281 29.89375 265.6281 31.878124L265.6281 37.55L263.8625 37.55ZM280.64374 33.753124L282.3625 33.971874Q282.08124 35.76875 280.90936 36.784374Q279.7531 37.784374 278.05 37.784374Q275.925 37.784374 274.6281 36.39375Q273.33124 35.003124 273.33124 32.409374Q273.33124 30.721874 273.8781 29.471874Q274.4406 28.20625 275.58124 27.58125Q276.72186 26.940624 278.0656 26.940624Q279.7531 26.940624 280.8156 27.8Q281.89374 28.659374 282.20624 30.221874L280.4875 30.4875Q280.2531 29.440624 279.6281 28.925Q279.0031 28.39375 278.1281 28.39375Q276.8 28.39375 275.97186 29.346874Q275.14374 30.3 275.14374 32.346874Q275.14374 34.440624 275.9406 35.39375Q276.7375 36.33125 278.03436 36.33125Q279.0656 36.33125 279.7531 35.70625Q280.45624 35.065624 280.64374 33.753124ZM283.8625 37.55L283.8625 23.2375L285.6281 23.2375L285.6281 28.3625Q286.8625 26.940624 288.7375 26.940624Q289.8781 26.940624 290.72186 27.39375Q291.58124 27.846874 291.9406 28.659374Q292.3156 29.45625 292.3156 30.971874L292.3156 37.55L290.5656 37.55L290.5656 30.971874Q290.5656 29.659374 289.9875 29.065624Q289.40936 28.45625 288.3781 28.45625Q287.59686 28.45625 286.89374 28.8625Q286.20624 29.26875 285.90936 29.971874Q285.6281 30.659374 285.6281 31.878124L285.6281 37.55L283.8625 37.55Z" fill-rule="nonzero"/></svg>